<svg width="50" height="50" viewBox="0 0 50 50" fill="none" xmlns="http://www.w3.org/2000/svg">
<path fill-rule="evenodd" clip-rule="evenodd" d="M42.1999 6.2406C42.1999 3.65154 40.1015 1.5531 37.5124 1.5531H12.4937C9.90459 1.5531 7.80615 3.65154 7.80615 6.2406C7.80615 14.2953 7.80615 35.6953 7.80615 43.75C7.80615 46.339 9.90459 48.4375 12.4937 48.4375H37.5124C40.1015 48.4375 42.1999 46.339 42.1999 43.75V6.2406ZM39.0749 6.2406V43.75C39.0749 44.6125 38.3765 45.3125 37.5124 45.3125H12.4937C11.6312 45.3125 10.9312 44.6125 10.9312 43.75V6.2406C10.9312 5.3781 11.6312 4.6781 12.4937 4.6781H37.5124C38.3765 4.6781 39.0749 5.3781 39.0749 6.2406Z" fill="#16A4A4"/>
<path fill-rule="evenodd" clip-rule="evenodd" d="M17.1875 42.1781H32.8125C33.675 42.1781 34.375 41.4781 34.375 40.6156C34.375 39.7531 33.675 39.0531 32.8125 39.0531H17.1875C16.325 39.0531 15.625 39.7531 15.625 40.6156C15.625 41.4781 16.325 42.1781 17.1875 42.1781Z" fill="#16A4A4"/>
<path fill-rule="evenodd" clip-rule="evenodd" d="M17.1875 35.9375H32.8125C33.675 35.9375 34.375 35.2375 34.375 34.375C34.375 33.5125 33.675 32.8125 32.8125 32.8125H17.1875C16.325 32.8125 15.625 33.5125 15.625 34.375C15.625 35.2375 16.325 35.9375 17.1875 35.9375Z" fill="#16A4A4"/>
<path fill-rule="evenodd" clip-rule="evenodd" d="M25 7.8125C18.9641 7.8125 14.0625 12.7141 14.0625 18.75C14.0625 24.7859 18.9641 29.6875 25 29.6875C31.0359 29.6875 35.9375 24.7859 35.9375 18.75C35.9375 12.7141 31.0359 7.8125 25 7.8125ZM20.8687 12.1188C18.6594 13.5 17.1875 15.9547 17.1875 18.75C17.1875 23.0625 20.6875 26.5625 25 26.5625C27.4297 26.5625 29.6016 25.4516 31.0344 23.7094L23.3156 20.7125C22.8187 20.5187 22.4531 20.0844 22.35 19.5609L20.8687 12.1188ZM32.5047 20.9281L25.2469 18.1094L23.8375 11.0234C24.2172 10.9672 24.6047 10.9375 25 10.9375C29.3125 10.9375 32.8125 14.4375 32.8125 18.75C32.8125 19.5062 32.7047 20.2375 32.5047 20.9281Z" fill="#16A4A4"/>
</svg>
