<svg width="14" height="25" viewBox="0 0 14 25" fill="none" xmlns="http://www.w3.org/2000/svg">
<g clip-path="url(#clip0_231_150)">
<path d="M11.1229 24.5014C11.7564 25.1437 12.8117 25.1685 13.4785 24.5579C14.1452 23.9473 14.1705 22.9298 13.537 22.288L3.90734 12.502L13.4633 2.79105C13.7927 2.49671 14 2.07655 14 1.60965C14 0.721426 13.2516 0 12.3299 0H11.6307C11.1706 0.00692569 10.7133 0.189302 10.3846 0.547129L0.458842 11.3402C0.138842 11.6652 -0.0135727 12.0865 0.00159645 12.5014C-0.0128508 12.9176 0.138842 13.3389 0.458842 13.6632L11.1236 24.5014H11.1229Z" fill="#969FA6"/>
</g>
<defs>
<clipPath id="clip0_231_150">
<rect width="14" height="25" rx="4" transform="matrix(-1 0 0 1 14 0)" fill="white"/>
</clipPath>
</defs>
</svg>
