<svg width="22" height="22" viewBox="0 0 22 22" fill="none" xmlns="http://www.w3.org/2000/svg">
<path d="M8.50942 15.0474H1.73345C1.43645 15.0474 1.19531 14.8062 1.19531 14.5092V3.43881C1.19531 3.14155 1.43645 2.90068 1.73345 2.90068H7.32375C7.33544 1.4284 8.5419 0.231812 10.0144 0.231812H11.1453C12.6178 0.231812 13.8243 1.4284 13.836 2.90068H19.4263C19.7233 2.90068 19.9644 3.14155 19.9644 3.43881V7.15069H20.2661C20.5633 7.15069 20.8042 7.39157 20.8042 7.68883V21.2301C20.8042 21.5274 20.5633 21.7682 20.2661 21.7682H9.04756C8.75029 21.7682 8.50942 21.5274 8.50942 21.2301V15.0474ZM5.18497 3.97695V13.9711H8.50942V7.68883C8.50942 7.39157 8.75029 7.15069 9.04756 7.15069H18.8881V3.97695C14.3203 3.97695 9.75251 3.97695 5.18497 3.97695ZM4.10869 13.9711V3.97695H2.27159V13.9711H4.10869ZM11.2097 12.6625C10.5019 12.6625 10.5019 11.586 11.2097 11.586H18.1039C18.8117 11.586 18.8117 12.6625 18.1039 12.6625H11.2097ZM11.2097 17.3327C10.5019 17.3327 10.5019 16.2564 11.2097 16.2564H18.1039C18.8117 16.2564 18.8117 17.3327 18.1039 17.3327H11.2097ZM11.2097 14.9977C10.5019 14.9977 10.5019 13.9212 11.2097 13.9212H18.1039C18.8117 13.9212 18.8117 14.9977 18.1039 14.9977H11.2097ZM19.7279 8.22697H9.58569V20.692H19.7279V8.22697ZM8.40002 2.90068H12.7597C12.7477 2.02266 12.0238 1.30809 11.1453 1.30809H10.0144C9.13616 1.30809 8.41198 2.02266 8.40002 2.90068Z" fill="white"/>
</svg>
