<svg width="45" height="45" viewBox="0 0 45 45" fill="none" xmlns="http://www.w3.org/2000/svg">
<circle cx="22.5" cy="22.5" r="21.15" stroke="#16A4A4" stroke-width="2.7"/>
<path d="M19.6564 33.0882C17.8835 33.0882 15.5991 33.0882 13.799 33.0882C12.4984 33.0882 11.6791 31.654 12.2902 30.5058C13.5752 28.0922 15.2447 24.56 15.2447 22.5C15.2447 18.0882 15.2447 23.761 15.2447 19.1667C15.2447 15.8333 18.9203 12.5 22.5976 12.5C26.2749 12.5 29.9506 15.8333 29.9506 19.1667C29.9506 23.761 29.9506 18.0882 29.9506 22.5C29.9506 24.9393 31.7487 27.918 33.3567 30.094C34.2276 31.2725 33.4106 33.0882 31.9452 33.0882C29.9196 33.0882 27.4692 33.0882 25.5387 33.0882M19.6564 33.0882C19.6564 34.5588 19.3731 37.5 22.5976 37.5C25.8222 37.5 25.5387 34.5588 25.5387 33.0882M19.6564 33.0882C21.9536 33.0882 23.2416 33.0882 25.5387 33.0882" stroke="#16A4A4" stroke-width="2.7" stroke-linecap="round" stroke-linejoin="round"/>
<path d="M24.5837 9.16666C24.5837 10.3173 23.651 11.25 22.5003 11.25C21.3497 11.25 20.417 10.3173 20.417 9.16666C20.417 8.01606 21.3497 7.08333 22.5003 7.08333C23.651 7.08333 24.5837 8.01606 24.5837 9.16666Z" stroke="#16A4A4" stroke-width="2.7"/>
</svg>
