<svg width="50" height="50" viewBox="0 0 50 50" fill="none" xmlns="http://www.w3.org/2000/svg">
<path fill-rule="evenodd" clip-rule="evenodd" d="M11 13.3846H6.5C5.306 13.3846 4.1615 13.81 3.3185 14.5679C2.474 15.3244 2 16.3515 2 17.4231V38.9615C2 40.0331 2.474 41.0602 3.3185 41.8167C4.1615 42.5746 5.306 43 6.5 43C14.231 43 34.769 43 42.5 43C43.694 43 44.8385 42.5746 45.6815 41.8167C46.526 41.0602 47 40.0331 47 38.9615V17.4231C47 16.3515 46.526 15.3244 45.6815 14.5679C44.8385 13.81 43.694 13.3846 42.5 13.3846H38V12.0385C38 9.80788 35.9855 8 33.5 8H15.5C13.0145 8 11 9.80788 11 12.0385V13.3846ZM5 23.396V38.9615C5 39.3183 5.1575 39.6615 5.4395 39.9133C5.72 40.1663 6.1025 40.3077 6.5 40.3077H42.5C42.8975 40.3077 43.28 40.1663 43.5605 39.9133C43.8425 39.6615 44 39.3183 44 38.9615V23.3973C44 23.3973 29.2145 29.2302 29.0075 29.2329H29V30.9008C29 31.6452 28.328 32.2469 27.5 32.2469H21.5C20.672 32.2469 20 31.6452 20 30.9008V29.2275C19.796 29.2275 5 23.396 5 23.396ZM26 25.5V29.5546H23V25.5H26ZM44 20.4519V17.4231C44 17.0663 43.8425 16.7231 43.5605 16.4713C43.28 16.2183 42.8975 16.0769 42.5 16.0769H6.5C6.1025 16.0769 5.72 16.2183 5.4395 16.4713C5.1575 16.7231 5 17.0663 5 17.4231V20.4519L20 26.41V24.1538C20 23.4108 20.672 22.8077 21.5 22.8077H27.5C28.328 22.8077 29 23.4108 29 24.1538V26.414L44 20.4519ZM35 13.3846V12.0385C35 11.2954 34.328 10.6923 33.5 10.6923H15.5C14.672 10.6923 14 11.2954 14 12.0385V13.3846H35Z" fill="white"/>
</svg>
