<svg width="50" height="50" viewBox="0 0 50 50" fill="none" xmlns="http://www.w3.org/2000/svg">
<path d="M32.6269 7.83578V45H17.3735V7.83578C17.3735 6.20056 18.6935 5.0113 20.1602 5.0113H29.8402C31.4535 4.86265 32.6269 6.20056 32.6269 7.83578Z" stroke="#16A4A4" stroke-width="3" stroke-miterlimit="10" stroke-linecap="round" stroke-linejoin="round"/>
<path d="M27.0529 16.0119H22.9463C22.2129 16.0119 21.7729 15.4173 21.7729 14.8227V10.363C21.7729 9.61968 22.3596 9.17371 22.9463 9.17371H27.0529C27.7863 9.17371 28.2263 9.76833 28.2263 10.363V14.8227C28.2263 15.4173 27.7863 16.0119 27.0529 16.0119Z" stroke="#16A4A4" stroke-width="3" stroke-miterlimit="10" stroke-linecap="round" stroke-linejoin="round"/>
<path d="M27.0529 28.3504H22.9463C22.2129 28.3504 21.7729 27.7558 21.7729 27.1612V22.7015C21.7729 21.9582 22.3596 21.5122 22.9463 21.5122H27.0529C27.7863 21.5122 28.2263 22.1068 28.2263 22.7015V27.1612C28.2263 27.7558 27.7863 28.3504 27.0529 28.3504Z" stroke="#16A4A4" stroke-width="3" stroke-miterlimit="10" stroke-linecap="round" stroke-linejoin="round"/>
<path d="M27.0529 40.6889H22.9463C22.2129 40.6889 21.7729 40.0943 21.7729 39.4997V35.04C21.7729 34.2967 22.3596 33.8507 22.9463 33.8507H27.0529C27.7863 33.8507 28.2263 34.4453 28.2263 35.04V39.4997C28.2263 40.0943 27.7863 40.6889 27.0529 40.6889Z" stroke="#16A4A4" stroke-width="3" stroke-miterlimit="10" stroke-linecap="round" stroke-linejoin="round"/>
<path d="M17.3735 8.8764V44.8514H5.2002V20.769C5.2002 19.877 5.49353 19.1337 6.22686 18.5391L17.3735 8.8764Z" stroke="#16A4A4" stroke-width="3" stroke-miterlimit="10" stroke-linecap="round" stroke-linejoin="round"/>
<path d="M8.42627 21.9582H14.1463" stroke="#16A4A4" stroke-width="3" stroke-miterlimit="10" stroke-linecap="round" stroke-linejoin="round"/>
<path d="M38.7866 19.877V14.0793" stroke="#16A4A4" stroke-width="3" stroke-miterlimit="10" stroke-linecap="round" stroke-linejoin="round"/>
<path d="M38.7866 30.283V24.4854" stroke="#16A4A4" stroke-width="3" stroke-miterlimit="10" stroke-linecap="round" stroke-linejoin="round"/>
<path d="M38.7866 40.8376V34.8914" stroke="#16A4A4" stroke-width="3" stroke-miterlimit="10" stroke-linecap="round" stroke-linejoin="round"/>
<path d="M8.42627 26.7152H14.1463" stroke="#16A4A4" stroke-width="3" stroke-miterlimit="10" stroke-linecap="round" stroke-linejoin="round"/>
<path d="M8.42627 31.4722H14.1463" stroke="#16A4A4" stroke-width="3" stroke-miterlimit="10" stroke-linecap="round" stroke-linejoin="round"/>
<path d="M8.42627 36.0806H14.1463" stroke="#16A4A4" stroke-width="3" stroke-miterlimit="10" stroke-linecap="round" stroke-linejoin="round"/>
<path d="M8.42627 40.8376H14.1463" stroke="#16A4A4" stroke-width="3" stroke-miterlimit="10" stroke-linecap="round" stroke-linejoin="round"/>
<path d="M44.8003 12.7415V44.8514H32.627V9.91699H42.0136C43.4803 9.91699 44.8003 11.1062 44.8003 12.7415Z" stroke="#16A4A4" stroke-width="3" stroke-miterlimit="10" stroke-linecap="round" stroke-linejoin="round"/>
<path d="M3 45H47" stroke="#16A4A4" stroke-width="3" stroke-miterlimit="10" stroke-linecap="round" stroke-linejoin="round"/>
</svg>
