<svg width="57" height="57" viewBox="0 0 57 57" fill="none" xmlns="http://www.w3.org/2000/svg">
<path d="M37.2515 36.9651H21.1035" stroke="#16A4A4" stroke-width="3" stroke-miterlimit="10" stroke-linecap="round" stroke-linejoin="round"/>
<path d="M38.2537 33.7242H20.1304" stroke="#16A4A4" stroke-width="3" stroke-miterlimit="10" stroke-linecap="round" stroke-linejoin="round"/>
<path d="M11.0203 33.7242H4" stroke="#16A4A4" stroke-width="3" stroke-miterlimit="10" stroke-linecap="round" stroke-linejoin="round"/>
<path d="M21.1038 36.9651C21.1038 40.0777 18.6372 42.6011 15.5946 42.6011C12.552 42.6011 10.0854 40.0777 10.0854 36.9651C10.0854 35.7727 10.448 34.667 11.0646 33.7554C12.0607 32.2892 13.7176 31.3291 15.5946 31.3291C17.4649 31.3291 19.1183 32.2823 20.1144 33.7381C20.7378 34.6497 21.1038 35.7623 21.1038 36.9651Z" stroke="#16A4A4" stroke-width="3" stroke-miterlimit="10" stroke-linecap="round" stroke-linejoin="round"/>
<path d="M48.2737 36.9651C48.2737 40.0777 45.8071 42.6011 42.7645 42.6011C39.722 42.6011 37.2554 40.0777 37.2554 36.9651C37.2554 35.7589 37.6247 34.6393 38.2549 33.7242C39.251 32.2754 40.901 31.3291 42.7645 31.3291C44.628 31.3291 46.278 32.2754 47.2742 33.7242C47.901 34.6393 48.2737 35.7554 48.2737 36.9651Z" stroke="#16A4A4" stroke-width="3" stroke-miterlimit="10" stroke-linecap="round" stroke-linejoin="round"/>
<path d="M15.6249 38.4912C16.6229 38.4912 17.4319 37.6822 17.4319 36.6842C17.4319 35.6862 16.6229 34.8772 15.6249 34.8772C14.6269 34.8772 13.8179 35.6862 13.8179 36.6842C13.8179 37.6822 14.6269 38.4912 15.6249 38.4912Z" stroke="#16A4A4" stroke-width="3" stroke-miterlimit="10" stroke-linecap="round" stroke-linejoin="round"/>
<path d="M42.7304 38.4912C43.7284 38.4912 44.5374 37.6822 44.5374 36.6842C44.5374 35.6862 43.7284 34.8772 42.7304 34.8772C41.7324 34.8772 40.9233 35.6862 40.9233 36.6842C40.9233 37.6822 41.7324 38.4912 42.7304 38.4912Z" stroke="#16A4A4" stroke-width="3" stroke-miterlimit="10" stroke-linecap="round" stroke-linejoin="round"/>
<path d="M10.0818 36.9651H4V24.8509H8.70616L15.1471 16.4142C15.8281 15.5199 16.875 15 17.9796 15H34.507C35.6861 15 36.7974 15.5615 37.5157 16.5182L43.4043 24.3517H52.2068C53.3892 24.3517 54.3481 25.3326 54.3481 26.5458V36.9651H48.2663" stroke="#16A4A4" stroke-width="3" stroke-miterlimit="10" stroke-linecap="round" stroke-linejoin="round"/>
<path d="M47.2705 33.7242H54.3552" stroke="#16A4A4" stroke-width="3" stroke-miterlimit="10" stroke-linecap="round" stroke-linejoin="round"/>
<path d="M13.9673 24.7295H38.213L33.2256 18.1646H18.6565L13.9673 24.7295Z" stroke="#16A4A4" stroke-width="3" stroke-miterlimit="10" stroke-linecap="round" stroke-linejoin="round"/>
<path d="M25.7119 18.2721V24.7296" stroke="#16A4A4" stroke-width="3" stroke-miterlimit="10" stroke-linecap="round" stroke-linejoin="round"/>
<path d="M34.5981 28.5527H36.1296" stroke="#16A4A4" stroke-width="3" stroke-miterlimit="10" stroke-linecap="round" stroke-linejoin="round"/>
</svg>
