<svg width="50" height="50" viewBox="0 0 50 50" fill="none" xmlns="http://www.w3.org/2000/svg">
<path d="M40.2963 4H10.4456C9.64492 4 9 4.62971 9 5.40612V45.4419C9 46.22 9.64492 46.8497 10.4439 46.8497H32.5894C32.9449 46.8497 33.2885 46.7227 33.5543 46.4903L41.2561 39.7778C41.5624 39.5108 41.7385 39.1284 41.7385 38.7294V5.40612C41.7385 4.62971 41.0919 4 40.2963 4ZM38.8524 37.9415H32.1324V43.955L32.0427 44.0325H11.8894V6.8139H38.8507L38.8524 37.9415Z" fill="white"/>
<path d="M28.019 29.0118H20.6778C20.2597 29.0118 19.9229 29.3415 19.9229 29.747V36.8964C19.9229 37.3035 20.2597 37.6316 20.6778 37.6316H28.019C28.4354 37.6316 28.774 37.3019 28.774 36.8964V29.7487C28.7757 29.3432 28.4371 29.0118 28.019 29.0118ZM27.2675 36.1628H21.4344V30.4823H27.2675V36.1628Z" fill="white"/>
<path d="M28.6808 18.1255V18.0728C28.6808 17.7134 28.3812 17.4233 28.0139 17.4233H20.6845C20.3172 17.4233 20.0176 17.7134 20.0176 18.0728V25.2089C20.0176 25.5699 20.3172 25.86 20.6845 25.86H28.0156C28.3829 25.86 28.6825 25.5699 28.6825 25.2089V22.6653L27.5044 23.8127C27.4604 23.8555 27.3994 23.8769 27.3487 23.9149V24.5627H21.3514V18.7206H27.3487V19.4228L28.6808 18.1255Z" fill="white"/>
<path d="M30.054 17.7035L26.3368 21.3219L24.915 19.9355C24.5307 19.5613 23.9112 19.5613 23.527 19.9355C23.1427 20.3097 23.1427 20.9147 23.527 21.2856L25.6445 23.3494C25.8358 23.5357 26.088 23.6297 26.3385 23.6297C26.5907 23.6297 26.8429 23.5357 27.0325 23.3494L31.442 19.0536C31.8279 18.6794 31.8279 18.0761 31.442 17.7019C31.0595 17.3293 30.4382 17.3293 30.054 17.7035Z" fill="white"/>
<path d="M35.0067 10.8559H15.7354V12.8159H35.0067V10.8559Z" fill="white"/>
</svg>
