<svg width="19" height="19" viewBox="0 0 19 19" fill="none" xmlns="http://www.w3.org/2000/svg">
<path d="M14 5.49999C14 7.43299 12.433 9 10.5 9C8.567 9 7 7.43299 7 5.49999C7 3.567 8.567 2 10.5 2C12.433 2 14 3.567 14 5.49999Z" stroke="#16A4A4" stroke-width="1.5" stroke-linecap="round" stroke-linejoin="round"/>
<path d="M8.20346 11.4032C8.9037 11.6959 9.68121 11.8589 10.5 11.8589C11.3187 11.8589 12.0963 11.6959 12.7965 11.4032C13.2816 11.2004 13.5242 11.0991 13.6588 11.064C13.7989 11.0275 13.8799 11.0143 14.025 11.0044C14.1645 10.9947 14.269 11.0021 14.4782 11.0167C14.5623 11.0227 14.6366 11.0309 14.7066 11.0425C15.853 11.2325 16.7502 12.0604 16.9561 13.1183C17 13.3437 17 13.6138 17 14.1542V15.6291C17 16.1089 17 16.3488 16.8987 16.5322C16.8097 16.6934 16.6677 16.8245 16.493 16.9066C16.2943 17 16.0343 17 15.5142 17H5.48572C4.96567 17 4.70564 17 4.50701 16.9066C4.33229 16.8245 4.19023 16.6934 4.10121 16.5322C4 16.3488 4 16.1089 4 15.6291V14.1587C4 13.6141 4 13.3418 4.04456 13.1147C4.25153 12.0598 5.14625 11.2342 6.28946 11.0432C6.36088 11.0312 6.43629 11.0228 6.52176 11.0168C6.73073 11.0021 6.83521 10.9947 6.97476 11.0044C7.11983 11.0143 7.20096 11.0275 7.34096 11.0639C7.47566 11.099 7.71827 11.2004 8.20346 11.4032Z" stroke="#16A4A4" stroke-width="1.5" stroke-linecap="round" stroke-linejoin="round"/>
</svg>
