<svg width="50" height="50" viewBox="0 0 50 50" fill="none" xmlns="http://www.w3.org/2000/svg">
<path d="M7 10.25H43C44.5188 10.25 45.75 11.4812 45.75 13V16.75H4.25V13C4.25 11.4812 5.48122 10.25 7 10.25Z" stroke="#16A4A4" stroke-width="2.5"/>
<path d="M23 4.25H27C28.5188 4.25 29.75 5.48122 29.75 7V9.75H20.25V7C20.25 5.48122 21.4812 4.25 23 4.25Z" stroke="#16A4A4" stroke-width="2.5"/>
<path d="M30.6572 28.3431L19.3435 39.6568" stroke="#16A4A4" stroke-width="2.5" stroke-linecap="round"/>
<path d="M19.3438 28.3431L30.6575 39.6568" stroke="#16A4A4" stroke-width="2.5" stroke-linecap="round"/>
<path d="M4.25 22.25H45.75V43C45.75 44.5188 44.5188 45.75 43 45.75H7C5.48122 45.75 4.25 44.5188 4.25 43V22.25Z" stroke="#16A4A4" stroke-width="2.5"/>
</svg>
