<svg width="22" height="22" viewBox="0 0 22 22" fill="none" xmlns="http://www.w3.org/2000/svg">
<path d="M17.713 21H5.08696C4.51304 21 3.9913 20.7972 3.62609 20.3916C3.26087 20.0367 3 19.5298 3 18.9721V3.05323C3 2.49556 3.26087 1.98859 3.62609 1.63371C3.9913 1.22813 4.51304 1.02534 5.08696 1.02534H13.3304C13.5391 1.02534 13.7478 1.12674 13.9043 1.22813L19.5391 6.75411C19.7478 6.90621 19.8 7.10899 19.8 7.36248V18.9721C19.8 19.5298 19.5391 20.0367 19.1739 20.3916C18.8087 20.7972 18.287 21 17.713 21ZM5.08696 19.4791H17.713C17.8174 19.4791 17.9739 19.4284 18.0783 19.327C18.1826 19.2256 18.2348 19.1242 18.2348 18.9721V7.61597L13.0174 2.54626H5.08696C4.93043 2.54626 4.82609 2.59695 4.72174 2.69835C4.61739 2.74905 4.56522 2.90114 4.56522 3.05323V18.9721C4.56522 19.1242 4.61739 19.2256 4.72174 19.327C4.82609 19.4284 4.93043 19.4791 5.08696 19.4791Z" fill="white"/>
<path fill-rule="evenodd" clip-rule="evenodd" d="M13.3311 1.78581V7.2611H19.018L13.3311 1.78581Z" fill="white"/>
<path d="M14.1136 3.6109V6.50063H17.1396L14.1136 3.6109ZM12.5483 7.26109V1.7858C12.5483 1.58302 12.6527 1.38023 12.8092 1.22814C13.0701 0.923954 13.5918 0.923954 13.9049 1.22814L19.5396 6.75412C19.6962 6.85551 19.8005 7.0583 19.8005 7.26109C19.8005 7.71736 19.4353 8.02155 19.0179 8.02155H13.3309C12.9136 8.02155 12.5483 7.71736 12.5483 7.26109Z" fill="white"/>
<path d="M8.00917 12.7871C7.53961 12.7871 7.22656 12.4322 7.22656 12.0266C7.22656 11.621 7.53961 11.2662 8.00917 11.2662H14.7918C15.2613 11.2662 15.5744 11.621 15.5744 12.0266C15.5744 12.4322 15.2613 12.7871 14.7918 12.7871H8.00917Z" fill="white"/>
<path d="M8.00917 16.5894C7.53961 16.5894 7.22656 16.2852 7.22656 15.8289C7.22656 15.4233 7.53961 15.1191 8.00917 15.1191H11.87C12.3396 15.1191 12.6526 15.4233 12.6526 15.8289C12.6526 16.2852 12.3396 16.5894 11.87 16.5894H8.00917Z" fill="white"/>
</svg>
