<svg width="50" height="50" viewBox="0 0 50 50" fill="none" xmlns="http://www.w3.org/2000/svg">
<path fill-rule="evenodd" clip-rule="evenodd" d="M42.2002 6.15155C42.2002 4.9078 41.7049 3.71561 40.8268 2.83593C39.9471 1.9578 38.7549 1.46405 37.5127 1.46405C31.5252 1.46405 18.5002 1.46405 12.5127 1.46405C11.2689 1.46405 10.0768 1.9578 9.19707 2.83593C8.31895 3.71561 7.8252 4.9078 7.8252 6.15155C7.8252 14.2156 7.8252 35.6609 7.8252 43.725C7.8252 44.9687 8.31895 46.1609 9.19707 47.039C10.0768 47.9187 11.2689 48.4125 12.5127 48.4125C18.5002 48.4125 31.5252 48.4125 37.5127 48.4125C38.7549 48.4125 39.9471 47.9187 40.8268 47.039C41.7049 46.1609 42.2002 44.9687 42.2002 43.725V6.15155ZM39.0752 6.15155V43.725C39.0752 44.139 38.9096 44.5359 38.6174 44.8297C38.3236 45.1234 37.9268 45.2875 37.5127 45.2875H12.5127C12.0971 45.2875 11.7002 45.1234 11.4064 44.8297C11.1143 44.5359 10.9502 44.139 10.9502 43.725V6.15155C10.9502 5.73593 11.1143 5.33905 11.4064 5.0453C11.7002 4.75311 12.0971 4.58905 12.5127 4.58905H37.5127C37.9268 4.58905 38.3236 4.75311 38.6174 5.0453C38.9096 5.33905 39.0752 5.73593 39.0752 6.15155Z" fill="#16A4A4"/>
<path fill-rule="evenodd" clip-rule="evenodd" d="M25.2312 39.1984L29.039 41.9C29.3812 42.1422 29.8047 42.2375 30.2172 42.1625C30.6297 42.0891 30.9953 41.8531 31.2328 41.5078L35.6453 35.0594C36.1328 34.3469 35.95 33.375 35.2375 32.8875C34.5265 32.4 33.5531 32.5828 33.0656 33.2937L29.55 38.4312L27.039 36.65C26.3359 36.1516 25.3593 36.3172 24.8609 37.0203C24.3625 37.7234 24.5281 38.7 25.2312 39.1984Z" fill="#16A4A4"/>
<path fill-rule="evenodd" clip-rule="evenodd" d="M15.625 10.9188H34.3563C35.2188 10.9188 35.9188 10.2188 35.9188 9.35626C35.9188 8.49376 35.2188 7.79376 34.3563 7.79376H15.625C14.7625 7.79376 14.0625 8.49376 14.0625 9.35626C14.0625 10.2188 14.7625 10.9188 15.625 10.9188Z" fill="#16A4A4"/>
<path fill-rule="evenodd" clip-rule="evenodd" d="M15.625 17.1875H34.3563C35.2188 17.1875 35.9188 16.4875 35.9188 15.625C35.9188 14.7625 35.2188 14.0625 34.3563 14.0625H15.625C14.7625 14.0625 14.0625 14.7625 14.0625 15.625C14.0625 16.4875 14.7625 17.1875 15.625 17.1875Z" fill="#16A4A4"/>
<path fill-rule="evenodd" clip-rule="evenodd" d="M15.625 23.4562H34.3563C35.2188 23.4562 35.9188 22.7562 35.9188 21.8937C35.9188 21.0312 35.2188 20.3312 34.3563 20.3312H15.625C14.7625 20.3312 14.0625 21.0312 14.0625 21.8937C14.0625 22.7562 14.7625 23.4562 15.625 23.4562Z" fill="#16A4A4"/>
<path fill-rule="evenodd" clip-rule="evenodd" d="M15.625 29.6875H25.0125C25.8734 29.6875 26.575 28.9875 26.575 28.125C26.575 27.2625 25.8734 26.5625 25.0125 26.5625H15.625C14.7625 26.5625 14.0625 27.2625 14.0625 28.125C14.0625 28.9875 14.7625 29.6875 15.625 29.6875Z" fill="#16A4A4"/>
</svg>
