<svg width="25" height="25" viewBox="0 0 25 25" fill="none" xmlns="http://www.w3.org/2000/svg">
<path d="M22.6299 24.5929C22.6299 24.5933 22.6301 24.5937 22.6304 24.5941C23.1723 25.1355 24.0518 25.1353 24.5935 24.5936C25.1355 24.0517 25.1355 23.1719 24.5935 22.63L17.2917 15.3285C15.7295 13.7664 15.7295 11.2336 17.2917 9.6715L24.5935 2.37C25.1355 1.82809 25.1355 0.948337 24.5935 0.40643C24.0516 -0.135477 23.1718 -0.135477 22.6299 0.40643L11.5182 11.5175C10.9762 12.0594 10.9762 12.9392 11.5182 13.4811L22.6294 24.5917C22.6297 24.592 22.6299 24.5925 22.6299 24.5929ZM11.5182 24.5929C11.5182 24.5933 11.5183 24.5937 11.5186 24.5941C12.0606 25.1355 12.9401 25.1353 13.4818 24.5936C14.0238 24.0517 14.0238 23.1719 13.4818 22.63L6.18073 15.3283C4.61878 13.7662 4.61878 11.2338 6.18073 9.67169L13.4818 2.37C14.0238 1.82809 14.0238 0.948337 13.4818 0.40643C12.9399 -0.135477 12.0601 -0.135477 11.5182 0.40643L0.40645 11.5175C-0.135487 12.0594 -0.135487 12.9392 0.40645 13.4811L11.5177 24.5917C11.518 24.592 11.5182 24.5925 11.5182 24.5929Z" fill="#969FA6"/>
</svg>
