<svg width="27" height="25" viewBox="0 0 27 25" fill="none" xmlns="http://www.w3.org/2000/svg">
<path d="M13.5575 4.24242C15.4173 4.24242 17.2354 4.7559 18.7818 5.7179C20.3281 6.67992 21.5335 8.04727 22.2452 9.64704C22.9569 11.2468 23.1431 13.0072 22.7803 14.7055C22.4175 16.4038 21.5219 17.9638 20.2067 19.1881C18.8916 20.4126 17.2161 21.2464 15.392 21.5842C13.5679 21.922 11.6772 21.7486 9.95887 21.086C8.24061 20.4234 6.77197 19.3012 5.73871 17.8615C4.70543 16.4217 4.15393 14.7291 4.15393 12.9974C4.15393 10.6755 5.14465 8.44859 6.90815 6.80671C8.67165 5.16483 11.0635 4.24242 13.5575 4.24242ZM13.5575 3.61707C11.5648 3.61707 9.61682 4.16721 7.95996 5.19794C6.30311 6.22867 5.01174 7.69368 4.24918 9.40772C3.48661 11.1218 3.28708 13.0079 3.67583 14.8274C4.06459 16.6471 5.02416 18.3185 6.4332 19.6304C7.84225 20.9423 9.63747 21.8356 11.5919 22.1976C13.5463 22.5596 15.5721 22.3737 17.4131 21.6637C19.2541 20.9537 20.8276 19.7515 21.9347 18.2089C23.0418 16.6663 23.6327 14.8528 23.6327 12.9974C23.6327 10.5096 22.5711 8.12368 20.6818 6.36452C18.7923 4.60535 16.2295 3.61707 13.5575 3.61707Z" fill="white"/>
<path d="M13.5575 4.24242C15.4173 4.24242 17.2354 4.7559 18.7818 5.7179C20.3281 6.67992 21.5335 8.04727 22.2452 9.64704C22.9569 11.2468 23.1431 13.0072 22.7803 14.7055C22.4175 16.4038 21.5219 17.9638 20.2067 19.1881C18.8916 20.4126 17.2161 21.2464 15.392 21.5842C13.5679 21.922 11.6772 21.7486 9.95887 21.086C8.24061 20.4234 6.77197 19.3012 5.73871 17.8615C4.70543 16.4217 4.15393 14.7291 4.15393 12.9974C4.15393 10.6755 5.14465 8.44859 6.90815 6.80671C8.67165 5.16483 11.0635 4.24242 13.5575 4.24242ZM13.5575 3.61707C11.5648 3.61707 9.61682 4.16721 7.95996 5.19794C6.30311 6.22867 5.01174 7.69368 4.24918 9.40772C3.48661 11.1218 3.28708 13.0079 3.67583 14.8274C4.06459 16.6471 5.02416 18.3185 6.4332 19.6304C7.84225 20.9423 9.63747 21.8356 11.5919 22.1976C13.5463 22.5596 15.5721 22.3737 17.4131 21.6637C19.2541 20.9537 20.8276 19.7515 21.9347 18.2089C23.0418 16.6663 23.6327 14.8528 23.6327 12.9974C23.6327 10.5096 22.5711 8.12368 20.6818 6.36452C18.7923 4.60535 16.2295 3.61707 13.5575 3.61707Z" stroke="white" stroke-width="0.260566"/>
<path d="M13.955 19.5645C13.5263 19.5717 13.1006 19.495 12.7057 19.3394C12.6654 19.3394 11.7654 18.9329 10.7578 18.3639C9.75031 17.7947 8.95102 17.2319 8.91743 17.2069C8.62201 16.9799 8.37386 16.7044 8.1853 16.394L8.76294 16.075C8.91359 16.314 9.10926 16.5259 9.34059 16.7004C9.34059 16.7004 10.1399 17.2694 11.1205 17.8198C12.1012 18.3701 12.9945 18.7578 13.008 18.764C13.6285 18.986 14.3152 18.986 14.9357 18.764C14.9357 18.764 15.8425 18.3701 16.8231 17.8198C17.8038 17.2694 18.5963 16.7066 18.6031 16.7004C19.1252 16.2732 19.4699 15.6889 19.577 15.0494C19.577 15.0494 19.6844 14.0864 19.6844 12.9857C19.6844 11.8851 19.5837 10.9283 19.577 10.922C19.4694 10.2827 19.1249 9.69862 18.6031 9.2711C18.6031 9.2711 17.8038 8.70203 16.8231 8.15171C15.8425 7.6014 14.9021 7.22618 14.9021 7.22618C14.2817 7.00417 13.5948 7.00417 12.9744 7.22618C12.9744 7.22618 12.0676 7.62016 11.0937 8.17047C10.1197 8.72079 9.33386 9.27735 9.32715 9.28361C9.09604 9.45826 8.90039 9.67006 8.74952 9.90897L8.1853 9.60255C8.3776 9.29091 8.63041 9.01524 8.93086 8.78957C8.93086 8.78957 9.75704 8.20174 10.7713 7.63267C11.7855 7.06359 12.6856 6.67587 12.7191 6.65711C13.519 6.35958 14.4112 6.35958 15.211 6.65711C15.2513 6.65711 16.1447 7.06359 17.1589 7.63267C18.1731 8.20174 18.9322 8.76456 18.9926 8.78957C19.6619 9.32152 20.1009 10.0615 20.2285 10.872C20.2285 10.9095 20.336 11.8663 20.336 12.9983C20.336 14.1301 20.2353 15.0869 20.2285 15.1245C20.1009 15.935 19.6619 16.6749 18.9926 17.2069C18.9926 17.2069 18.1665 17.7947 17.1523 18.3639C16.1379 18.9329 15.238 19.3207 15.2044 19.3394C14.8094 19.495 14.3839 19.5717 13.955 19.5645Z" fill="white" stroke="white" stroke-width="0.260566"/>
<path d="M6.16827 11.1218H8.85501V11.7472H6.83996V14.874H6.16827V11.1218Z" fill="white" stroke="white" stroke-width="0.260566"/>
<path d="M11.5434 11.7472C11.8091 11.7472 12.0688 11.8205 12.2897 11.958C12.5106 12.0954 12.6828 12.2907 12.7845 12.5193C12.8861 12.7478 12.9127 12.9993 12.8609 13.2419C12.8091 13.4845 12.6811 13.7074 12.4933 13.8822C12.3054 14.0572 12.066 14.1763 11.8054 14.2246C11.5449 14.2728 11.2747 14.2481 11.0293 14.1535C10.7838 14.0587 10.574 13.8984 10.4264 13.6928C10.2788 13.4871 10.2 13.2453 10.2 12.9979C10.2 12.6662 10.3415 12.3481 10.5935 12.1135C10.8454 11.879 11.1871 11.7472 11.5434 11.7472ZM11.5434 11.1218C11.1448 11.1218 10.7552 11.2319 10.4239 11.438C10.0925 11.6441 9.83421 11.9372 9.6817 12.28C9.52919 12.6228 9.48929 13 9.56704 13.3639C9.64479 13.7278 9.83671 14.0621 10.1185 14.3245C10.4003 14.5868 10.7594 14.7655 11.1503 14.8379C11.5411 14.9103 11.9463 14.8732 12.3145 14.7312C12.6827 14.5892 12.9974 14.3487 13.2188 14.0402C13.4402 13.7317 13.5584 13.3689 13.5584 12.9979C13.5584 12.5003 13.3461 12.0232 12.9682 11.6713C12.5903 11.3195 12.0778 11.1218 11.5434 11.1218Z" fill="white"/>
<path d="M11.5434 11.7472C11.8091 11.7472 12.0688 11.8205 12.2897 11.958C12.5106 12.0954 12.6828 12.2907 12.7845 12.5193C12.8861 12.7478 12.9127 12.9993 12.8609 13.2419C12.8091 13.4845 12.6811 13.7074 12.4933 13.8822C12.3054 14.0572 12.066 14.1763 11.8054 14.2246C11.5449 14.2728 11.2747 14.2481 11.0293 14.1535C10.7838 14.0587 10.574 13.8984 10.4264 13.6928C10.2788 13.4871 10.2 13.2453 10.2 12.9979C10.2 12.6662 10.3415 12.3481 10.5935 12.1135C10.8454 11.879 11.1871 11.7472 11.5434 11.7472ZM11.5434 11.1218C11.1448 11.1218 10.7552 11.2319 10.4239 11.438C10.0925 11.6441 9.83421 11.9372 9.6817 12.28C9.52919 12.6228 9.48929 13 9.56704 13.3639C9.64479 13.7278 9.83671 14.0621 10.1185 14.3245C10.4003 14.5868 10.7594 14.7655 11.1503 14.8379C11.5411 14.9103 11.9463 14.8732 12.3145 14.7312C12.6827 14.5892 12.9974 14.3487 13.2188 14.0402C13.4402 13.7317 13.5584 13.3689 13.5584 12.9979C13.5584 12.5003 13.3461 12.0232 12.9682 11.6713C12.5903 11.3195 12.0778 11.1218 11.5434 11.1218Z" stroke="white" stroke-width="0.260566"/>
<path d="M16.2469 14.874C15.9272 14.8733 15.6124 14.8019 15.3284 14.6656C15.0442 14.5293 14.799 14.332 14.613 14.0901C14.427 13.8482 14.3054 13.5687 14.2583 13.2744C14.2112 12.9801 14.24 12.6796 14.3421 12.3977C14.4444 12.1158 14.6172 11.8606 14.8463 11.6532C15.0754 11.4457 15.3541 11.2919 15.6596 11.2046C15.9651 11.1172 16.2885 11.0987 16.6031 11.1506C16.9177 11.2026 17.2147 11.3235 17.4692 11.5033L17.0595 11.9973C16.8252 11.8337 16.5398 11.7458 16.2469 11.7472C16.0309 11.7474 15.818 11.7961 15.6266 11.8891C15.435 11.9821 15.2706 12.1168 15.1468 12.2817C15.0231 12.4466 14.944 12.6368 14.916 12.8361C14.8881 13.0356 14.9123 13.2383 14.9863 13.4272C15.0605 13.6161 15.1824 13.7855 15.342 13.9212C15.5014 14.0568 15.6936 14.1547 15.9023 14.2065C16.1111 14.2583 16.3301 14.2624 16.5409 14.2185C16.7517 14.1747 16.9481 14.0842 17.1133 13.9547L17.5432 14.4363C17.1798 14.7196 16.7208 14.8746 16.2469 14.874Z" fill="white" stroke="white" stroke-width="0.260566"/>
</svg>
