<svg width="19" height="19" viewBox="0 0 19 19" fill="none" xmlns="http://www.w3.org/2000/svg">
<path fill-rule="evenodd" clip-rule="evenodd" d="M6.75 2.5H14.75C15.5784 2.5 16.25 3.17157 16.25 4V15C16.25 15.8284 15.5784 16.5 14.75 16.5H6.75C5.92157 16.5 5.25 15.8284 5.25 15V10H8.40501L6.6805 12.0119C6.41093 12.3264 6.44734 12.7999 6.76184 13.0694C7.07633 13.339 7.5498 13.3026 7.81937 12.9881L10.7918 9.52026L11.2438 8.99294L10.7527 8.50184L7.75274 5.50184C7.45985 5.20894 6.98498 5.20894 6.69208 5.50184C6.39919 5.79473 6.39919 6.2696 6.69208 6.5625L8.62959 8.5H5.25V4C5.25 3.17157 5.92157 2.5 6.75 2.5ZM3.75 8.5V4C3.75 2.34315 5.09315 1 6.75 1H14.75C16.4069 1 17.75 2.34315 17.75 4V15C17.75 16.6569 16.4069 18 14.75 18H6.75C5.09315 18 3.75 16.6569 3.75 15V10H0.75C0.335786 10 0 9.66421 0 9.25C0 8.83579 0.335786 8.5 0.75 8.5H3.75Z" fill="#16A4A4"/>
</svg>
