<svg width="57" height="57" viewBox="0 0 57 57" fill="none" xmlns="http://www.w3.org/2000/svg">
<path d="M26.2289 30.4238H34.6008V32.7839C34.621 32.9607 34.6723 33.1326 34.7522 33.2916L36.2484 35.438C36.3303 35.556 36.4394 35.6524 36.5666 35.7191C36.6938 35.7858 36.8352 35.8207 36.9788 35.8209C37.1223 35.8207 37.2637 35.7858 37.3909 35.7191C37.5181 35.6524 37.6272 35.556 37.7091 35.438L38.5 34L39.2409 35.438C39.3228 35.556 39.4319 35.6524 39.5591 35.7191C39.6863 35.7858 39.8277 35.8207 39.9713 35.8209C40.1148 35.8207 40.2562 35.7858 40.3834 35.7191C40.5106 35.6524 40.6197 35.556 40.7016 35.438L41.4675 34.3425L42.2334 35.438C42.3155 35.5556 42.4248 35.6516 42.5519 35.7179C42.6791 35.7842 42.8204 35.8188 42.9638 35.8188C43.1072 35.8188 43.2484 35.7842 43.3756 35.7179C43.5027 35.6516 43.612 35.5556 43.6941 35.438L44.46 34.3425L45.217 35.438C45.2988 35.5574 45.4085 35.655 45.5365 35.7225C45.6645 35.79 45.8071 35.8253 45.9518 35.8253C46.0965 35.8253 46.2391 35.79 46.3671 35.7225C46.4951 35.655 46.6048 35.5574 46.6866 35.438L47.4436 34.3425L48.2095 35.438C48.2913 35.5574 48.401 35.655 48.529 35.7225C48.657 35.79 48.7996 35.8253 48.9443 35.8253C49.089 35.8253 49.2316 35.79 49.3596 35.7225C49.4876 35.655 49.5973 35.5574 49.6791 35.438L50.4361 34.3425L51.2109 35.4469C51.2938 35.5632 51.4033 35.6579 51.5304 35.723C51.6576 35.7881 51.7984 35.8217 51.9412 35.8209C52.0841 35.8217 52.2249 35.7881 52.3521 35.723C52.4792 35.6579 52.5887 35.5632 52.6716 35.4469L54.1678 33.2916C54.2557 33.1352 54.3103 32.9624 54.3281 32.7839V6.64406C54.3281 5.59057 53.9096 4.58023 53.1647 3.8353C52.4198 3.09037 51.4094 2.67188 50.3559 2.67188H32.4009C31.3474 2.67188 30.3371 3.09037 29.5922 3.8353C28.8472 4.58023 28.4288 5.59057 28.4288 6.64406V17.8125H23.1562C22.92 17.8125 22.6935 17.9063 22.5265 18.0734C22.3595 18.2404 22.2656 18.4669 22.2656 18.7031V26.4338C22.2656 27.4874 22.6823 28.4982 23.4248 29.2457C24.1673 29.9932 25.1753 30.4167 26.2289 30.4238ZM52.5469 6.64406V32.4722L51.9412 33.3628L51.1664 32.2584C51.0836 32.1421 50.974 32.0474 50.8469 31.9823C50.7198 31.9172 50.5789 31.8836 50.4361 31.8844C50.2925 31.8846 50.1511 31.9196 50.0239 31.9862C49.8968 32.0529 49.7876 32.1494 49.7058 32.2673L48.9844 33.3717L48.2273 32.2763C48.1456 32.1569 48.0359 32.0592 47.9079 31.9917C47.7798 31.9242 47.6373 31.8889 47.4926 31.8889C47.3479 31.8889 47.2053 31.9242 47.0773 31.9917C46.9493 32.0592 46.8396 32.1569 46.7578 32.2763L45.9919 33.3717L45.2348 32.2763C45.153 32.1583 45.0438 32.0618 44.9167 31.9952C44.7895 31.9285 44.6481 31.8935 44.5045 31.8933C44.3609 31.8935 44.2195 31.9285 44.0924 31.9952C43.9652 32.0618 43.8561 32.1583 43.7742 32.2763L43.0083 33.3717L42.2423 32.2763C42.1603 32.1587 42.051 32.0626 41.9239 31.9963C41.7967 31.93 41.6554 31.8954 41.512 31.8954C41.3686 31.8954 41.2274 31.93 41.1002 31.9963C40.9731 32.0626 40.8638 32.1587 40.7817 32.2763L40.0158 33.3717L39.1875 32.2763C39.1057 32.1583 38.9965 32.0618 38.8693 31.9952C38.7422 31.9285 38.6008 31.8935 38.4572 31.8933C38.3136 31.8935 38.1722 31.9285 38.045 31.9952C37.9179 32.0618 37.8087 32.1583 37.7269 32.2763L36.9609 33.3717L36.3642 32.4811V6.65297C36.3696 5.87156 36.1434 5.10606 35.7141 4.45313H50.3559C50.937 4.45313 51.4943 4.68396 51.9052 5.09484C52.316 5.50572 52.5469 6.06299 52.5469 6.64406ZM30.8512 5.09437C31.1588 4.78906 31.5498 4.58141 31.975 4.49748C32.4002 4.41355 32.8407 4.4571 33.2412 4.62264C33.6418 4.78818 33.9845 5.06835 34.2264 5.42798C34.4682 5.78761 34.5985 6.21067 34.6008 6.64406V28.6425H29.542C29.9735 27.9901 30.2028 27.2248 30.2011 26.4427V6.65297C30.2 6.36294 30.2569 6.07561 30.3686 5.80793C30.4802 5.54025 30.6444 5.29763 30.8512 5.09437ZM28.4198 26.4694C28.439 26.7694 28.3964 27.0702 28.2947 27.3532C28.193 27.6362 28.0344 27.8953 27.8287 28.1145C27.6229 28.3338 27.3744 28.5086 27.0985 28.628C26.8226 28.7475 26.5251 28.8091 26.2245 28.8091C25.9238 28.8091 25.6263 28.7475 25.3504 28.628C25.0745 28.5086 24.826 28.3338 24.6202 28.1145C24.4145 27.8953 24.2559 27.6362 24.1542 27.3532C24.0525 27.0702 24.0099 26.7694 24.0291 26.4694V19.5938H28.4198V26.4694Z" fill="#16A4A4" stroke="#16A4A4"/>
<path d="M38.8906 11.7812H44.4927C44.7289 11.7812 44.9554 11.6874 45.1224 11.5204C45.2894 11.3534 45.3833 11.1268 45.3833 10.8906C45.3833 10.6544 45.2894 10.4279 45.1224 10.2609C44.9554 10.0938 44.7289 10 44.4927 10H38.8906C38.6544 10 38.4279 10.0938 38.2609 10.2609C38.0938 10.4279 38 10.6544 38 10.8906C38 11.1268 38.0938 11.3534 38.2609 11.5204C38.4279 11.6874 38.6544 11.7812 38.8906 11.7812Z" fill="#16A4A4" stroke="#16A4A4"/>
<path d="M50.0858 14.7812H38.8906C38.6544 14.7812 38.4279 14.8751 38.2609 15.0421C38.0938 15.2091 38 15.4357 38 15.6719C38 15.9081 38.0938 16.1346 38.2609 16.3016C38.4279 16.4687 38.6544 16.5625 38.8906 16.5625H50.0858C50.322 16.5625 50.5485 16.4687 50.7155 16.3016C50.8826 16.1346 50.9764 15.9081 50.9764 15.6719C50.9764 15.4357 50.8826 15.2091 50.7155 15.0421C50.5485 14.8751 50.322 14.7812 50.0858 14.7812Z" fill="#16A4A4" stroke="#16A4A4"/>
<path d="M50.0858 19.5625H38.8906C38.6544 19.5625 38.4279 19.6563 38.2609 19.8234C38.0938 19.9904 38 20.2169 38 20.4531C38 20.6893 38.0938 20.9159 38.2609 21.0829C38.4279 21.2499 38.6544 21.3438 38.8906 21.3438H50.0858C50.322 21.3438 50.5485 21.2499 50.7155 21.0829C50.8826 20.9159 50.9764 20.6893 50.9764 20.4531C50.9764 20.2169 50.8826 19.9904 50.7155 19.8234C50.5485 19.6563 50.322 19.5625 50.0858 19.5625Z" fill="#16A4A4" stroke="#16A4A4"/>
<path d="M50.0858 24.3438H38.8906C38.6544 24.3438 38.4279 24.4376 38.2609 24.6046C38.0938 24.7716 38 24.9982 38 25.2344C38 25.4706 38.0938 25.6971 38.2609 25.8641C38.4279 26.0312 38.6544 26.125 38.8906 26.125H50.0858C50.322 26.125 50.5485 26.0312 50.7155 25.8641C50.8826 25.6971 50.9764 25.4706 50.9764 25.2344C50.9764 24.9982 50.8826 24.7716 50.7155 24.6046C50.5485 24.4376 50.322 24.3438 50.0858 24.3438Z" fill="#16A4A4" stroke="#16A4A4"/>
<path d="M54.0342 40.1405C53.8396 39.6517 53.5497 39.2065 53.1812 38.831C52.8128 38.4554 52.3733 38.1569 51.8883 37.953C51.4034 37.7491 50.8826 37.6437 50.3565 37.6431C49.8304 37.6425 49.3095 37.7467 48.8241 37.9495L37.4864 41.9395C37.5252 41.7159 37.5461 41.4896 37.5487 41.2626C37.5487 40.2517 37.1471 39.2821 36.4323 38.5672C35.7174 37.8524 34.7478 37.4508 33.7369 37.4508H30.7978C28.187 37.4594 25.6133 36.8328 23.2987 35.625C20.7328 34.268 17.8741 33.5587 14.9714 33.5587H10.5183V30.3614C10.5183 30.1252 10.4244 29.8986 10.2574 29.7316C10.0904 29.5646 9.86386 29.4708 9.62766 29.4708H3.5625C3.32629 29.4708 3.09976 29.5646 2.93273 29.7316C2.76571 29.8986 2.67188 30.1252 2.67188 30.3614V52.1817C2.67188 52.4179 2.76571 52.6444 2.93273 52.8115C3.09976 52.9785 3.32629 53.0723 3.5625 53.0723H9.62766C9.86386 53.0723 10.0904 52.9785 10.2574 52.8115C10.4244 52.6444 10.5183 52.4179 10.5183 52.1817V50.1778C12.1171 50.2512 13.6973 50.5511 15.2119 51.0684L19.7897 52.6805C22.1345 53.5129 24.6046 53.9376 27.0928 53.9362H27.9834C30.6498 53.8156 33.2721 53.212 35.723 52.155L52.1372 45.1369C53.0197 44.6908 53.7036 43.931 54.0546 43.0065C54.4056 42.0821 54.3983 41.0598 54.0342 40.1405ZM8.73703 51.2911H4.45312V31.252H8.73703V51.2911ZM51.4158 43.5694L35.055 50.5519C30.3953 52.5445 25.1576 52.7161 20.3775 51.0328L15.7997 49.4119C14.097 48.8221 12.3183 48.4801 10.5183 48.3965V35.3044H14.9714C17.5817 35.3029 20.1529 35.9388 22.4616 37.1569C25.0294 38.5183 27.8914 39.2308 30.7978 39.232H33.7369C34.0043 39.232 34.2691 39.2848 34.516 39.3874C34.763 39.49 34.9872 39.6404 35.1759 39.8299C35.3646 40.0194 35.514 40.2443 35.6155 40.4917C35.717 40.7391 35.7687 41.0041 35.7675 41.2715C35.7678 41.5613 35.7051 41.8476 35.5836 42.1106C35.4621 42.3736 35.2847 42.607 35.0639 42.7945L33.5677 43.32H23.8509C23.6147 43.32 23.3882 43.4138 23.2212 43.5808C23.0541 43.7479 22.9603 43.9744 22.9603 44.2106C22.9603 44.4468 23.0541 44.6734 23.2212 44.8404C23.3882 45.0074 23.6147 45.1012 23.8509 45.1012H33.7369C33.9952 45.1012 49.4742 39.6061 49.4742 39.6061C50.0217 39.3795 50.6367 39.3795 51.1842 39.6061C51.568 39.7661 51.8991 40.0308 52.1397 40.3699C52.3803 40.7091 52.5207 41.1091 52.5448 41.5242C52.569 41.9393 52.4759 42.3529 52.2763 42.7177C52.0766 43.0825 51.7785 43.3837 51.4158 43.5872V43.5694Z" fill="#16A4A4" stroke="#16A4A4"/>
</svg>
