<?xml version="1.0" encoding="utf-8"?>
<!-- Generator: Adobe Illustrator 28.0.0, SVG Export Plug-In . SVG Version: 6.00 Build 0)  -->
<svg version="1.1" id="Слой_1" xmlns="http://www.w3.org/2000/svg" xmlns:xlink="http://www.w3.org/1999/xlink" x="0px" y="0px"
	 viewBox="0 0 1000 686.8480835" enable-background="new 0 0 1000 686.8480835" xml:space="preserve">
<path fill="#0A2996" d="M166.7316895,540.0213623c-44.4641724,0-61.6385574,20.4412842-61.6385574,72.5996704
	c0,52.161438,17.181488,73.6787109,61.6385574,73.6787109s62.1504669-20.4413452,62.1504669-73.6787109
	C229.3860931,560.4537964,211.7015533,540.0213623,166.7316895,540.0213623z M166.7316895,655.6467285
	c-20.2097626,0-26.7781525-5.9165649-26.7781525-42.4832153c0-39.2610474,7.0729218-42.4891357,26.7781525-42.4891357
	c19.7058411,0,27.2823792,3.2280884,27.2823792,42.4891357C194.0140686,649.7301636,187.445343,655.6467285,166.7316895,655.6467285
	z"/>
<path fill="#0A2996" d="M349.3213196,650.2814941c0-0.536499-0.5039062-1.0760498-1.0078125-1.0760498h-1.5147095
	c-7.5765686,3.2280273-21.724762,5.3800659-31.3258667,5.3800659c-21.7247314,0-31.8327332-5.9165649-31.8327332-41.4130859
	c0-27.9674072,3.0264587-41.413147,31.8327332-41.413147c8.0804749,0,15.6600037,1.0760498,25.2610779,4.3040771
	c1.0107727,0,1.51474,0,2.0215759-1.0760498c3.530426-6.9925537,8.0804749-15.5947266,12.6305542-26.3547974v-1.6125488
	c0-0.5336304-0.5039062-1.0760498-1.0108032-1.0760498c-12.6305542-3.7615967-27.2826538-6.4560547-40.9240112-6.4560547
	c-44.9671936,0-65.1772308,22.5844116-65.1772308,73.1420898s20.2100372,74.2181396,65.1772308,74.2181396
	c11.1188049,0,33.3474731-2.6855469,44.4662781-6.9926147c1.0078125-0.5394897,1.5147095-1.6095581,1.0078125-2.1520386
	l-9.5951843-27.4309082L349.3213196,650.2814941z"/>
<path fill="#0A2996" d="M92.9659119,544.3432617H1.5141213C1.0093162,544.3432617,0,544.87677,0,545.9528198v134.4540405
	c0,1.0759888,1.0093162,1.6095581,1.5141213,1.6095581h30.8228378c1.0093155,0,1.514122-1.0760498,1.514122-1.6095581V576.605835
	h47.4924316c0.5045013,0,1.5141068-0.5365601,1.5141068-1.0760498c4.0446854-9.1445923,8.0822449-18.8227539,11.622406-29.043457
	V544.87677C93.9752274,544.3432617,93.4707108,544.3432617,92.9659119,544.3432617z"/>
<path fill="#0A2996" d="M422.078125,604.027771h2.0186157l39.9161377-60.2359009h48.5005493l-50.0211792,66.6860962
	l50.5251465,72.06604h-46.9858704l-41.9347839-67.7620239h-1.5147095v67.7620239h-41.4279175V544.3343506h41.4279175v59.6934204
	H422.078125z"/>
<path fill="#0A2996" d="M914.6038208,544.3432617v46.7872314c0,17.2102051,5.0539551,23.6604004,20.7139893,23.6604004
	c8.0952759,0,16.1786499-0.5424805,23.2513428-2.6885986v-67.7590332H1000v138.7492065h-41.4308472v-41.413147
	c-10.0991211,1.6095581-23.2513428,3.2280273-36.3887939,3.2280273c-33.8513794,0-49.5113525-16.1342773-49.5113525-53.2432861
	v-47.3297119h41.9348145V544.3432617z"/>
<path fill="#0A2996" d="M642.3670044,543.7918701H547.885437c-1.0078125,0-1.5117188,0.5335693-1.5117188,1.6095581
	c-2.5255127,45.7112427-10.6148682,94.6505127-22.2286377,134.9906006v1.6095581
	c0.5039062,0.5424194,1.0078125,0.5424194,1.5117188,0.5424194h32.3366699c0.506897,0,1.5147095-0.5424194,1.5147095-1.0759888
	c9.0912476-30.6529541,16.1668091-70.9900513,19.2022095-105.4135742h31.3258667v104.8710938
	c0,1.0760498,1.0108032,1.6095581,1.5147095,1.6095581h30.8220215c1.0106812,0,1.5146484-1.0759888,1.5146484-1.6095581V545.9439087
	c0.5039673-1.0759888-0.5039673-2.1520386-1.5146484-2.1520386H642.3670044z"/>
<path fill="#0A2996" d="M794.446228,540.5786743c-40.4170532,0-58.6026001,17.2132568-61.1340332,59.6934204h-23.2364502v-55.928833
	H671.668335v138.7492065h38.4074097v-55.9289551h23.7432861c3.0264893,41.9466553,21.2179565,58.6174316,60.6271973,58.6174316
	c44.472229,0,62.1508179-20.4412231,62.1508179-73.1420898c-0.5039673-51.6278076-17.6785889-72.0661011-62.1508179-72.0661011
	V540.5786743z M794.446228,655.6704102c-20.210022,0-26.2719116-5.9165649-26.2719116-42.4920654
	c0-38.7186279,7.0726929-42.4802246,26.2719116-42.4802246c19.2022095,0,26.7787476,3.2280273,26.7787476,42.4802246
	C821.2249756,649.7538452,814.65625,655.6704102,794.446228,655.6704102z"/>
<path fill="#0A2996" d="M591.4209595,141.3526459l-34.6606445-34.746582
	c-8.032959-9.4617844-22.1871338-10.5920486-31.6074219-2.5237427c-0.901123,0.7748413-1.7459106,1.6208344-2.5136719,2.5237427
	l-51.8797607,52.0771637c-3.6459656,3.7604065-3.6459656,9.7460632,0,13.506485l55.149292,55.3615112
	c3.7467651,3.6608124,9.7108154,3.6608124,13.4486694,0l52.0546265-51.9423065
	c10.6712036-10.712677,10.6712036-23.4937897,0-34.2562714H591.4209595z M556.3186646,158.3562775
	c0,8.0825348-6.5272217,14.6296234-14.5720825,14.6296234c-8.0478516,0-14.5721436-6.5541992-14.5721436-14.6296234
	c0-8.0751038,6.524292-14.6293182,14.5721436-14.6293182C549.7914429,143.7269592,556.3186646,150.2740479,556.3186646,158.3562775z
	 M506.863678,218.6734161l-27.0337219-27.2322998c-1.7488708-1.7488708-4.5708008-1.7488708-6.3196716,0l-16.0927429,16.1549835
	c-1.7429504,1.7577972-1.7429504,4.5945435,0,6.3493805l2.7359314,2.7448425l-57.3013,57.5651398
	c-0.8181152,0.8240662-1.286499,1.9385986-1.3012695,3.1065369l-0.4476013,23.897522
	c0,2.4899292,2.0037842,4.4996338,4.4848633,4.4996338h18.831665c1.1945801,0,2.3387756-0.4623718,3.1835938-1.3012695
	l4.2862549-4.3218079l0.0207214-0.020752c0.8121948-0.8181458,2.1905823-2.2113342,2.2172241-3.3554993l2.2409973-20.2574768
	l12.8587646-1.2657471c4.7694092-0.471283,9.2779846-2.3832092,12.9299316-5.4896851v-21.3809357l8.367981-0.3349457
	c8.3294373-0.3349762,16.2557678-3.7112274,22.2701721-9.4914398l14.0829773-13.5257263
	c1.7400208-1.7548218,1.7400208-4.5915833,0-6.3493652L506.863678,218.6734161z"/>
<path fill="#0A2996" d="M500.182312,413.2120972c-15.2924194,0-30.5818481-3.8297424-46.0935974-11.4863281
	c-36.4806824-18.0343323-63.8848572-33.845459-97.742157-56.3853455
	c-28.8181458-19.1933289-43.894165-45.3021851-46.1054688-79.8293762c-2.6174011-40.7402496-2.6174011-77.0726929,0-117.7894897
	c2.2113037-34.5192261,17.287323-60.6289444,46.0906372-79.815155
	c33.931427-22.6051331,61.3415527-38.4219055,97.7658386-56.4277649
	c31.014679-15.3048458,61.1607971-15.3119698,92.1635437,0.021348c36.4450684,18.01297,63.8463135,33.8368568,97.7480469,56.4277649
	c28.7766113,19.1719666,43.8526611,45.2674789,46.0847778,79.7653503c2.6381226,40.7037659,2.6381226,77.0421295,0,117.8535004
	c-2.2321167,34.5035095-17.3170166,60.6004944-46.0995483,79.7789917
	c-33.8514404,22.5428772-61.2467651,38.3510742-97.7125244,56.385376
	c-15.5117798,7.6773071-30.8101196,11.5100403-46.1143799,11.5100403L500.182312,413.2120972z M500.182312,24.2455368
	c-11.5456238,0-23.0882874,3.014019-35.3009033,9.0420532c-35.4075623,17.4942207-62.0647888,32.8773422-95.0565491,54.8570175
	c-22.6762695,15.0985565-33.5668335,33.9503784-35.3097839,61.1266327c-2.5433044,39.6443634-2.5433044,75.0163879,0,114.6835632
	c1.7429504,27.1759644,12.6335144,46.0402222,35.3157043,61.1459351
	c32.9147034,21.9174194,59.5629883,37.2868652,95.0358276,54.8232117
	c24.4310608,12.0614014,46.2121582,12.0495605,70.6462097-0.0148315
	c35.4639282-17.5451965,62.1004028-32.9117432,95.012146-54.8291626
	c22.661438-15.0908508,33.552002-33.9343567,35.3157349-61.1044006c2.5669556-39.7234955,2.5669556-75.09552,0-114.7185364
	c-1.7637329-27.1549072-12.6454468-45.9996262-35.3009644-61.0910645
	c-32.9620972-21.9654617-59.6133423-37.348568-95.0505981-54.8712502
	C523.2854004,27.2595558,511.7338562,24.2455368,500.182312,24.2455368z"/>
</svg>
