<svg width="22" height="22" viewBox="0 0 22 22" fill="none" xmlns="http://www.w3.org/2000/svg">
<g clip-path="url(#clip0_778_24)">
<path d="M6.11903 11.3219L7.21817 11.6049L7.65809 9.89566C7.73163 9.60749 8.02499 9.4334 8.31316 9.50693L10.644 10.1067C10.9324 10.1802 11.1065 10.4736 11.033 10.7617L10.5925 12.4733L11.5293 12.7145L13.0322 11.1858L11.7732 9.94815C11.5607 9.73949 11.5581 9.3978 11.7668 9.1855L13.4542 7.46923C13.6631 7.25668 14.0048 7.25382 14.2171 7.46274L15.4758 8.70038L16.2701 7.89226C16.479 7.67997 16.8207 7.67711 17.033 7.88602L21.6583 12.433C21.8706 12.642 21.8734 12.9837 21.6645 13.1959L15.0868 19.8864C14.8779 20.0987 14.5364 20.1016 14.3239 19.8927L14.1921 19.763L13.9775 20.5968C13.904 20.885 13.6106 21.0591 13.3224 20.9858L4.2362 18.6472C3.94803 18.5737 3.77393 18.2803 3.84747 17.9922L5.46396 11.7107C5.5375 11.4225 5.83086 11.2484 6.11903 11.3219ZM15.2248 5.66487C14.6723 6.10609 14.0004 5.26523 14.5528 4.82375L16.7168 3.09241C17.2692 2.65119 17.9412 3.49205 17.3888 3.93353L15.2248 5.66487ZM13.0927 5.39775C12.9623 6.09543 11.9014 5.89665 12.0321 5.19897L12.6271 2.06135C12.7578 1.36366 13.8187 1.56219 13.688 2.25987L13.0927 5.39775ZM2.81589 12.8288C3.51357 12.9595 3.31479 14.0202 2.61711 13.8895L0.615524 13.5109C-0.0821584 13.3802 0.116623 12.3195 0.814045 12.4502L2.81589 12.8288ZM3.28699 10.3665C3.87839 10.7607 3.27841 11.6608 2.68701 11.2666L0.73947 9.96816C0.148064 9.57423 0.748305 8.67387 1.33945 9.06806L3.28699 10.3665ZM4.23438 5.73919C3.7256 5.24444 4.47785 4.47089 4.98663 4.96563L5.63572 5.59913L7.30236 3.15451C7.702 2.56882 8.59379 3.17738 8.19415 3.76307L6.16528 6.73881C5.97352 7.01268 5.58609 7.05712 5.3434 6.82118L4.23438 5.73919ZM6.17932 0.997543C8.36045 0.997543 10.1284 2.76553 10.1284 4.94666C10.1284 7.1278 8.36045 8.89578 6.17932 8.89578C3.99818 8.89578 2.2302 7.1278 2.2302 4.94666C2.2302 2.76553 3.99818 0.997543 6.17932 0.997543ZM6.17932 2.07928C4.59556 2.07928 3.31193 3.36291 3.31193 4.94666C3.31193 6.53015 4.59582 7.81405 6.17932 7.81405C7.76281 7.81405 9.0467 6.53015 9.0467 4.94666C9.0467 3.36291 7.76281 2.07928 6.17932 2.07928ZM12.7368 13.0252L15.2053 13.6605C15.4934 13.7341 15.6675 14.0274 15.594 14.3156C15.2302 15.7289 14.8667 17.1422 14.5029 18.5555L14.6957 18.7452L20.517 12.8241L16.6612 9.0335L15.8668 9.84135C15.6579 10.0539 15.3165 10.0568 15.1039 9.84785L13.8453 8.61021L12.9145 9.55708L14.1734 10.7947C14.3857 11.0036 14.3886 11.3453 14.1797 11.5576L12.7368 13.0252ZM9.80337 13.3825C9.5152 13.3092 9.3411 13.0159 9.41438 12.7274L9.85508 11.0161L8.56755 10.6848L8.12763 12.3938C8.05409 12.6822 7.76073 12.8563 7.47256 12.7828L6.37342 12.4998L5.02535 17.7378L13.0681 19.8077L13.3588 18.6784L10.0492 17.8266C9.36267 17.6515 9.62901 16.6077 10.3155 16.7828L13.6272 17.6351L13.8569 16.7426L10.5476 15.8908C9.86079 15.7157 10.1271 14.6719 10.8136 14.847L14.1254 15.6993L14.4161 14.57C12.8786 14.1743 11.3409 13.7785 9.80337 13.3825Z" fill="white"/>
</g>
<defs>
<clipPath id="clip0_778_24">
<rect width="22" height="22" fill="white"/>
</clipPath>
</defs>
</svg>
