<svg width="50" height="50" viewBox="0 0 50 50" fill="none" xmlns="http://www.w3.org/2000/svg">
<path d="M6.97838 11.842H26.0321V6.15355C26.0321 5.51663 26.5482 5 27.1851 5H43.138C43.7749 5 44.2916 5.51663 44.2916 6.15355V42.6935H46.9789C48.4956 42.6935 48.4956 45 46.9789 45C32.3653 45 17.7511 45 3.13747 45C1.62084 45 1.62084 42.6935 3.13747 42.6935H5.82539V12.995C5.82539 12.3586 6.34146 11.842 6.97838 11.842ZM18.7539 42.6935V38.1574H15.4096V42.6935H18.7539ZM13.1031 42.6935V37.0039C13.1031 36.3675 13.6192 35.8509 14.2561 35.8509H19.9074C20.5443 35.8509 21.0604 36.3675 21.0604 37.0039V42.6935H26.0321V14.1486H8.13193V42.6935H13.1031ZM31.7018 9.78659H38.6214C39.2583 9.78659 39.7749 10.3027 39.7749 10.9396V31.699C39.7749 32.3359 39.2583 32.852 38.6214 32.852H31.7018C31.0649 32.852 30.5482 32.3359 30.5482 31.699V10.9396C30.5482 10.3027 31.0649 9.78659 31.7018 9.78659ZM37.4684 12.0926H32.8548V30.5455H37.4684V12.0926ZM11.5748 23.7988H15.3808C16.0177 23.7988 16.5338 24.3154 16.5338 24.9523V28.7578C16.5338 29.3947 16.0177 29.9113 15.3808 29.9113H11.5748C10.9379 29.9113 10.4213 29.3947 10.4213 28.7578V24.9523C10.4213 24.3154 10.9379 23.7988 11.5748 23.7988ZM14.2273 26.1053H12.7278V27.6048H14.2273V26.1053ZM18.7833 23.7988H22.5887C23.2256 23.7988 23.7422 24.3154 23.7422 24.9523V28.7578C23.7422 29.3947 23.2256 29.9113 22.5887 29.9113H18.7833C18.1463 29.9113 17.6297 29.3947 17.6297 28.7578V24.9523C17.6297 24.3154 18.1463 23.7988 18.7833 23.7988ZM21.4357 26.1053H19.9363V27.6048H21.4357V26.1053ZM11.5748 16.418H15.3808C16.0177 16.418 16.5338 16.934 16.5338 17.571V21.3769C16.5338 22.0139 16.0177 22.5299 15.3808 22.5299H11.5748C10.9379 22.5299 10.4213 22.0139 10.4213 21.3769V17.571C10.4213 16.934 10.9379 16.418 11.5748 16.418ZM14.2273 18.7245H12.7278V20.2234H14.2273V18.7245ZM18.7833 16.418H22.5887C23.2256 16.418 23.7422 16.934 23.7422 17.571V21.3769C23.7422 22.0139 23.2256 22.5299 22.5887 22.5299H18.7833C18.1463 22.5299 17.6297 22.0139 17.6297 21.3769V17.571C17.6297 16.934 18.1463 16.418 18.7833 16.418ZM21.4357 18.7245H19.9363V20.2234H21.4357V18.7245ZM28.3387 42.6935H41.985V7.30654H28.3387V42.6935Z" fill="white"/>
</svg>
