<svg width="57" height="57" viewBox="0 0 57 57" fill="none" xmlns="http://www.w3.org/2000/svg">
<path d="M53.8029 30.1858C53.6222 25.8733 48.4374 23.3363 45.3949 21.0544C43.387 19.5483 41.3792 18.0423 39.3713 16.5369C37.6626 15.2555 35.8073 14.5063 33.7683 15.7854C32.8892 16.3373 32.0277 16.9294 31.1767 17.545C31.1843 14.378 31.2116 11.2095 31.1729 8.0432C31.1516 6.30558 30.577 4.62111 28.6564 4.17854C27.6741 3.95233 26.521 4.09808 25.5281 4.09808C21.0949 4.09808 16.6617 4.09808 12.2284 4.09808C9.58139 4.09808 4.73824 3.19549 4.14309 6.86657C3.85083 8.66871 4.09678 10.672 4.09678 12.4855C4.09678 16.7434 4.09678 21.0005 4.09678 25.2584C4.09678 33.258 4.09678 41.2575 4.09678 49.2571C4.09678 50.1035 4.00038 51.0622 4.31009 51.8654C5.0396 53.7563 6.79468 53.9552 8.53457 53.9552C12.6103 53.9552 16.6852 53.9552 20.7609 53.9545C20.9294 53.9545 21.0729 53.9157 21.1951 53.8527C21.5557 53.915 21.9284 53.9499 22.3057 53.9545C31.727 54.0547 41.1545 53.9545 50.5759 53.9545C50.7117 53.9545 50.8294 53.9279 50.9357 53.8861C52.9716 53.5187 53.8021 51.9603 53.8021 49.96C53.8021 47.8322 53.8021 45.7044 53.8021 43.5766C53.8029 39.1274 53.9888 34.6327 53.8029 30.1858ZM7.33668 52.0582C5.97256 51.8198 5.99457 50.8611 5.99457 49.8552C5.99457 43.1022 5.99457 36.3483 5.99457 29.5952C5.99457 22.5681 5.99457 15.541 5.99457 8.51385C5.99457 8.1396 5.92701 7.69552 5.99457 7.32583C6.30429 5.62693 8.11705 5.99738 9.37187 5.99738C13.3587 5.99738 17.3456 5.99738 21.3325 5.99738C23.1688 5.99738 25.0051 5.99738 26.8414 5.99738C27.1792 5.99738 27.5876 5.93741 27.9231 5.99738C29.0337 6.19475 29.2075 6.95538 29.2743 7.86253C29.5408 11.4797 29.2743 15.2077 29.2743 18.837C29.2743 18.8818 29.2819 18.9213 29.2865 18.9623C27.4692 20.3614 25.686 21.8173 23.8861 23.1898C23.581 22.66 23.0147 22.2986 22.3596 22.2986C21.3826 22.2986 20.5908 23.0904 20.5908 24.0674C20.5908 24.5259 20.77 24.9403 21.0562 25.2546C20.4982 25.6911 19.9775 26.1602 19.5767 26.6939C18.3492 28.3313 18.3325 30.0173 18.3325 31.9242C18.3325 37.071 18.3325 42.2178 18.3325 47.3646C18.3325 48.6513 18.1199 50.1657 18.4129 51.4395C18.4653 51.6657 18.5374 51.8684 18.6209 52.0582C16.128 52.0582 13.6343 52.0582 11.1414 52.0582C9.93817 52.0574 8.52698 52.2654 7.33668 52.0582ZM41.714 52.0574C37.9503 52.0574 34.1866 52.0574 30.4229 52.0574V41.4959C30.4229 40.7633 31.0188 40.1674 31.7513 40.1674H40.3855C41.118 40.1674 41.714 40.7633 41.714 41.4959V52.0574ZM50.5766 52.0574C48.2552 52.0574 45.9331 52.0574 43.6117 52.0574V41.4959C43.6117 39.7165 42.1649 38.2696 40.3855 38.2696H31.7513C29.972 38.2696 28.5251 39.7165 28.5251 41.4959V52.0574C28.0332 52.0574 27.542 52.0574 27.0501 52.0574C25.4735 52.0574 23.8816 52.122 22.3057 52.0574C22.0681 52.0476 21.8009 52.1015 21.5663 52.0574C20.4527 51.8487 20.294 51.082 20.231 50.1786C19.938 45.9762 20.231 41.65 20.231 37.4376C20.231 35.3926 20.231 33.3468 20.231 31.3017C20.231 29.7023 20.4595 28.2903 21.7652 27.1448C24.9451 24.3566 28.6291 21.9965 32.0125 19.4595C33.0418 18.6875 34.3824 17.2611 35.7086 17.0448C37.2154 16.7988 38.7671 18.4423 39.8761 19.2743C43.3362 21.869 47.0528 24.2958 50.3314 27.116C51.8193 28.3958 51.9043 29.9406 51.9043 31.7048C51.9043 34.1082 51.9043 36.5108 51.9043 38.9141C51.9043 41.634 51.9043 44.3532 51.9043 47.0731C51.9051 48.3613 52.5215 51.8593 50.5766 52.0574Z" fill="#16A4A4" stroke="#16A4A4" stroke-width="2"/>
<path d="M40.3853 28.5035H31.7511C29.9718 28.5035 28.5249 29.9504 28.5249 31.7297V32.4289C28.5249 34.2082 29.9718 35.6551 31.7511 35.6551H40.3853C42.1647 35.6551 43.6115 34.2082 43.6115 32.4289V31.7297C43.6115 29.9504 42.1647 28.5035 40.3853 28.5035ZM41.7138 32.4289C41.7138 33.1614 41.1179 33.7573 40.3853 33.7573H31.7511C31.0186 33.7573 30.4227 33.1614 30.4227 32.4289V31.7297C30.4227 30.9972 31.0186 30.4013 31.7511 30.4013H40.3853C41.1179 30.4013 41.7138 30.9972 41.7138 31.7297V32.4289Z" fill="#16A4A4" stroke="#16A4A4" stroke-width="2"/>
<path d="M12.8776 15.2395C13.8545 15.2395 14.6464 14.4476 14.6464 13.4707C14.6464 12.4939 13.8545 11.702 12.8776 11.702C11.9008 11.702 11.1089 12.4939 11.1089 13.4707C11.1089 14.4476 11.9008 15.2395 12.8776 15.2395Z" fill="#16A4A4" stroke="#16A4A4" stroke-width="2"/>
<path d="M22.3605 15.2395C23.3374 15.2395 24.1293 14.4476 24.1293 13.4707C24.1293 12.4939 23.3374 11.702 22.3605 11.702C21.3837 11.702 20.5918 12.4939 20.5918 13.4707C20.5918 14.4476 21.3837 15.2395 22.3605 15.2395Z" fill="#16A4A4" stroke="#16A4A4" stroke-width="2"/>
<path d="M12.8776 25.8352C13.8545 25.8352 14.6464 25.0433 14.6464 24.0665C14.6464 23.0896 13.8545 22.2977 12.8776 22.2977C11.9008 22.2977 11.1089 23.0896 11.1089 24.0665C11.1089 25.0433 11.9008 25.8352 12.8776 25.8352Z" fill="#16A4A4" stroke="#16A4A4" stroke-width="2"/>
<path d="M12.8776 36.4309C13.8545 36.4309 14.6464 35.639 14.6464 34.6622C14.6464 33.6853 13.8545 32.8934 12.8776 32.8934C11.9008 32.8934 11.1089 33.6853 11.1089 34.6622C11.1089 35.639 11.9008 36.4309 12.8776 36.4309Z" fill="#16A4A4" stroke="#16A4A4" stroke-width="2"/>
<path d="M12.8776 47.0266C13.8545 47.0266 14.6464 46.2347 14.6464 45.2579C14.6464 44.2811 13.8545 43.4892 12.8776 43.4892C11.9008 43.4892 11.1089 44.2811 11.1089 45.2579C11.1089 46.2347 11.9008 47.0266 12.8776 47.0266Z" fill="#16A4A4" stroke="#16A4A4" stroke-width="2"/>
</svg>
