<svg width="50" height="50" viewBox="0 0 50 50" fill="none" xmlns="http://www.w3.org/2000/svg">
<path d="M6 45H44C44.5523 45 45 44.5523 45 44V22.3265C45 21.7742 44.5523 21.3265 44 21.3265H34.4536C33.9013 21.3265 33.4536 20.8788 33.4536 20.3265V18.1561C33.4536 17.8397 33.3038 17.5418 33.0497 17.3532L25.6101 11.8305C25.356 11.6418 25.2062 11.344 25.2062 11.0275V9.67347C25.2062 9.12118 25.6539 8.67347 26.2062 8.67347H31.2165C31.7688 8.67347 32.2165 8.22575 32.2165 7.67347V6C32.2165 5.44772 31.7688 5 31.2165 5H25.7938C25.2415 5 24.7938 5.44772 24.7938 6V11.0275C24.7938 11.344 24.644 11.6418 24.3899 11.8305L16.9503 17.3532C16.6962 17.5418 16.5464 17.8397 16.5464 18.1561V20.3265C16.5464 20.8788 16.0987 21.3265 15.5464 21.3265H6C5.44772 21.3265 5 21.7742 5 22.3265V44C5 44.5523 5.44771 45 6 45Z" stroke="white" stroke-width="3"/>
<path d="M10 29.4999V26.4999C10 26.2238 10.2239 25.9999 10.5 25.9999H14.5C14.7761 25.9999 15 26.2238 15 26.4999V29.4999C15 29.7761 14.7761 29.9999 14.5 29.9999H10.5C10.2239 29.9999 10 29.7761 10 29.4999Z" stroke="white" stroke-width="2"/>
<path d="M10 38.5V35.5C10 35.2239 10.2239 35 10.5 35H14.5C14.7761 35 15 35.2239 15 35.5V38.5C15 38.7761 14.7761 39 14.5 39H10.5C10.2239 39 10 38.7761 10 38.5Z" stroke="white" stroke-width="2"/>
<path d="M17.9995 29.4999V26.4999C17.9995 26.2238 18.2234 25.9999 18.4995 25.9999H22.4995C22.7757 25.9999 22.9995 26.2238 22.9995 26.4999V29.4999C22.9995 29.7761 22.7757 29.9999 22.4995 29.9999H18.4995C18.2234 29.9999 17.9995 29.7761 17.9995 29.4999Z" stroke="white" stroke-width="2"/>
<path d="M17.9995 38.5V35.5C17.9995 35.2239 18.2234 35 18.4995 35H22.4995C22.7757 35 22.9995 35.2239 22.9995 35.5V38.5C22.9995 38.7761 22.7757 39 22.4995 39H18.4995C18.2234 39 17.9995 38.7761 17.9995 38.5Z" stroke="white" stroke-width="2"/>
<path d="M26 29.4999V26.4999C26 26.2238 26.2239 25.9999 26.5 25.9999H30.5C30.7761 25.9999 31 26.2238 31 26.4999V29.4999C31 29.7761 30.7761 29.9999 30.5 29.9999H26.5C26.2239 29.9999 26 29.7761 26 29.4999Z" stroke="white" stroke-width="2"/>
<path d="M26 38.5V35.5C26 35.2239 26.2239 35 26.5 35H30.5C30.7761 35 31 35.2239 31 35.5V38.5C31 38.7761 30.7761 39 30.5 39H26.5C26.2239 39 26 38.7761 26 38.5Z" stroke="white" stroke-width="2"/>
<path d="M34 29.4999V26.4999C34 26.2238 34.2239 25.9999 34.5 25.9999H38.5C38.7761 25.9999 39 26.2238 39 26.4999V29.4999C39 29.7761 38.7761 29.9999 38.5 29.9999H34.5C34.2239 29.9999 34 29.7761 34 29.4999Z" stroke="white" stroke-width="2"/>
<path d="M34 38.5V35.5C34 35.2239 34.2239 35 34.5 35H38.5C38.7761 35 39 35.2239 39 35.5V38.5C39 38.7761 38.7761 39 38.5 39H34.5C34.2239 39 34 38.7761 34 38.5Z" stroke="white" stroke-width="2"/>
<circle cx="25" cy="20.0001" r="1" stroke="white" stroke-width="3"/>
</svg>
