<svg width="50" height="50" viewBox="0 0 50 50" fill="none" xmlns="http://www.w3.org/2000/svg">
<g clip-path="url(#clip0_840_34)">
<path d="M30.5 36.25C30.4967 37.2436 30.0611 38.1958 29.2882 38.8984C28.5153 39.601 27.468 39.997 26.375 40H23.625C22.532 39.997 21.4847 39.601 20.7118 38.8984C19.9389 38.1958 19.5033 37.2436 19.5 36.25C19.5 35.9185 19.6449 35.6005 19.9027 35.3661C20.1606 35.1317 20.5103 35 20.875 35H29.125C29.4897 35 29.8394 35.1317 30.0973 35.3661C30.3551 35.6005 30.5 35.9185 30.5 36.25Z" fill="#16A4A4"/>
<path d="M33.25 21.25H22.25C21.8853 21.25 21.5356 21.1183 21.2777 20.8839C21.0199 20.6495 20.875 20.3315 20.875 20C20.875 19.6685 21.0199 19.3505 21.2777 19.1161C21.5356 18.8817 21.8853 18.75 22.25 18.75H33.25C33.6147 18.75 33.9644 18.8817 34.2223 19.1161C34.4801 19.3505 34.625 19.6685 34.625 20C34.625 20.3315 34.4801 20.6495 34.2223 20.8839C33.9644 21.1183 33.6147 21.25 33.25 21.25Z" fill="#16A4A4"/>
<path d="M33.25 26.25H16.75C16.3853 26.25 16.0356 26.1183 15.7777 25.8839C15.5199 25.6495 15.375 25.3315 15.375 25C15.375 24.6685 15.5199 24.3505 15.7777 24.1161C16.0356 23.8817 16.3853 23.75 16.75 23.75H33.25C33.6147 23.75 33.9644 23.8817 34.2223 24.1161C34.4801 24.3505 34.625 24.6685 34.625 25C34.625 25.3315 34.4801 25.6495 34.2223 25.8839C33.9644 26.1183 33.6147 26.25 33.25 26.25Z" fill="#16A4A4"/>
<path d="M27.75 31.25H16.75C16.3853 31.25 16.0356 31.1183 15.7777 30.8839C15.5199 30.6495 15.375 30.3315 15.375 30C15.375 29.6685 15.5199 29.3505 15.7777 29.1161C16.0356 28.8817 16.3853 28.75 16.75 28.75H27.75C28.1147 28.75 28.4644 28.8817 28.7223 29.1161C28.9801 29.3505 29.125 29.6685 29.125 30C29.125 30.3315 28.9801 30.6495 28.7223 30.8839C28.4644 31.1183 28.1147 31.25 27.75 31.25Z" fill="#16A4A4"/>
<path d="M45.625 35H40.125V13.75C40.1249 13.4185 39.98 13.1006 39.7221 12.8663L39.3192 12.5H40.125C40.8543 12.5 41.5538 12.7634 42.0695 13.2322C42.5853 13.7011 42.875 14.337 42.875 15V31.25C42.875 31.5815 43.0199 31.8995 43.2777 32.1339C43.5356 32.3683 43.8853 32.5 44.25 32.5C44.6147 32.5 44.9644 32.3683 45.2223 32.1339C45.4801 31.8995 45.625 31.5815 45.625 31.25V15C45.625 13.6739 45.0455 12.4021 44.0141 11.4645C42.9826 10.5268 41.5837 10 40.125 10H36.5692L31.4721 5.36625C31.2143 5.13181 30.8646 5.00007 30.5 5H14C12.906 5 11.8568 5.39509 11.0832 6.09835C10.3096 6.80161 9.875 7.75544 9.875 8.75V10C8.41631 10 7.01736 10.5268 5.98591 11.4645C4.95446 12.4021 4.375 13.6739 4.375 15V35C4.01033 35 3.66059 35.1317 3.40273 35.3661C3.14487 35.6005 3 35.9185 3 36.25L3 38.75C3.00218 40.407 3.72721 41.9956 5.01605 43.1672C6.30489 44.3389 8.05231 44.998 9.875 45H12.625C12.9897 45 13.3394 44.8683 13.5973 44.6339C13.8551 44.3995 14 44.0815 14 43.75C14 43.4185 13.8551 43.1005 13.5973 42.8661C13.3394 42.6317 12.9897 42.5 12.625 42.5H9.875C8.78098 42.5 7.73177 42.1049 6.95818 41.4017C6.1846 40.6984 5.75 39.7446 5.75 38.75V37.5H44.25V38.75C44.25 39.7446 43.8154 40.6984 43.0418 41.4017C42.2682 42.1049 41.219 42.5 40.125 42.5H18.125C17.7603 42.5 17.4106 42.6317 17.1527 42.8661C16.8949 43.1005 16.75 43.4185 16.75 43.75C16.75 44.0815 16.8949 44.3995 17.1527 44.6339C17.4106 44.8683 17.7603 45 18.125 45H40.125C41.9477 44.998 43.6951 44.3389 44.9839 43.1672C46.2728 41.9956 46.9978 40.407 47 38.75V36.25C47 35.9185 46.8551 35.6005 46.5973 35.3661C46.3394 35.1317 45.9897 35 45.625 35ZM31.875 9.2675L35.0265 12.1325L35.4308 12.5H31.875V9.2675ZM7.125 15C7.125 14.337 7.41473 13.7011 7.93046 13.2322C8.44618 12.7634 9.14565 12.5 9.875 12.5V35H7.125V15ZM12.625 35V8.75C12.625 8.41848 12.7699 8.10054 13.0277 7.86612C13.2856 7.6317 13.6353 7.5 14 7.5H29.125V13.75C29.125 14.0815 29.2699 14.3995 29.5277 14.6339C29.7856 14.8683 30.1353 15 30.5 15H37.375V35H12.625Z" fill="#16A4A4"/>
</g>
<defs>
<clipPath id="clip0_840_34">
<rect width="44" height="40" fill="white" transform="translate(3 5)"/>
</clipPath>
</defs>
</svg>
