<svg width="22" height="22" viewBox="0 0 22 22" fill="none" xmlns="http://www.w3.org/2000/svg">
<path d="M19.8001 11C19.8001 11.6072 19.2087 12.1 18.4801 12.1H7.9201C7.19146 12.1 6.6001 11.6072 6.6001 11C6.6001 10.3928 7.19146 9.89999 7.9201 9.89999H18.4801C19.2087 9.89999 19.8001 10.3928 19.8001 11Z" fill="white"/>
<path d="M19.8001 4.39999C19.8001 5.00719 19.2087 5.49999 18.4801 5.49999H7.9201C7.19146 5.49999 6.6001 5.00719 6.6001 4.39999C6.6001 3.79279 7.19146 3.29999 7.9201 3.29999H18.4801C19.2087 3.29999 19.8001 3.79279 19.8001 4.39999Z" fill="white"/>
<path d="M19.8001 17.6C19.8001 18.2072 19.2087 18.7 18.4801 18.7H7.9201C7.19146 18.7 6.6001 18.2072 6.6001 17.6C6.6001 16.9928 7.19146 16.5 7.9201 16.5H18.4801C19.2087 16.5 19.8001 16.9928 19.8001 17.6Z" fill="white"/>
<path d="M2.2002 4.39999C2.2002 5.00664 2.69355 5.49999 3.3002 5.49999C3.90685 5.49999 4.4002 5.00664 4.4002 4.39999C4.4002 3.79334 3.90685 3.29999 3.3002 3.29999C2.69355 3.29999 2.2002 3.79334 2.2002 4.39999Z" fill="white"/>
<path d="M2.2002 11C2.2002 11.6066 2.69355 12.1 3.3002 12.1C3.90685 12.1 4.4002 11.6066 4.4002 11C4.4002 10.3933 3.90685 9.89999 3.3002 9.89999C2.69355 9.89999 2.2002 10.3933 2.2002 11Z" fill="white"/>
<path d="M2.2002 17.6C2.2002 18.2067 2.69355 18.7 3.3002 18.7C3.90685 18.7 4.4002 18.2067 4.4002 17.6C4.4002 16.9933 3.90685 16.5 3.3002 16.5C2.69355 16.5 2.2002 16.9933 2.2002 17.6Z" fill="white"/>
</svg>
