<svg width="57" height="57" viewBox="0 0 57 57" fill="none" xmlns="http://www.w3.org/2000/svg">
<g clip-path="url(#clip0_894_49)">
<path d="M39.1876 33.8437C38.7228 33.8465 38.2754 33.6675 37.9408 33.345L30.3883 26.0418C29.2287 24.9327 28.3058 23.6001 27.6753 22.1245C27.0448 20.6489 26.7197 19.0609 26.7197 17.4562C26.7197 15.8516 27.0448 14.2635 27.6753 12.788C28.3058 11.3124 29.2287 9.97978 30.3883 8.8706C32.7621 6.61395 35.9123 5.35559 39.1876 5.35559C42.463 5.35559 45.6131 6.61395 47.987 8.8706C49.1466 9.97978 50.0695 11.3124 50.7 12.788C51.3305 14.2635 51.6555 15.8516 51.6555 17.4562C51.6555 19.0609 51.3305 20.6489 50.7 22.1245C50.0695 23.6001 49.1466 24.9327 47.987 26.0418L40.4345 33.345C40.0999 33.6675 39.6524 33.8465 39.1876 33.8437ZM39.1876 8.90622C36.8305 8.89179 34.5611 9.79954 32.8642 11.4356C32.0471 12.2111 31.3964 13.1448 30.9518 14.1799C30.5071 15.215 30.2778 16.3297 30.2778 17.4562C30.2778 18.5828 30.5071 19.6975 30.9518 20.7326C31.3964 21.7676 32.0471 22.7013 32.8642 23.4769L39.1876 29.5865L45.5111 23.4769C46.3282 22.7013 46.9788 21.7676 47.4235 20.7326C47.8682 19.6975 48.0975 18.5828 48.0975 17.4562C48.0975 16.3297 47.8682 15.215 47.4235 14.1799C46.9788 13.1448 46.3282 12.2111 45.5111 11.4356C43.812 9.80276 41.544 8.89557 39.1876 8.90622Z" fill="#16A4A4"/>
<path d="M19.5938 51.6562C19.2817 51.6584 18.9746 51.5786 18.7031 51.4247L6.23439 44.2997C5.96256 44.1428 5.73703 43.9168 5.58063 43.6446C5.42423 43.3725 5.34252 43.0639 5.34376 42.75V10.6875C5.34252 10.3736 5.42423 10.065 5.58063 9.79286C5.73703 9.52072 5.96256 9.29475 6.23439 9.13781C6.50517 8.98147 6.81234 8.89917 7.12501 8.89917C7.43769 8.89917 7.74485 8.98147 8.01564 9.13781L20.4844 16.2628C20.7562 16.4197 20.9817 16.6457 21.1381 16.9179C21.2945 17.19 21.3763 17.4986 21.375 17.8125V49.875C21.3763 50.1889 21.2945 50.4975 21.1381 50.7696C20.9817 51.0418 20.7562 51.2678 20.4844 51.4247C20.2129 51.5786 19.9058 51.6584 19.5938 51.6562ZM8.90626 41.7169L17.8125 46.8113V18.8456L8.90626 13.7512V41.7169Z" fill="#16A4A4"/>
<path d="M19.5938 51.6562C19.2817 51.6584 18.9746 51.5786 18.7031 51.4247C18.4313 51.2678 18.2058 51.0418 18.0494 50.7696C17.893 50.4975 17.8113 50.1889 17.8125 49.875V17.8125C17.8113 17.4986 17.893 17.19 18.0494 16.9179C18.2058 16.6457 18.4313 16.4197 18.7031 16.2628L29.3906 10.1531C29.595 10.0361 29.8206 9.96071 30.0542 9.93139C30.2879 9.90208 30.5251 9.9194 30.752 9.98235C30.979 10.0453 31.1912 10.1526 31.3764 10.2981C31.5616 10.4436 31.7161 10.6244 31.831 10.83C32.0632 11.239 32.1242 11.7233 32.0007 12.1771C31.8773 12.6309 31.5793 13.0175 31.1719 13.2525L21.375 18.8456V46.8112L31.1719 41.2003C31.3754 41.0834 31.5999 41.0076 31.8327 40.9774C32.0655 40.9473 32.3019 40.9632 32.5285 41.0244C32.7551 41.0856 32.9675 41.1909 33.1534 41.3341C33.3393 41.4774 33.4952 41.6559 33.6122 41.8594C33.7292 42.0629 33.8049 42.2874 33.8351 42.5202C33.8652 42.753 33.8493 42.9894 33.7881 43.216C33.7269 43.4426 33.6216 43.655 33.4784 43.8409C33.3351 44.0268 33.1566 44.1827 32.9531 44.2997L20.4844 51.4247C20.2129 51.5786 19.9058 51.6584 19.5938 51.6562Z" fill="#16A4A4"/>
<path d="M44.5313 51.6562C44.2192 51.6584 43.9121 51.5786 43.6406 51.4247L31.1719 44.2997C30.9001 44.1428 30.6745 43.9168 30.5181 43.6446C30.3617 43.3725 30.28 43.0639 30.2813 42.75V26.7188C30.2813 26.2463 30.4689 25.7933 30.803 25.4592C31.137 25.1252 31.5901 24.9375 32.0625 24.9375C32.5349 24.9375 32.988 25.1252 33.322 25.4592C33.6561 25.7933 33.8438 26.2463 33.8438 26.7188V41.7169L42.75 46.8113V28.5C42.75 28.0276 42.9377 27.5745 43.2717 27.2405C43.6058 26.9064 44.0588 26.7188 44.5313 26.7188C45.0037 26.7188 45.4567 26.9064 45.7908 27.2405C46.1248 27.5745 46.3125 28.0276 46.3125 28.5V49.875C46.3138 50.1889 46.232 50.4975 46.0756 50.7696C45.9192 51.0418 45.6937 51.2678 45.4219 51.4247C45.1504 51.5786 44.8433 51.6584 44.5313 51.6562Z" fill="#16A4A4"/>
<path d="M39.1875 23.1563C38.1306 23.1563 37.0975 22.8428 36.2187 22.2557C35.3399 21.6685 34.655 20.8339 34.2505 19.8575C33.8461 18.881 33.7402 17.8066 33.9464 16.77C34.1526 15.7334 34.6616 14.7812 35.4089 14.0339C36.1562 13.2866 37.1084 12.7776 38.145 12.5714C39.1816 12.3652 40.256 12.4711 41.2325 12.8755C42.2089 13.28 43.0435 13.9649 43.6307 14.8437C44.2178 15.7224 44.5313 16.7556 44.5313 17.8125C44.5313 19.2298 43.9683 20.589 42.9661 21.5911C41.964 22.5933 40.6048 23.1563 39.1875 23.1563ZM39.1875 16.0313C38.8352 16.0313 38.4908 16.1357 38.1979 16.3314C37.905 16.5272 37.6767 16.8054 37.5418 17.1308C37.407 17.4563 37.3717 17.8145 37.4405 18.16C37.5092 18.5055 37.6789 18.8229 37.928 19.072C38.1771 19.3211 38.4945 19.4908 38.84 19.5595C39.1855 19.6283 39.5437 19.593 39.8692 19.4582C40.1946 19.3233 40.4728 19.095 40.6686 18.8021C40.8643 18.5092 40.9688 18.1648 40.9688 17.8125C40.9688 17.3401 40.7811 16.887 40.447 16.553C40.113 16.2189 39.6599 16.0313 39.1875 16.0313Z" fill="#16A4A4"/>
</g>
<defs>
<clipPath id="clip0_894_49">
<rect width="57" height="57" fill="white"/>
</clipPath>
</defs>
</svg>
