<svg width="57" height="57" viewBox="0 0 57 57" fill="none" xmlns="http://www.w3.org/2000/svg">
<path d="M54.0605 39.9775V42.0704C53.8931 42.8432 53.7708 43.6353 53.5518 44.3952C52.032 49.6178 47.1765 53.1532 41.9732 52.7797C40.5951 52.6831 39.2299 52.7282 37.8518 52.7668C33.5758 52.8956 29.5381 52.2065 26.1701 49.2185C24.9723 50.397 23.5427 51.2213 21.9521 51.7558C18.3716 52.9664 14.7203 53.0695 11.0368 52.3804C8.82151 51.9618 6.75436 51.1633 5.02207 49.6757C3.75345 48.5874 3 47.248 3 45.5221C3.00644 34.4394 3.00644 23.3502 3 12.2674C3 11.0696 3.3735 10.0199 4.10763 9.08617C5.22814 7.66943 6.7286 6.79363 8.38361 6.18186C11.8804 4.88103 15.4866 4.7458 19.1379 5.33181C21.3468 5.686 23.4139 6.41369 25.2235 7.77247C26.8656 9.00889 27.7607 10.5931 27.7028 12.7182C27.6319 15.191 27.6899 17.6703 27.6899 20.1432C27.6899 20.317 27.6899 20.4974 27.6899 20.6777C28.5528 20.2784 29.3385 19.8469 30.1692 19.5443C33.7883 18.2241 37.504 18.076 41.2584 18.7908C43.4994 19.2223 45.6116 20.0015 47.3697 21.5213C48.6963 22.6675 49.4239 24.0843 49.3853 25.881C49.3467 27.6905 49.3853 29.5065 49.366 31.3161C49.366 31.6703 49.4755 31.8892 49.7395 32.1082C51.7165 33.7181 53.0817 35.7402 53.7064 38.2259C53.8545 38.799 53.9382 39.3915 54.0541 39.9775H54.0605ZM51.0725 41.3041C51.1047 36.3455 47.3632 32.5396 42.4369 32.5203C37.5427 32.501 33.7754 36.2618 33.7368 41.2011C33.6982 45.8763 37.6393 49.811 42.3853 49.8303C47.0928 49.8496 51.0468 45.9729 51.079 41.3041H51.0725ZM15.7184 16.26C16.3173 16.2021 17.2833 16.1634 18.2299 16.0153C19.0478 15.8865 19.8527 15.6869 20.6448 15.4422C21.8877 15.0622 23.0662 14.5149 23.9935 13.5682C24.9015 12.6473 24.9337 11.6299 24.0257 10.7219C23.5749 10.2711 23.0469 9.84606 22.4737 9.57559C18.1011 7.502 13.6384 7.49556 9.13705 9.13125C8.13246 9.49831 7.21158 10.0328 6.51609 10.8764C5.8206 11.7136 5.78196 12.5507 6.52253 13.3428C7.01195 13.8644 7.61084 14.3281 8.23549 14.6694C10.4443 15.8801 12.8721 16.2021 15.712 16.2665L15.7184 16.26ZM37.1885 21.3667C35.2694 21.386 33.5307 21.5857 31.8371 22.1266C30.5942 22.5259 29.4093 23.041 28.4627 23.9619C27.4259 24.973 27.4065 26.0742 28.4949 27.0144C29.1259 27.5617 29.8472 28.064 30.6135 28.3731C34.5675 29.9831 38.5923 30.0153 42.6365 28.7144C43.7634 28.3538 44.8195 27.8193 45.6696 26.9628C46.6162 26.0098 46.6484 25.018 45.7147 24.0843C45.2639 23.6335 44.7229 23.2407 44.1627 22.938C41.9474 21.7402 39.5261 21.4054 37.1949 21.3603L37.1885 21.3667ZM6.00091 43.8413C6.00091 44.3308 6.02667 44.8588 6.00091 45.3869C5.96227 46.1274 6.21986 46.7585 6.78012 47.19C7.43053 47.6987 8.1067 48.2075 8.85371 48.5359C12.0607 49.9398 15.4093 50.1007 18.816 49.4825C20.4967 49.1799 22.1002 48.6518 23.4848 47.6021C24.6697 46.7006 25.0947 45.2452 24.6375 43.8671C18.436 46.868 12.2668 46.868 6.01379 43.8349L6.00091 43.8413ZM24.6697 23.7172C18.4167 26.7246 12.2346 26.7246 6.00091 23.7043C6.00091 24.168 6.02667 24.6832 6.00091 25.1919C5.94939 25.9904 6.27782 26.6022 6.83807 27.1303C7.61728 27.858 8.53816 28.3474 9.52988 28.6951C12.9687 29.9058 16.459 29.9766 19.9751 29.0879C21.2695 28.7595 22.4995 28.2572 23.5556 27.4072C24.0965 26.9757 24.6053 26.4863 24.6632 25.7586C24.7212 25.0696 24.6761 24.3676 24.6761 23.7237L24.6697 23.7172ZM6.00091 16.9684C6.00091 17.4707 6.02667 18.0052 6.00091 18.5332C5.96227 19.2545 6.21342 19.8727 6.74792 20.2977C7.37901 20.8 8.0423 21.2959 8.76999 21.6372C11.4296 22.8736 14.2631 23.1119 17.1416 22.8607C19.1766 22.6804 21.1536 22.2425 22.9052 21.1285C24.9079 19.8534 24.8049 19.2094 24.6375 17.0006C18.4424 20.0144 12.2603 20.0208 6.00735 16.962L6.00091 16.9684ZM6.00091 30.4081C6.00091 30.8782 6.02667 31.3869 6.00091 31.8957C5.94939 32.7135 6.24562 33.409 6.88315 33.8533C7.70744 34.4265 8.56392 35.006 9.49124 35.3667C12.5823 36.5516 15.7764 36.6482 19.0027 36.0235C20.6126 35.708 22.1517 35.1928 23.4783 34.1818C24.6697 33.2802 25.1011 31.7926 24.631 30.4467C18.4296 33.4541 12.2603 33.4412 6.00735 30.4081H6.00091ZM6.00091 37.1183C6.00091 37.6206 6.02667 38.1486 6.00091 38.6767C5.96227 39.4173 6.2263 40.0483 6.78012 40.4798C7.44341 40.995 8.1389 41.5037 8.89878 41.845C11.5391 43.0299 14.3403 43.2553 17.1867 43.0042C19.1895 42.8239 21.1343 42.386 22.8537 41.3041C24.9079 40.0097 24.792 39.3593 24.631 37.1505C18.436 40.1643 12.2474 40.1707 5.99447 37.1183H6.00091ZM27.6899 30.2213C27.6899 30.8846 27.7028 31.432 27.6899 31.9729C27.6706 32.5912 27.8766 33.1128 28.2888 33.5571C29.3256 34.6841 30.6715 35.2443 31.9852 35.6565C32.8417 34.5488 33.6466 33.512 34.4645 32.4559C32.1204 32.1533 29.8408 31.5479 27.6899 30.2149V30.2213ZM27.6899 43.7898C27.6899 44.2277 27.7221 44.7236 27.6835 45.213C27.6126 46.1661 28.0183 46.8873 28.7267 47.4605C30.3431 48.7548 32.2557 49.2829 34.2713 49.6113C34.252 49.5341 34.2584 49.489 34.2391 49.4697C33.1186 48.3363 32.2299 47.0483 31.6117 45.5736C31.5602 45.4577 31.4249 45.3482 31.2961 45.2903C30.1112 44.788 28.9199 44.2986 27.6835 43.7834L27.6899 43.7898ZM27.735 37.0732C27.4065 39.5203 28.4111 41.1238 30.6844 41.8193C30.781 40.7245 30.8776 39.6298 30.9741 38.5608C29.9116 38.0714 28.8362 37.5755 27.7414 37.0732H27.735Z" fill="#16A4A4"/>
<path d="M36.5832 41.1173C36.5574 37.9941 39.172 35.3538 42.3403 35.3152C45.5151 35.2765 48.1811 37.8653 48.2391 41.0401C48.2906 44.3308 45.7598 46.926 42.4755 46.9582C39.1526 46.9904 36.6218 44.4789 36.5896 41.1238L36.5832 41.1173ZM42.3789 43.983C43.9438 43.9895 45.2317 42.7402 45.2382 41.2011C45.2446 39.5847 44.0275 38.3483 42.424 38.3289C40.8141 38.3161 39.5905 39.5267 39.5712 41.156C39.5519 42.7015 40.8141 43.9766 42.3789 43.983Z" fill="#16A4A4"/>
</svg>
