<svg width="22" height="22" viewBox="0 0 22 22" fill="none" xmlns="http://www.w3.org/2000/svg">
<path d="M3.06503 14.3523L6.63467 17.9296L2.98202 18.9279L1.94434 17.5968L3.06503 14.3523Z" fill="white"/>
<path d="M17.5926 1.58234L19.4189 3.41257L19.4604 3.45416C19.834 3.82853 20 4.32768 20 4.78523C20 5.32598 19.7925 5.82513 19.4189 6.1995L7.17422 18.4703C7.09121 18.5951 6.92518 18.6367 6.80065 18.6783L1.9858 19.9678C1.57073 20.0926 1.15565 19.843 1.03113 19.427C0.989623 19.3022 0.989623 19.1774 1.03113 19.0527L2.35937 14.1859C2.35937 14.0195 2.44238 13.9363 2.5254 13.8116L14.7701 1.58234L14.8116 1.49915C15.2267 1.16638 15.6832 1 16.1813 1C16.6794 1 17.1775 1.16638 17.5926 1.58234ZM18.3397 4.45247L16.5134 2.66384V2.62224C16.4304 2.53905 16.3058 2.49745 16.1813 2.49745C16.0568 2.49745 15.9738 2.53905 15.8908 2.62224L3.77062 14.7683L2.85745 18.1791L6.26106 17.264L18.3397 5.118C18.4227 5.03481 18.4642 4.91002 18.4642 4.78523C18.4642 4.70204 18.4227 4.57725 18.3397 4.49406V4.45247Z" fill="white"/>
<path d="M13.8565 3.57895L17.3847 7.1562L16.3055 8.2377L12.7773 4.66045L13.8565 3.57895Z" fill="white"/>
</svg>
