<svg width="22" height="26" viewBox="0 0 22 26" fill="none" xmlns="http://www.w3.org/2000/svg">
<path d="M17.1605 9.40561C19.0257 10.5975 19.9582 11.1935 20.278 11.9566C20.5573 12.6229 20.5573 13.3773 20.278 14.0437C19.9582 14.8067 19.0257 15.4026 17.1605 16.5947L8.40025 22.1931C6.33015 23.516 5.29509 24.1775 4.44094 24.1072C3.6964 24.046 3.01391 23.6593 2.56855 23.0461C2.05762 22.3428 2.05762 21.0947 2.05762 18.5986V7.40169C2.05762 4.90559 2.05762 3.65755 2.56855 2.95413C3.01391 2.34099 3.6964 1.95421 4.44094 1.893C5.29509 1.82279 6.33015 2.48426 8.40025 3.80719L17.1605 9.40561Z" stroke="white" stroke-width="3" stroke-linejoin="round"/>
</svg>
