<svg width="50" height="50" viewBox="0 0 50 50" fill="none" xmlns="http://www.w3.org/2000/svg">
<path d="M17 4.25H33C34.5188 4.25 35.75 5.48122 35.75 7V17.25H14.25V7C14.25 5.48122 15.4812 4.25 17 4.25Z" stroke="#16A4A4" stroke-width="2.5"/>
<path d="M5 17.25H45C45.4142 17.25 45.75 17.5858 45.75 18V37.9747C45.75 38.3889 45.4142 38.7247 45 38.7247H37.5C37.0858 38.7247 36.75 38.3889 36.75 37.9747V34.5C36.75 32.7051 35.2949 31.25 33.5 31.25H16.5C14.7051 31.25 13.25 32.7051 13.25 34.5V37.9956C13.25 38.4104 12.9132 38.7465 12.4983 38.7456L4.99835 38.7291C4.58478 38.7281 4.25 38.3926 4.25 37.9791V18C4.25 17.5858 4.58578 17.25 5 17.25Z" stroke="#16A4A4" stroke-width="2.5"/>
<rect x="13.25" y="31.25" width="23.5" height="14.5" rx="2.75" stroke="#16A4A4" stroke-width="2.5"/>
</svg>
