<svg width="50" height="50" viewBox="0 0 50 50" fill="none" xmlns="http://www.w3.org/2000/svg">
<path d="M9.00003 41.634L18.3856 28.2355L22.4736 30.0475L16.0945 45.331L14.3412 40.9378L9.00003 41.634Z" fill="#16A4A4" stroke="#16A4A4" stroke-width="2.5"/>
<path d="M41.1909 41.5368L31.5004 27.5L27.5 29.5L34.0964 45.2338L35.7617 40.6718L41.1909 41.5368Z" fill="#16A4A4" stroke="#16A4A4" stroke-width="2.5"/>
<mask id="path-3-inside-1_1158_73" fill="white">
<path fill-rule="evenodd" clip-rule="evenodd" d="M27.7686 5.25704C27.1021 2.30633 22.8978 2.30633 22.2313 5.25704C21.7993 7.1694 19.6047 8.0784 17.9471 7.03161C15.3893 5.41645 12.4164 8.38935 14.0316 10.9471C15.0783 12.6048 14.1693 14.7993 12.257 15.2313C9.30627 15.8978 9.30627 20.1022 12.257 20.7687C14.1693 21.2006 15.0783 23.3952 14.0316 25.0529C12.4164 27.6106 15.3893 30.5835 17.9471 28.9684C19.6047 27.9216 21.7993 28.8306 22.2313 30.743C22.8978 33.6937 27.1021 33.6937 27.7686 30.743C28.2006 28.8306 30.3951 27.9216 32.0528 28.9684C34.6106 30.5835 37.5835 27.6106 35.9683 25.0529C34.9215 23.3952 35.8305 21.2006 37.7429 20.7687C40.6936 20.1022 40.6936 15.8978 37.7429 15.2313C35.8305 14.7993 34.9215 12.6048 35.9683 10.9471C37.5835 8.38935 34.6106 5.41645 32.0528 7.03161C30.3951 8.0784 28.2006 7.1694 27.7686 5.25704ZM24.9999 27C29.9705 27 33.9999 22.9706 33.9999 18C33.9999 13.0294 29.9705 8.99999 24.9999 8.99999C20.0294 8.99999 15.9999 13.0294 15.9999 18C15.9999 22.9706 20.0294 27 24.9999 27ZM24.9999 25.457C20.8816 25.457 17.543 22.1184 17.543 18C17.543 13.8816 20.8816 10.543 24.9999 10.543C29.1183 10.543 32.4569 13.8816 32.4569 18C32.4569 22.1184 29.1183 25.457 24.9999 25.457Z"/>
</mask>
<path fill-rule="evenodd" clip-rule="evenodd" d="M27.7686 5.25704C27.1021 2.30633 22.8978 2.30633 22.2313 5.25704C21.7993 7.1694 19.6047 8.0784 17.9471 7.03161C15.3893 5.41645 12.4164 8.38935 14.0316 10.9471C15.0783 12.6048 14.1693 14.7993 12.257 15.2313C9.30627 15.8978 9.30627 20.1022 12.257 20.7687C14.1693 21.2006 15.0783 23.3952 14.0316 25.0529C12.4164 27.6106 15.3893 30.5835 17.9471 28.9684C19.6047 27.9216 21.7993 28.8306 22.2313 30.743C22.8978 33.6937 27.1021 33.6937 27.7686 30.743C28.2006 28.8306 30.3951 27.9216 32.0528 28.9684C34.6106 30.5835 37.5835 27.6106 35.9683 25.0529C34.9215 23.3952 35.8305 21.2006 37.7429 20.7687C40.6936 20.1022 40.6936 15.8978 37.7429 15.2313C35.8305 14.7993 34.9215 12.6048 35.9683 10.9471C37.5835 8.38935 34.6106 5.41645 32.0528 7.03161C30.3951 8.0784 28.2006 7.1694 27.7686 5.25704ZM24.9999 27C29.9705 27 33.9999 22.9706 33.9999 18C33.9999 13.0294 29.9705 8.99999 24.9999 8.99999C20.0294 8.99999 15.9999 13.0294 15.9999 18C15.9999 22.9706 20.0294 27 24.9999 27ZM24.9999 25.457C20.8816 25.457 17.543 22.1184 17.543 18C17.543 13.8816 20.8816 10.543 24.9999 10.543C29.1183 10.543 32.4569 13.8816 32.4569 18C32.4569 22.1184 29.1183 25.457 24.9999 25.457Z" fill="#16A4A4"/>
<path d="M22.2313 5.25704L25.1575 5.91804L25.1575 5.91804L22.2313 5.25704ZM27.7686 5.25704L24.8423 5.91804L24.8423 5.91804L27.7686 5.25704ZM17.9471 7.03161L16.3453 9.5682L16.3453 9.5682L17.9471 7.03161ZM14.0316 10.9471L16.5681 9.34533L16.5681 9.34533L14.0316 10.9471ZM12.257 15.2313L12.918 18.1576L12.918 18.1576L12.257 15.2313ZM12.257 20.7687L12.918 17.8424L12.918 17.8424L12.257 20.7687ZM14.0316 25.0529L11.495 23.4511L11.495 23.4511L14.0316 25.0529ZM17.9471 28.9684L19.5488 31.505L19.5488 31.505L17.9471 28.9684ZM22.2313 30.743L25.1575 30.082L25.1575 30.0819L22.2313 30.743ZM27.7686 30.743L24.8423 30.0819L24.8423 30.082L27.7686 30.743ZM32.0528 28.9684L30.451 31.505L30.451 31.505L32.0528 28.9684ZM35.9683 25.0529L38.5049 23.4511L38.5049 23.4511L35.9683 25.0529ZM37.7429 20.7687L37.0819 17.8424L37.0819 17.8424L37.7429 20.7687ZM37.7429 15.2313L37.0819 18.1576L37.0819 18.1576L37.7429 15.2313ZM35.9683 10.9471L38.5049 12.5489L38.5049 12.5489L35.9683 10.9471ZM32.0528 7.03161L30.451 4.49503L30.451 4.49503L32.0528 7.03161ZM25.1575 5.91804C25.1652 5.88413 25.1682 5.89359 25.1475 5.92535C25.1274 5.95622 25.0994 5.98589 25.0688 6.00856C25.0128 6.05001 24.9851 6.04401 24.9999 6.04401C25.0148 6.04401 24.9871 6.05001 24.9311 6.00856C24.9005 5.98589 24.8724 5.95622 24.8523 5.92535C24.8317 5.89359 24.8347 5.88413 24.8423 5.91804L30.6949 4.59604C29.3239 -1.47334 20.676 -1.47334 19.305 4.59604L25.1575 5.91804ZM16.3453 9.5682C19.755 11.7214 24.269 9.85161 25.1575 5.91804L19.305 4.59604C19.3079 4.58323 19.3199 4.55326 19.3444 4.5249C19.3652 4.50094 19.3854 4.48871 19.4008 4.48237C19.4161 4.47603 19.439 4.47035 19.4706 4.47263C19.508 4.47533 19.5377 4.48802 19.5488 4.49503L16.3453 9.5682ZM16.5681 9.34533C16.5496 9.31593 16.5584 9.32048 16.5662 9.35756C16.5739 9.3936 16.575 9.43441 16.5694 9.4721C16.5591 9.541 16.5353 9.55632 16.5458 9.54583C16.5563 9.53535 16.5409 9.55915 16.472 9.56944C16.4343 9.57507 16.3935 9.57393 16.3575 9.5663C16.3204 9.55846 16.3159 9.54964 16.3453 9.5682L19.5488 4.49503C14.2877 1.17276 8.1727 7.28778 11.495 12.5489L16.5681 9.34533ZM12.918 18.1576C16.8515 17.2691 18.7213 12.7551 16.5681 9.34533L11.495 12.5489C11.488 12.5378 11.4753 12.5081 11.4726 12.4707C11.4703 12.4391 11.476 12.4161 11.4823 12.4008C11.4886 12.3855 11.5009 12.3652 11.5248 12.3445C11.5532 12.32 11.5832 12.3079 11.596 12.305L12.918 18.1576ZM12.918 17.8424C12.8841 17.8347 12.8935 17.8317 12.9253 17.8524C12.9562 17.8725 12.9858 17.9005 13.0085 17.9312C13.0499 17.9872 13.0439 18.0148 13.0439 18C13.0439 17.9852 13.0499 18.0128 13.0085 18.0688C12.9858 18.0995 12.9562 18.1275 12.9253 18.1476C12.8935 18.1683 12.8841 18.1653 12.918 18.1576L11.596 12.305C5.5266 13.676 5.5266 22.324 11.596 23.6949L12.918 17.8424ZM16.5681 26.6547C18.7213 23.2449 16.8515 18.7309 12.918 17.8424L11.596 23.6949C11.5832 23.6921 11.5532 23.68 11.5248 23.6555C11.5009 23.6347 11.4886 23.6145 11.4823 23.5992C11.476 23.5839 11.4703 23.5609 11.4726 23.5293C11.4753 23.4919 11.488 23.4622 11.495 23.4511L16.5681 26.6547ZM16.3453 26.4318C16.3159 26.4504 16.3204 26.4415 16.3575 26.4337C16.3935 26.4261 16.4343 26.4249 16.472 26.4305C16.5409 26.4408 16.5563 26.4646 16.5458 26.4542C16.5353 26.4437 16.5591 26.459 16.5694 26.5279C16.575 26.5656 16.5739 26.6064 16.5662 26.6424C16.5584 26.6795 16.5496 26.6841 16.5681 26.6547L11.495 23.4511C8.1727 28.7122 14.2877 34.8272 19.5488 31.505L16.3453 26.4318ZM25.1575 30.0819C24.269 26.1484 19.755 24.2786 16.3453 26.4318L19.5488 31.505C19.5377 31.512 19.508 31.5247 19.4706 31.5274C19.439 31.5296 19.4161 31.524 19.4007 31.5176C19.3854 31.5113 19.3652 31.499 19.3444 31.4751C19.3199 31.4467 19.3079 31.4168 19.305 31.404L25.1575 30.0819ZM24.8423 30.082C24.8347 30.1159 24.8317 30.1064 24.8523 30.0746C24.8724 30.0438 24.9005 30.0141 24.9311 29.9914C24.9871 29.95 25.0148 29.956 24.9999 29.956C24.9851 29.956 25.0128 29.95 25.0688 29.9914C25.0994 30.0141 25.1274 30.0438 25.1475 30.0746C25.1682 30.1064 25.1652 30.1159 25.1575 30.082L19.305 31.404C20.676 37.4733 29.3239 37.4733 30.6949 31.404L24.8423 30.082ZM33.6546 26.4318C30.2449 24.2786 25.7309 26.1484 24.8423 30.0819L30.6949 31.404C30.692 31.4168 30.68 31.4467 30.6554 31.4751C30.6347 31.499 30.6144 31.5113 30.5991 31.5176C30.5838 31.524 30.5608 31.5296 30.5292 31.5274C30.4918 31.5247 30.4621 31.512 30.451 31.505L33.6546 26.4318ZM33.4317 26.6547C33.4503 26.6841 33.4415 26.6795 33.4336 26.6424C33.426 26.6064 33.4249 26.5656 33.4305 26.5279C33.4408 26.459 33.4646 26.4437 33.4541 26.4542C33.4436 26.4646 33.4589 26.4408 33.5278 26.4305C33.5655 26.4249 33.6063 26.4261 33.6424 26.4337C33.6794 26.4415 33.684 26.4504 33.6546 26.4318L30.451 31.505C35.7121 34.8272 41.8272 28.7122 38.5049 23.4511L33.4317 26.6547ZM37.0819 17.8424C33.1483 18.7309 31.2786 23.2449 33.4317 26.6547L38.5049 23.4511C38.5119 23.4622 38.5246 23.4919 38.5273 23.5293C38.5296 23.5609 38.5239 23.5839 38.5176 23.5992C38.5112 23.6145 38.499 23.6347 38.475 23.6555C38.4467 23.68 38.4167 23.6921 38.4039 23.6949L37.0819 17.8424ZM37.0819 18.1576C37.1158 18.1653 37.1063 18.1683 37.0746 18.1476C37.0437 18.1275 37.014 18.0995 36.9914 18.0688C36.9499 18.0128 36.9559 17.9852 36.9559 18C36.9559 18.0148 36.9499 17.9872 36.9914 17.9312C37.014 17.9005 37.0437 17.8725 37.0746 17.8524C37.1063 17.8317 37.1158 17.8347 37.0819 17.8424L38.4039 23.6949C44.4733 22.324 44.4733 13.676 38.4039 12.305L37.0819 18.1576ZM33.4317 9.34533C31.2786 12.7551 33.1483 17.2691 37.0819 18.1576L38.4039 12.305C38.4167 12.3079 38.4467 12.32 38.475 12.3445C38.499 12.3652 38.5112 12.3855 38.5176 12.4008C38.5239 12.4161 38.5296 12.4391 38.5273 12.4707C38.5246 12.5081 38.5119 12.5378 38.5049 12.5489L33.4317 9.34533ZM33.6546 9.5682C33.684 9.54964 33.6794 9.55846 33.6424 9.5663C33.6063 9.57393 33.5655 9.57507 33.5278 9.56944C33.4589 9.55915 33.4436 9.53535 33.4541 9.54583C33.4646 9.55632 33.4408 9.541 33.4305 9.4721C33.4249 9.43441 33.426 9.3936 33.4336 9.35756C33.4415 9.32048 33.4503 9.31593 33.4317 9.34533L38.5049 12.5489C41.8272 7.28778 35.7121 1.17276 30.451 4.49503L33.6546 9.5682ZM24.8423 5.91804C25.7309 9.85161 30.2449 11.7214 33.6546 9.5682L30.451 4.49503C30.4621 4.48802 30.4918 4.47533 30.5292 4.47263C30.5608 4.47035 30.5838 4.47603 30.5991 4.48237C30.6144 4.48871 30.6347 4.50094 30.6554 4.5249C30.68 4.55325 30.692 4.58323 30.6949 4.59604L24.8423 5.91804ZM30.9999 18C30.9999 21.3137 28.3136 24 24.9999 24V30C31.6273 30 36.9999 24.6274 36.9999 18H30.9999ZM24.9999 12C28.3136 12 30.9999 14.6863 30.9999 18H36.9999C36.9999 11.3726 31.6273 5.99999 24.9999 5.99999V12ZM18.9999 18C18.9999 14.6863 21.6862 12 24.9999 12V5.99999C18.3725 5.99999 12.9999 11.3726 12.9999 18H18.9999ZM24.9999 24C21.6862 24 18.9999 21.3137 18.9999 18H12.9999C12.9999 24.6274 18.3725 30 24.9999 30V24ZM14.543 18C14.543 23.7752 19.2247 28.457 24.9999 28.457V22.457C22.5384 22.457 20.543 20.4615 20.543 18H14.543ZM24.9999 7.54303C19.2247 7.54303 14.543 12.2248 14.543 18H20.543C20.543 15.5385 22.5384 13.543 24.9999 13.543V7.54303ZM35.4569 18C35.4569 12.2248 30.7752 7.54303 24.9999 7.54303V13.543C27.4614 13.543 29.4569 15.5385 29.4569 18H35.4569ZM24.9999 28.457C30.7752 28.457 35.4569 23.7752 35.4569 18H29.4569C29.4569 20.4615 27.4614 22.457 24.9999 22.457V28.457Z" fill="#16A4A4" mask="url(#path-3-inside-1_1158_73)"/>
</svg>
