<svg width="50" height="50" viewBox="0 0 50 50" fill="none" xmlns="http://www.w3.org/2000/svg">
<path fill-rule="evenodd" clip-rule="evenodd" d="M46 8.19343C46 7.08077 45.3948 6.01424 44.3219 5.22728C43.2471 4.44171 41.7905 4 40.2727 4C32.9571 4 17.0429 4 9.72727 4C8.20764 4 6.751 4.44171 5.67618 5.22728C4.60327 6.01424 4 7.08077 4 8.19343C4 15.4075 4 34.5925 4 41.8066C4 42.9192 4.60327 43.9858 5.67618 44.7713C6.751 45.5583 8.20764 46 9.72727 46C17.0429 46 32.9571 46 40.2727 46C41.7905 46 43.2471 45.5583 44.3219 44.7713C45.3948 43.9858 46 42.9192 46 41.8066V8.19343ZM42.1818 8.19343V41.8066C42.1818 42.177 41.9795 42.532 41.6225 42.7948C41.2635 43.0576 40.7786 43.2044 40.2727 43.2044H9.72727C9.21946 43.2044 8.73455 43.0576 8.37564 42.7948C8.01864 42.532 7.81818 42.177 7.81818 41.8066V8.19343C7.81818 7.82161 8.01864 7.46657 8.37564 7.20378C8.73455 6.94239 9.21946 6.79562 9.72727 6.79562H40.2727C40.7786 6.79562 41.2635 6.94239 41.6225 7.20378C41.9795 7.46657 42.1818 7.82161 42.1818 8.19343Z" fill="#16A4A4"/>
<path d="M20 10.25H30C32.0711 10.25 33.75 11.9289 33.75 14V30.75H16.25V14C16.25 11.9289 17.9289 10.25 20 10.25Z" stroke="#16A4A4" stroke-width="2.5"/>
<path d="M24 14.25H26C28.0711 14.25 29.75 15.9289 29.75 18V25.75H20.25V18C20.25 15.9289 21.9289 14.25 24 14.25Z" stroke="#16A4A4" stroke-width="2.5"/>
<path d="M20 31H30V40H20V31Z" stroke="#16A4A4" stroke-width="2"/>
<path d="M23 34V37" stroke="#16A4A4" stroke-width="2" stroke-linecap="round"/>
<path d="M27 34V37" stroke="#16A4A4" stroke-width="2" stroke-linecap="round"/>
</svg>
