<svg width="22" height="22" viewBox="0 0 22 22" fill="none" xmlns="http://www.w3.org/2000/svg">
<path d="M8.61621 9.64276H13.5295" stroke="#16A4A4" stroke-width="1.61324"/>
<mask id="path-2-inside-1_1412_38" fill="white">
<rect x="2.63965" y="15.7291" width="16.72" height="4.76667" rx="1.17326"/>
</mask>
<rect x="2.63965" y="15.7291" width="16.72" height="4.76667" rx="1.17326" stroke="#16A4A4" stroke-width="3.22647" mask="url(#path-2-inside-1_1412_38)"/>
<mask id="path-3-inside-2_1412_38" fill="white">
<path d="M5.20605 14.8858C5.20605 13.5696 6.27304 12.5026 7.58924 12.5026H14.3362C15.6524 12.5026 16.7194 13.5696 16.7194 14.8858V16.096C16.7194 16.744 16.1941 17.2693 15.5461 17.2693H6.37932C5.73134 17.2693 5.20605 16.744 5.20605 16.096V14.8858Z"/>
</mask>
<path d="M5.20605 14.8858C5.20605 13.5696 6.27304 12.5026 7.58924 12.5026H14.3362C15.6524 12.5026 16.7194 13.5696 16.7194 14.8858V16.096C16.7194 16.744 16.1941 17.2693 15.5461 17.2693H6.37932C5.73134 17.2693 5.20605 16.744 5.20605 16.096V14.8858Z" stroke="#16A4A4" stroke-width="3.22647" mask="url(#path-3-inside-2_1412_38)"/>
<path d="M9.53246 13.4932C9.61432 12.2536 9.50827 11.4695 8.65246 9.67992C5.68272 6.67325 7.11252 1.53992 10.9991 1.53992C15.0692 1.53992 16.2425 6.70992 13.3458 9.67992C12.4117 11.5343 12.374 12.2937 12.5758 13.4932" stroke="#16A4A4" stroke-width="1.61324"/>
</svg>
