<svg width="50" height="50" viewBox="0 0 50 50" fill="none" xmlns="http://www.w3.org/2000/svg">
<path d="M34.6438 45H5.71233C4.20548 45 3 43.9333 3 42.6V7.4C3 6.06667 4.20548 5 5.71233 5H34.6438C36.1507 5 37.3562 6.06667 37.3562 7.4V42.6C37.3562 43.9333 36.1507 45 34.6438 45Z" stroke="#16A4A4" stroke-width="3" stroke-miterlimit="10" stroke-linecap="round" stroke-linejoin="round"/>
<path d="M9.17773 10.4667H22.5887" stroke="#16A4A4" stroke-width="3" stroke-miterlimit="10" stroke-linecap="round" stroke-linejoin="round"/>
<path d="M9.17773 15.8H27.1092" stroke="#16A4A4" stroke-width="3" stroke-miterlimit="10" stroke-linecap="round" stroke-linejoin="round"/>
<path d="M9.17773 21.2667H31.1777" stroke="#16A4A4" stroke-width="3" stroke-miterlimit="10" stroke-linecap="round" stroke-linejoin="round"/>
<path d="M9.17773 26.7333H31.1777" stroke="#16A4A4" stroke-width="3" stroke-miterlimit="10" stroke-linecap="round" stroke-linejoin="round"/>
<path d="M46.9999 9V38.8667L44.2875 43.9333L41.5752 38.8667V9H46.9999Z" stroke="#16A4A4" stroke-width="3" stroke-miterlimit="10" stroke-linecap="round" stroke-linejoin="round"/>
<path d="M41.5752 9V6.6C41.5752 5.8 42.3286 5 43.3834 5H45.1916C46.2464 5 46.9999 5.8 46.9999 6.6V9H41.5752Z" stroke="#16A4A4" stroke-width="3" stroke-miterlimit="10" stroke-linecap="round" stroke-linejoin="round"/>
<path d="M13.3969 39.5333C15.7271 39.5333 17.6161 37.8618 17.6161 35.8C17.6161 33.7381 15.7271 32.0667 13.3969 32.0667C11.0667 32.0667 9.17773 33.7381 9.17773 35.8C9.17773 37.8618 11.0667 39.5333 13.3969 39.5333Z" stroke="#16A4A4" stroke-width="3" stroke-miterlimit="10" stroke-linecap="round" stroke-linejoin="round"/>
<path d="M27.1093 39.5333C29.4395 39.5333 31.3285 37.8618 31.3285 35.8C31.3285 33.7381 29.4395 32.0667 27.1093 32.0667C24.7791 32.0667 22.8901 33.7381 22.8901 35.8C22.8901 37.8618 24.7791 39.5333 27.1093 39.5333Z" stroke="#16A4A4" stroke-width="3" stroke-miterlimit="10" stroke-linecap="round" stroke-linejoin="round"/>
</svg>
