<svg width="50" height="50" viewBox="0 0 50 50" fill="none" xmlns="http://www.w3.org/2000/svg">
<path fill-rule="evenodd" clip-rule="evenodd" d="M14.0622 42.1422V43.7141C14.0622 44.9562 14.556 46.1484 15.4356 47.0281C16.3138 47.9078 17.506 48.4016 18.7497 48.4016C23.556 48.4016 32.7122 48.4016 37.5185 48.4016C38.7622 48.4016 39.9544 47.9078 40.8341 47.0281C41.7122 46.1484 42.206 44.9562 42.206 43.7141V12.5C42.206 11.2562 41.7122 10.0641 40.8341 9.18594C39.9544 8.30625 38.7622 7.8125 37.5185 7.8125H35.9372V6.24219C35.9372 4.99844 35.4435 3.80625 34.5638 2.92656C33.6856 2.04844 32.4935 1.55469 31.2497 1.55469C26.4435 1.55469 17.2872 1.55469 12.481 1.55469C11.2372 1.55469 10.045 2.04844 9.16533 2.92656C8.28721 3.80625 7.79346 4.99844 7.79346 6.24219C7.79346 13.2984 7.79346 30.3984 7.79346 37.4547C7.79346 38.6984 8.28721 39.8906 9.16533 40.7703C10.045 41.6484 11.2372 42.1422 12.481 42.1422H14.0622ZM39.081 12.5V43.7141C39.081 44.1281 38.9169 44.525 38.6231 44.8187C38.331 45.1109 37.9341 45.2766 37.5185 45.2766H18.7497C18.3356 45.2766 17.9372 45.1109 17.645 44.8187C17.3513 44.525 17.1872 44.1281 17.1872 43.7141V12.5C17.1872 12.0859 17.3513 11.6875 17.645 11.3953C17.9372 11.1016 18.3356 10.9375 18.7497 10.9375H37.5185C37.9341 10.9375 38.331 11.1016 38.6231 11.3953C38.9169 11.6875 39.081 12.0859 39.081 12.5ZM32.8122 7.8125V6.24219C32.8122 5.82656 32.6481 5.42969 32.3544 5.13594C32.0622 4.84375 31.6638 4.67969 31.2497 4.67969H12.481C12.0653 4.67969 11.6685 4.84375 11.3763 5.13594C11.0825 5.42969 10.9185 5.82656 10.9185 6.24219V37.4547C10.9185 37.8703 11.0825 38.2672 11.3763 38.5594C11.6685 38.8531 12.0653 39.0172 12.481 39.0172H14.0622V12.5C14.0622 11.2562 14.556 10.0641 15.4356 9.18594C16.3138 8.30625 17.506 7.8125 18.7497 7.8125H32.8122Z" fill="#16A4A4"/>
<path fill-rule="evenodd" clip-rule="evenodd" d="M21.875 17.1828H34.3672C35.2281 17.1828 35.9297 16.4828 35.9297 15.6203C35.9297 14.7578 35.2281 14.0578 34.3672 14.0578H21.875C21.0125 14.0578 20.3125 14.7578 20.3125 15.6203C20.3125 16.4828 21.0125 17.1828 21.875 17.1828Z" fill="#16A4A4"/>
<path fill-rule="evenodd" clip-rule="evenodd" d="M21.875 23.4375H34.3672C35.2281 23.4375 35.9297 22.7375 35.9297 21.875C35.9297 21.0125 35.2281 20.3125 34.3672 20.3125H21.875C21.0125 20.3125 20.3125 21.0125 20.3125 21.875C20.3125 22.7375 21.0125 23.4375 21.875 23.4375Z" fill="#16A4A4"/>
<path fill-rule="evenodd" clip-rule="evenodd" d="M21.875 29.6922H34.3672C35.2281 29.6922 35.9297 28.9922 35.9297 28.1297C35.9297 27.2672 35.2281 26.5672 34.3672 26.5672H21.875C21.0125 26.5672 20.3125 27.2672 20.3125 28.1297C20.3125 28.9922 21.0125 29.6922 21.875 29.6922Z" fill="#16A4A4"/>
<path fill-rule="evenodd" clip-rule="evenodd" d="M21.875 35.9469H34.3672C35.2281 35.9469 35.9297 35.2469 35.9297 34.3844C35.9297 33.5219 35.2281 32.8219 34.3672 32.8219H21.875C21.0125 32.8219 20.3125 33.5219 20.3125 34.3844C20.3125 35.2469 21.0125 35.9469 21.875 35.9469Z" fill="#16A4A4"/>
<path fill-rule="evenodd" clip-rule="evenodd" d="M21.875 42.2016H34.3672C35.2281 42.2016 35.9297 41.5016 35.9297 40.6391C35.9297 39.7766 35.2281 39.0766 34.3672 39.0766H21.875C21.0125 39.0766 20.3125 39.7766 20.3125 40.6391C20.3125 41.5016 21.0125 42.2016 21.875 42.2016Z" fill="#16A4A4"/>
</svg>
