<svg width="45" height="45" viewBox="0 0 45 45" fill="none" xmlns="http://www.w3.org/2000/svg">
<g id="florida_cabinet 1" clip-path="url(#clip0_186_2028)">
<g id="&#208;&#161;&#208;&#187;&#208;&#190;&#208;&#185;_x0020_1">
<path id="cabinet" d="M22.4965 0.000668216H22.368C10.0164 0.0718332 0.0288875 10.1079 0.00165766 22.4771C0.000488281 22.5311 0.000488281 22.588 0.000488281 22.642C0.000488281 28.5367 2.35361 34.1934 6.53063 38.3457C10.7432 42.5882 16.4754 44.9875 22.4529 44.9988L22.5641 45C34.9574 44.9821 45.0005 34.9094 45.0005 22.4998C45.0005 10.0754 34.9385 0 22.5304 0C22.5197 0 22.5078 0 22.4973 0L22.4966 0.000668216H22.4965ZM34.4736 37.9144C31.0523 40.5836 26.8329 42.0348 22.4936 42.0348C22.4397 42.0348 22.3817 42.0348 22.3274 42.0348C18.1076 42.0176 14.0028 40.6108 10.6567 38.0354C10.5663 37.9667 10.4863 37.9086 10.417 37.8598C9.924 37.5008 9.89276 37.3768 10.1572 36.8359C10.1951 36.7606 10.2391 36.6712 10.2887 36.5644C12.1149 32.1781 16.1902 29.1374 20.9093 28.6391C21.4516 28.5726 22.0008 28.5372 22.5481 28.5372C27.9289 28.5372 32.7735 31.8143 34.7835 36.8103C34.8508 36.93 34.8852 37.0656 34.8852 37.2031C34.8852 37.4964 34.7278 37.7679 34.4733 37.9131L34.4739 37.9142L34.4736 37.9144ZM17.8961 23.6465C16.6955 22.4452 16.0171 20.8121 16.0171 19.1106C16.0171 19.0916 16.0171 19.0709 16.0171 19.052C16.0432 15.5054 18.9147 12.6376 22.4572 12.6236L22.4916 12.6243C26.0551 12.6259 28.9418 15.5202 28.9418 19.0883C28.9418 22.6574 26.0514 25.5522 22.4863 25.5522C22.4851 25.5522 22.4828 25.5522 22.4816 25.5522L22.4619 25.5529C22.4572 25.5522 22.4525 25.5522 22.4479 25.5522C20.7399 25.5522 19.0993 24.8683 17.8968 23.6535L17.8961 23.6465ZM37.5133 34.8399L37.2829 35.1017L37.1261 34.7883C35.3678 31.1409 32.3248 28.2715 28.5844 26.732L28.2478 26.5861L28.5188 26.3416C30.6581 24.5482 31.8938 21.8983 31.8938 19.1048C31.8938 18.918 31.8878 18.7303 31.8772 18.5442C31.7732 16.0362 30.6343 13.6801 28.7383 12.0404C27.015 10.5013 24.7803 9.64921 22.4704 9.64921C17.2684 9.64921 13.0486 13.8738 13.0486 19.0834C13.0486 19.2262 13.0533 19.3724 13.0593 19.5142C13.2024 22.1507 14.4181 24.6171 16.416 26.3391L16.693 26.585L16.3532 26.7308C12.6012 28.2757 9.55113 31.1658 7.79907 34.8288L7.64237 35.1421L7.41201 34.8744C6.18917 33.4344 5.19854 31.8046 4.48489 30.0554C3.47154 27.6748 2.94732 25.1084 2.94732 22.518C2.94732 21.0645 3.11304 19.6121 3.43846 18.1952C5.44595 9.2867 13.3563 2.95468 22.4768 2.95468C30.2922 2.95468 37.3596 7.62852 40.4254 14.8244C41.4681 17.2361 42.009 19.8437 42.009 22.4748C42.009 26.9981 40.4159 31.3803 37.5136 34.8463L37.5133 34.8399Z" fill="#16A4A4"/>
</g>
</g>
<defs>
<clipPath id="clip0_186_2028">
<rect width="45" height="45" fill="white"/>
</clipPath>
</defs>
</svg>
