<svg width="57" height="57" viewBox="0 0 57 57" fill="none" xmlns="http://www.w3.org/2000/svg">
<path d="M44.465 5.38885C40.2752 5.38885 36.9018 8.95579 36.9018 13.2868C36.9018 13.4554 36.9129 13.625 36.9298 13.7955H15.0544V11.6914C15.0544 9.14547 12.9785 7.07113 10.4325 7.07113H3.28629C3.17593 7.07156 3.06674 7.09376 2.96495 7.13639C2.86315 7.17902 2.77076 7.24126 2.69303 7.3196C2.6153 7.39794 2.55376 7.49083 2.51193 7.59295C2.4701 7.69508 2.44879 7.80441 2.44923 7.91477V35.643C2.4501 35.8647 2.53857 36.0771 2.69536 36.2339C2.85215 36.3907 3.06456 36.4791 3.28629 36.48H4.96698V46.9893C4.96698 49.5353 7.04289 51.6111 9.58889 51.6111H13.3737H53.7071C54.1738 51.6128 54.5526 51.2343 54.5508 50.7676V14.6326C54.5491 14.1684 54.1714 13.7937 53.7071 13.7955H52.0002C52.0171 13.6249 52.0265 13.4555 52.0265 13.2868C52.0265 8.95579 48.6547 5.38888 44.465 5.38885ZM44.465 7.07113C47.701 7.07113 50.3507 9.82085 50.3507 13.2868C50.3507 14.753 48.8063 17.4156 47.1633 19.527C45.8156 21.2589 44.9071 22.1515 44.465 22.6045C44.0217 22.1503 43.1132 21.2574 41.7667 19.527C40.1236 17.4156 38.5842 14.753 38.5842 13.2868C38.5842 9.82085 41.229 7.07113 44.465 7.07113ZM4.12992 8.75186H10.4325C12.0765 8.75186 13.3737 10.0475 13.3737 11.6914C13.3737 11.7066 13.3731 11.7199 13.3737 11.7356V35.8628C12.5739 35.1997 11.5481 34.7993 10.4325 34.7993H4.12992V8.75186ZM44.465 9.58888C42.6185 9.58888 41.1019 11.1055 41.1019 12.952C41.1019 14.7985 42.6185 16.3134 44.465 16.3134C46.3114 16.3134 47.8263 14.7985 47.8263 12.952C47.8263 11.1055 46.3114 9.58888 44.465 9.58888ZM44.465 11.2696C45.4031 11.2696 46.1457 12.0138 46.1457 12.952C46.1457 13.8902 45.4031 14.6326 44.465 14.6326C43.5268 14.6326 42.7826 13.8902 42.7826 12.952C42.7826 12.0138 43.5268 11.2696 44.465 11.2696ZM15.0544 15.4763H22.6159V21.0091L21.4309 22.1941H15.0544V15.4763ZM24.2966 15.4763H27.6596V17.994C27.658 18.4583 28.0325 18.836 28.4967 18.8377H36.9018C37.3685 18.8393 37.7473 18.4607 37.7455 17.994C37.7438 17.5297 37.3661 17.1552 36.9018 17.157H29.3403V15.4763H37.3286C37.967 17.237 39.2275 19.0059 40.4388 20.5626C40.6514 20.8358 40.8631 21.1017 41.0724 21.357H40.2649C39.8637 21.3566 39.5177 21.6397 39.4393 22.0332L38.6022 26.2333C38.4988 26.7512 38.8932 27.2345 39.4212 27.2379H49.507C50.0376 27.2384 50.4365 26.7536 50.3326 26.2333L49.489 22.0332C49.4111 21.6421 49.0688 21.3596 48.67 21.357H47.8559C48.065 21.1017 48.2785 20.8358 48.4911 20.5626C49.7024 19.0059 50.9613 17.237 51.5997 15.4763H52.8701V46.2195L48.67 42.0211V29.7622C48.6717 29.2955 48.293 28.9167 47.8263 28.9185C47.3621 28.9202 46.9875 29.2979 46.9893 29.7622V42.3674C46.9895 42.5878 47.0757 42.7995 47.2305 42.9566L52.8701 48.5962V49.9289H49.0097L45.0591 45.9717C44.9005 45.8154 44.6877 45.7288 44.4649 45.7303H39.4212C38.9594 45.732 38.5857 46.1055 38.5841 46.5673C38.5858 47.0292 38.9594 47.4028 39.4212 47.4044H44.117L46.6397 49.9287H13.3737H9.58889C7.94492 49.9287 6.64932 48.6332 6.64932 46.9892C6.64932 45.3452 7.87122 44.048 10.0107 44.048C12.9015 44.048 15.0544 41.9737 15.0544 39.4277V28.9184H22.6159V32.2814C22.6142 32.7481 22.9928 33.1269 23.4595 33.1251C23.9238 33.1234 24.2985 32.7457 24.2966 32.2814V28.0813C24.2983 27.6171 23.9238 27.2394 23.4595 27.2377H15.0544V23.8747H21.7789C21.9994 23.8745 22.211 23.7883 22.3681 23.6333L24.0488 21.9526C24.2074 21.795 24.2964 21.5805 24.2966 21.3569L24.2966 15.4763ZM26.816 20.5167C26.7055 20.5163 26.596 20.5376 26.4938 20.5796C26.3916 20.6215 26.2986 20.6832 26.2203 20.7611C26.1419 20.839 26.0797 20.9316 26.0371 21.0336C25.9946 21.1356 25.9726 21.2449 25.9724 21.3554C25.972 21.4663 25.9935 21.5762 26.0357 21.6788C26.078 21.7813 26.1401 21.8745 26.2185 21.9529C26.2969 22.0313 26.3901 22.0935 26.4927 22.1357C26.5952 22.178 26.7051 22.1995 26.816 22.199C26.9264 22.1986 27.0356 22.1764 27.1374 22.1338C27.2391 22.0912 27.3315 22.0289 27.4093 21.9506C27.487 21.8722 27.5485 21.7793 27.5904 21.6772C27.6322 21.5751 27.6535 21.4658 27.6531 21.3554C27.6527 21.1334 27.5644 20.9205 27.4075 20.7634C27.2507 20.6062 27.038 20.5176 26.816 20.5167ZM30.1807 20.5167C30.0702 20.5163 29.9607 20.5376 29.8585 20.5796C29.7562 20.6215 29.6633 20.6832 29.5849 20.7611C29.5066 20.839 29.4443 20.9316 29.4018 21.0336C29.3593 21.1356 29.3373 21.2449 29.3371 21.3554C29.3366 21.4663 29.3581 21.5762 29.4004 21.6788C29.4426 21.7813 29.5048 21.8745 29.5832 21.9529C29.6616 22.0313 29.7548 22.0935 29.8573 22.1357C29.9599 22.178 30.0698 22.1995 30.1807 22.199C30.291 22.1986 30.4002 22.1764 30.502 22.1338C30.6038 22.0912 30.6962 22.0289 30.7739 21.9506C30.8517 21.8722 30.9132 21.7793 30.955 21.6772C30.9969 21.5751 31.0182 21.4658 31.0178 21.3554C31.0173 21.1334 30.929 20.9205 30.7722 20.7634C30.6154 20.6062 30.4027 20.5176 30.1807 20.5167ZM33.5421 20.5167C33.4316 20.5163 33.3221 20.5376 33.2199 20.5796C33.1176 20.6215 33.0247 20.6832 32.9463 20.7611C32.868 20.839 32.8057 20.9316 32.7632 21.0336C32.7207 21.1356 32.6987 21.2449 32.6984 21.3554C32.698 21.4663 32.7195 21.5762 32.7618 21.6788C32.804 21.7813 32.8662 21.8745 32.9446 21.9529C33.023 22.0313 33.1162 22.0935 33.2187 22.1357C33.3213 22.178 33.4312 22.1995 33.5421 22.199C33.765 22.1982 33.9784 22.1088 34.1353 21.9506C34.2923 21.7924 34.38 21.5783 34.3791 21.3554C34.3787 21.1334 34.2904 20.9205 34.1336 20.7634C33.9768 20.6062 33.7641 20.5176 33.5421 20.5167ZM36.9051 20.5167C36.7946 20.5163 36.6851 20.5376 36.5829 20.5796C36.4807 20.6215 36.3877 20.6832 36.3094 20.7611C36.231 20.839 36.1688 20.9316 36.1262 21.0336C36.0837 21.1356 36.0617 21.2449 36.0615 21.3554C36.0611 21.4663 36.0826 21.5762 36.1248 21.6788C36.1671 21.7813 36.2292 21.8745 36.3076 21.9529C36.386 22.0313 36.4792 22.0935 36.5818 22.1357C36.6843 22.178 36.7942 22.1995 36.9051 22.199C37.0155 22.1986 37.1247 22.1764 37.2264 22.1338C37.3282 22.0912 37.4206 22.0289 37.4984 21.9506C37.5761 21.8722 37.6376 21.7793 37.6795 21.6772C37.7213 21.5751 37.7426 21.4658 37.7422 21.3554C37.7417 21.1334 37.6535 20.9205 37.4966 20.7634C37.3398 20.6062 37.1271 20.5176 36.9051 20.5167ZM40.9526 23.0378H42.5217C43.3178 23.919 43.8757 24.4706 43.8757 24.4706C44.0331 24.6267 44.2458 24.7142 44.4674 24.7142C44.689 24.7142 44.9017 24.6267 45.0591 24.4706C45.0591 24.4706 45.6155 23.919 46.4099 23.0378H47.9823L48.4845 25.5571H40.4503L40.9526 23.0378ZM30.1774 23.8748C29.9545 23.8757 29.7411 23.9651 29.5842 24.1233C29.4272 24.2815 29.3395 24.4955 29.3403 24.7184V32.2816C29.3399 32.392 29.3612 32.5013 29.403 32.6034C29.4449 32.7055 29.5064 32.7984 29.5841 32.8768C29.6619 32.9551 29.7543 33.0173 29.8561 33.06C29.9579 33.1026 30.067 33.1248 30.1774 33.1252C30.2883 33.1257 30.3982 33.1041 30.5008 33.0619C30.6033 33.0197 30.6965 32.9575 30.7749 32.8791C30.8533 32.8007 30.9155 32.7075 30.9577 32.605C31 32.5024 31.0215 32.3925 31.021 32.2816V25.5571H36.9018C37.0123 25.5576 37.1218 25.5362 37.224 25.4943C37.3263 25.4523 37.4192 25.3906 37.4976 25.3127C37.5759 25.2348 37.6382 25.1423 37.6807 25.0403C37.7232 24.9383 37.7452 24.8289 37.7455 24.7184C37.7459 24.6075 37.7244 24.4976 37.6821 24.3951C37.6399 24.2925 37.5778 24.1994 37.4993 24.1209C37.4209 24.0425 37.3277 23.9803 37.2252 23.9381C37.1226 23.8959 37.0127 23.8743 36.9018 23.8748H30.1774ZM26.816 23.8773C26.7057 23.8769 26.5963 23.8982 26.4942 23.94C26.3921 23.9819 26.2992 24.0434 26.2208 24.1212C26.1425 24.1989 26.0802 24.2913 26.0376 24.393C25.995 24.4948 25.9728 24.604 25.9724 24.7144C25.972 24.8253 25.9935 24.9352 26.0357 25.0378C26.078 25.1403 26.1401 25.2335 26.2185 25.3119C26.2969 25.3903 26.3901 25.4525 26.4927 25.4947C26.5952 25.537 26.7051 25.5585 26.816 25.558C26.9264 25.5576 27.0356 25.5354 27.1374 25.4928C27.2392 25.4502 27.3316 25.3879 27.4093 25.3096C27.487 25.2312 27.5485 25.1383 27.5904 25.0362C27.6322 24.9341 27.6535 24.8248 27.6531 24.7144C27.6522 24.4927 27.5637 24.2803 27.407 24.1235C27.2502 23.9667 27.0378 23.8782 26.816 23.8773ZM26.8196 27.2387C26.5967 27.2378 26.3826 27.3256 26.2244 27.4825C26.0662 27.6395 25.9768 27.8529 25.9759 28.0758C25.9755 28.1867 25.997 28.2966 26.0392 28.3992C26.0815 28.5017 26.1436 28.5949 26.222 28.6733C26.3005 28.7517 26.3936 28.8139 26.4962 28.8561C26.5987 28.8983 26.7086 28.9199 26.8196 28.9194C26.9299 28.919 27.0391 28.8968 27.1409 28.8542C27.2427 28.8115 27.3351 28.7493 27.4128 28.671C27.4905 28.5926 27.5521 28.4997 27.5939 28.3976C27.6357 28.2955 27.657 28.1861 27.6566 28.0758C27.6557 27.8541 27.5673 27.6416 27.4105 27.4849C27.2537 27.3281 27.0413 27.2396 26.8196 27.2387ZM41.1022 28.9177C40.9918 28.9182 40.8826 28.9404 40.7808 28.983C40.679 29.0256 40.5866 29.0879 40.5089 29.1662C40.4312 29.2445 40.3696 29.3374 40.3278 29.4396C40.286 29.5417 40.2647 29.651 40.2651 29.7614V39.0052H39.4215C39.1997 39.0061 38.9873 39.0946 38.8305 39.2514C38.6737 39.4082 38.5853 39.6206 38.5844 39.8423C38.5835 40.0652 38.6712 40.2793 38.8282 40.4375C38.9852 40.5957 39.1986 40.685 39.4215 40.6859H41.1022C41.2131 40.6863 41.323 40.6648 41.4255 40.6225C41.528 40.5803 41.6212 40.5181 41.6996 40.4397C41.7781 40.3613 41.8402 40.2681 41.8824 40.1656C41.9247 40.0631 41.9462 39.9532 41.9458 39.8423V29.7614C41.9462 29.6505 41.9247 29.5406 41.8825 29.438C41.8402 29.3355 41.7781 29.2423 41.6997 29.1639C41.6213 29.0855 41.5281 29.0233 41.4255 28.9811C41.323 28.9388 41.2131 28.9173 41.1022 28.9177ZM44.4685 28.9194C44.3581 28.919 44.2488 28.9403 44.1466 28.9821C44.0445 29.024 43.9516 29.0856 43.8733 29.1633C43.795 29.241 43.7327 29.3334 43.6901 29.4352C43.6474 29.537 43.6253 29.6462 43.6249 29.7565C43.6244 29.8674 43.6459 29.9773 43.6882 30.0799C43.7304 30.1824 43.7925 30.2756 43.871 30.354C43.9494 30.4324 44.0426 30.4946 44.1451 30.5368C44.2477 30.5791 44.3576 30.6006 44.4685 30.6002C44.579 30.6 44.6883 30.5779 44.7903 30.5354C44.8923 30.4928 44.9849 30.4306 45.0628 30.3522C45.1407 30.2739 45.2024 30.181 45.2443 30.0787C45.2863 29.9765 45.3076 29.867 45.3072 29.7565C45.3063 29.5345 45.2176 29.3218 45.0605 29.165C44.9033 29.0081 44.6905 28.9199 44.4685 28.9194ZM26.8196 30.6002C26.7092 30.5997 26.5998 30.621 26.4977 30.6629C26.3956 30.7047 26.3027 30.7662 26.2244 30.8439C26.146 30.9217 26.0838 31.014 26.0411 31.1158C25.9985 31.2176 25.9763 31.3268 25.9759 31.4372C25.9755 31.5481 25.997 31.658 26.0392 31.7605C26.0815 31.8631 26.1436 31.9563 26.222 32.0347C26.3005 32.1132 26.3936 32.1752 26.4962 32.2175C26.5987 32.2597 26.7086 32.2813 26.8196 32.2808C26.9299 32.2804 27.0391 32.2583 27.1409 32.2156C27.2427 32.173 27.3351 32.1107 27.4128 32.0324C27.4905 31.954 27.5521 31.8612 27.5939 31.7591C27.6357 31.657 27.657 31.5475 27.6566 31.4372C27.6557 31.2154 27.5673 31.003 27.4105 30.8462C27.2537 30.6895 27.0413 30.601 26.8196 30.6002ZM44.4685 32.2808C44.3581 32.2804 44.2488 32.3017 44.1466 32.3435C44.0445 32.3854 43.9516 32.4469 43.8733 32.5247C43.795 32.6024 43.7327 32.6948 43.6901 32.7966C43.6474 32.8984 43.6253 33.0076 43.6249 33.1179C43.6244 33.2288 43.646 33.3387 43.6882 33.4413C43.7304 33.5438 43.7926 33.637 43.871 33.7154C43.9494 33.7938 44.0426 33.8559 44.1451 33.8982C44.2477 33.9404 44.3576 33.9619 44.4685 33.9615C44.579 33.9613 44.6883 33.9393 44.7903 33.8968C44.8923 33.8542 44.9849 33.792 45.0628 33.7136C45.1407 33.6353 45.2024 33.5423 45.2443 33.4401C45.2863 33.3379 45.3076 33.2284 45.3072 33.1179C45.3063 32.8959 45.2176 32.6832 45.0605 32.5264C44.9033 32.3695 44.6905 32.2813 44.4685 32.2808ZM22.6162 33.9615C22.495 33.9613 22.3752 33.9873 22.265 34.0378C22.1548 34.0882 22.0568 34.1618 21.9777 34.2537L16.934 40.1394C16.8623 40.2233 16.8078 40.3206 16.7737 40.4256C16.7396 40.5306 16.7266 40.6412 16.7352 40.7513C16.7439 40.8613 16.7742 40.9686 16.8244 41.0669C16.8745 41.1653 16.9436 41.2528 17.0275 41.3244C17.1794 41.4544 17.3726 41.5261 17.5724 41.5264V47.4039C17.5708 47.8706 17.9494 48.2493 18.4161 48.2475H26.8163H36.065C36.5293 48.2458 36.9039 47.8681 36.9021 47.4039V41.5231C37.526 41.5223 37.9325 40.8652 37.6538 40.3069L35.1344 35.2648C34.9924 34.9802 34.7024 34.7993 34.3843 34.7987H23.7224L23.2546 34.2538C23.1755 34.1619 23.0775 34.0883 22.9673 34.0378C22.8571 33.9874 22.7374 33.9613 22.6162 33.9615ZM44.4685 35.6455C44.3581 35.6451 44.2488 35.6664 44.1466 35.7082C44.0445 35.7501 43.9516 35.8116 43.8733 35.8893C43.795 35.967 43.7327 36.0594 43.6901 36.1612C43.6474 36.263 43.6253 36.3722 43.6249 36.4825C43.6244 36.5935 43.6459 36.7033 43.6882 36.8059C43.7304 36.9085 43.7925 37.0017 43.871 37.0801C43.9494 37.1585 44.0426 37.2206 44.1451 37.2629C44.2477 37.3051 44.3576 37.3266 44.4685 37.3262C44.579 37.326 44.6883 37.304 44.7903 37.2615C44.8923 37.2189 44.9849 37.1567 45.0628 37.0783C45.1407 37 45.2024 36.907 45.2443 36.8047C45.2863 36.7025 45.3076 36.593 45.3072 36.4825C45.3063 36.2605 45.2176 36.0479 45.0605 35.8911C44.9033 35.7342 44.6905 35.646 44.4685 35.6455ZM22.6162 36.0952L25.9792 40.0163V46.5674H19.2546V40.0169L22.6162 36.0952ZM6.64957 36.4793H10.4328C12.0767 36.4793 13.374 37.783 13.374 39.427C13.374 41.071 12.1504 42.3666 10.011 42.3666C8.69192 42.3666 7.52683 42.7989 6.64957 43.5107V36.4793ZM25.1618 36.4793H33.8624L35.5447 39.8423H31.0213C30.5546 39.8406 30.1758 40.2192 30.1777 40.686C30.1793 41.1502 30.557 41.5248 31.0213 41.523H35.2214V46.5667H27.6599V41.5263C27.8603 41.5263 28.0542 41.4547 28.2064 41.3243C28.2903 41.2526 28.3592 41.165 28.4092 41.0666C28.4592 40.9682 28.4893 40.8609 28.4979 40.7508C28.5064 40.6408 28.4932 40.5302 28.459 40.4252C28.4247 40.3203 28.3702 40.2232 28.2984 40.1393L25.1618 36.4793ZM44.4685 39.0069C44.3581 39.0065 44.2488 39.0277 44.1466 39.0696C44.0445 39.1114 43.9516 39.173 43.8733 39.2507C43.795 39.3284 43.7327 39.4209 43.6901 39.5227C43.6474 39.6245 43.6253 39.7336 43.6249 39.8439C43.6244 39.9548 43.646 40.0647 43.6882 40.1673C43.7304 40.2698 43.7926 40.3631 43.871 40.4415C43.9494 40.5199 44.0426 40.582 44.1451 40.6242C44.2477 40.6665 44.3576 40.688 44.4685 40.6876C44.579 40.6874 44.6883 40.6654 44.7903 40.6229C44.8923 40.5803 44.9849 40.5181 45.0628 40.4397C45.1407 40.3614 45.2024 40.2684 45.2443 40.1662C45.2863 40.064 45.3076 39.9544 45.3072 39.8439C45.3063 39.6219 45.2176 39.4093 45.0605 39.2525C44.9033 39.0956 44.6905 39.0074 44.4685 39.0069ZM41.1055 42.365C40.9951 42.3646 40.8857 42.3859 40.7836 42.4277C40.6815 42.4695 40.5886 42.5311 40.5103 42.6088C40.4319 42.6866 40.3697 42.7789 40.327 42.8807C40.2844 42.9825 40.2623 43.0917 40.2618 43.2021C40.2614 43.313 40.2829 43.4229 40.3252 43.5254C40.3674 43.628 40.4295 43.7211 40.5079 43.7996C40.5864 43.878 40.6796 43.9401 40.7821 43.9823C40.8847 44.0246 40.9945 44.0462 41.1055 44.0457C41.2158 44.0453 41.325 44.0231 41.4268 43.9805C41.5286 43.9378 41.621 43.8756 41.6987 43.7973C41.7764 43.7189 41.838 43.626 41.8798 43.5239C41.9216 43.4218 41.9429 43.3124 41.9425 43.2021C41.9417 42.9804 41.8532 42.7679 41.6964 42.6112C41.5396 42.4544 41.3272 42.3659 41.1055 42.365ZM44.4685 42.3667C44.358 42.3663 44.2485 42.3876 44.1463 42.4296C44.0441 42.4715 43.9511 42.5332 43.8727 42.6111C43.7944 42.689 43.7322 42.7815 43.6896 42.8835C43.6471 42.9855 43.6251 43.0949 43.6249 43.2054C43.6244 43.3163 43.6459 43.4262 43.6882 43.5288C43.7304 43.6313 43.7925 43.7245 43.871 43.8029C43.9494 43.8813 44.0426 43.9435 44.1451 43.9857C44.2477 44.028 44.3576 44.0495 44.4685 44.049C44.579 44.0488 44.6883 44.0268 44.7903 43.9842C44.8923 43.9417 44.9849 43.8795 45.0628 43.8011C45.1407 43.7227 45.2024 43.6298 45.2443 43.5276C45.2863 43.4254 45.3076 43.3159 45.3072 43.2054C45.3067 42.9831 45.2182 42.77 45.0611 42.6128C44.9039 42.4557 44.6908 42.3671 44.4685 42.3667Z" fill="#16A4A4" stroke="#16A4A4"/>
</svg>
