<?xml version="1.0" standalone="no"?>
<!DOCTYPE svg PUBLIC "-//W3C//DTD SVG 20010904//EN"
 "http://www.w3.org/TR/2001/REC-SVG-20010904/DTD/svg10.dtd">
<svg version="1.0" xmlns="http://www.w3.org/2000/svg"
 width="576.000000pt" height="576.000000pt" viewBox="0 0 576.000000 576.000000"
 preserveAspectRatio="xMidYMid meet">
<metadata>
Created by potrace 1.14, written by Peter Selinger 2001-2017
</metadata>
<g transform="translate(0.000000,576.000000) scale(0.100000,-0.100000)"
fill="#000000" stroke="none">
<path d="M2780 5750 c0 -6 6 -25 13 -43 8 -18 17 -44 21 -59 l6 -28 -65 25
-65 24 0 -104 c0 -58 3 -105 8 -105 4 0 31 9 61 20 29 12 55 19 57 17 6 -6
-41 -134 -57 -153 -8 -10 -14 -38 -14 -65 0 -39 -4 -52 -23 -65 -22 -15 -25
-14 -72 30 -27 25 -57 46 -67 47 -10 0 -29 2 -43 4 -28 3 -79 -20 -96 -42 -9
-13 -16 -12 -48 6 -20 12 -42 19 -48 15 -5 -4 -22 -26 -38 -50 -15 -24 -29
-42 -31 -39 -3 2 -19 6 -36 9 -30 6 -33 3 -55 -44 -25 -53 -37 -61 -110 -69
-5 -1 -8 -14 -8 -31 0 -45 -29 -102 -66 -131 l-33 -25 40 -43 c21 -24 39 -46
39 -49 0 -3 -14 -27 -31 -54 -22 -34 -28 -52 -21 -61 5 -6 13 -22 16 -34 6
-18 4 -20 -13 -16 -12 3 -37 2 -57 -1 -27 -6 -38 -14 -48 -38 -18 -41 -10 -71
14 -58 35 19 68 11 92 -21 13 -17 23 -36 24 -42 0 -7 2 -20 2 -29 2 -16 37
-35 56 -30 5 2 5 -5 1 -15 -10 -27 -10 -26 -3 -58 4 -18 17 -36 31 -44 15 -8
27 -26 31 -45 4 -17 16 -38 28 -47 16 -13 18 -20 10 -35 -7 -13 -6 -26 4 -46
9 -17 10 -29 4 -33 -6 -3 -10 -17 -10 -29 0 -21 -4 -23 -37 -19 -58 6 -73 26
-73 95 0 69 -10 92 -57 134 -45 41 -85 49 -126 27 -18 -9 -41 -18 -52 -20 -11
-2 -32 -5 -47 -7 -32 -5 -52 -23 -62 -54 -7 -20 -9 -20 -22 -7 -9 8 -18 15
-22 16 -4 0 -16 2 -26 4 -11 2 -32 -3 -48 -11 -25 -13 -29 -13 -34 1 -4 8 -1
22 6 29 6 8 10 29 8 47 -2 25 -11 38 -36 52 -32 19 -33 19 -71 -1 -21 -11 -43
-17 -51 -12 -7 4 -20 5 -30 3 -20 -5 -31 22 -20 52 4 11 3 32 -2 47 -24 70
-94 82 -144 24 -18 -21 -40 -36 -53 -36 -33 0 -74 -49 -67 -80 3 -15 -3 -41
-17 -67 -19 -37 -20 -46 -9 -75 10 -26 9 -36 -4 -55 -16 -25 -12 -57 12 -83
11 -14 8 -15 -27 -12 -32 3 -44 0 -60 -19 -19 -22 -20 -33 -5 -69 5 -12 -1
-16 -26 -18 -17 -2 -29 0 -25 4 13 13 -13 43 -44 49 -17 4 -46 16 -64 26 -35
21 -59 17 -87 -14 -43 -48 -34 -109 22 -163 48 -47 51 -64 11 -64 -18 0 -41
-10 -57 -25 -15 -14 -33 -25 -40 -25 -24 0 -54 -39 -54 -70 0 -17 9 -39 20
-50 11 -11 22 -31 26 -45 4 -16 17 -30 33 -36 14 -5 33 -14 41 -19 39 -26 60
-29 95 -14 31 12 39 13 63 0 32 -16 74 -4 105 32 11 12 26 18 35 15 28 -10 51
-34 49 -51 0 -10 3 -29 6 -44 8 -29 2 -34 -22 -19 -10 6 -27 5 -48 -4 -23 -10
-41 -11 -57 -5 -39 14 -90 -5 -100 -37 -4 -13 -17 -18 -46 -19 -51 -1 -80 -26
-80 -70 0 -65 34 -102 98 -107 23 -1 29 -12 12 -22 -5 -3 -10 -17 -10 -31 0
-14 -7 -36 -16 -50 -11 -16 -15 -36 -11 -59 3 -19 2 -36 -4 -36 -5 -1 -17 -2
-26 -3 -54 -6 -92 -47 -88 -94 1 -18 -2 -21 -18 -16 -36 11 -50 11 -78 -3 -66
-33 -82 -113 -33 -173 7 -9 10 -32 7 -56 -6 -53 21 -83 73 -80 31 1 36 -2 41
-27 8 -41 44 -61 94 -53 l40 6 -27 -34 c-32 -39 -37 -61 -25 -97 8 -23 7 -26
-10 -22 -10 3 -31 -2 -45 -12 -28 -18 -28 -13 -6 -129 10 -52 29 -74 75 -83
18 -4 34 -18 49 -44 16 -28 32 -42 56 -49 20 -5 39 -7 44 -4 18 11 58 14 58 4
0 -6 15 -19 32 -30 31 -19 52 -20 98 -5 28 9 36 -17 20 -68 -18 -58 -23 -60
-44 -29 -42 62 -155 104 -185 68 -29 -35 -9 -119 44 -180 19 -22 35 -30 60
-30 19 -1 34 -3 32 -6 -1 -3 -9 -17 -16 -32 -13 -27 -51 -39 -51 -18 0 6 -7
10 -15 10 -10 0 -15 11 -15 35 0 49 -38 84 -83 76 -4 -1 -14 14 -22 32 -19 47
-39 61 -76 53 -22 -4 -35 -2 -43 8 -20 27 -60 29 -89 5 -26 -19 -28 -26 -25
-83 1 -33 -1 -73 -6 -88 -7 -22 -3 -32 23 -57 18 -17 26 -31 19 -32 -44 -3
-60 -8 -79 -25 -18 -16 -20 -25 -14 -59 4 -22 9 -59 10 -81 5 -67 14 -84 48
-92 18 -3 37 -5 42 -3 6 1 6 -1 2 -5 -4 -5 -20 -10 -35 -12 -42 -5 -72 -29
-72 -58 0 -14 -11 -35 -24 -47 -38 -35 -38 -76 -1 -113 19 -19 34 -24 67 -23
24 1 52 -3 63 -8 25 -13 60 -1 74 26 9 16 16 18 38 12 56 -16 110 4 137 50 10
16 22 27 27 23 19 -12 66 8 81 34 16 27 18 33 18 52 0 5 13 16 29 25 28 14 32
14 57 -8 l27 -24 -30 -32 c-17 -17 -36 -45 -43 -61 -13 -32 -36 -45 -54 -31
-6 5 -25 12 -43 16 -27 5 -37 2 -59 -20 -22 -22 -25 -32 -19 -58 4 -18 11 -50
15 -72 5 -22 13 -41 19 -43 18 -6 13 -18 -14 -30 -23 -11 -25 -10 -25 16 0 66
-83 138 -133 115 -50 -23 -40 -118 17 -170 l35 -33 -25 -6 c-32 -8 -38 -2 -61
61 -22 60 -61 88 -94 67 -18 -12 -24 -11 -41 7 -27 30 -67 55 -92 57 -24 2
-86 -32 -86 -48 0 -5 -12 0 -26 11 -15 12 -37 21 -50 21 -24 0 -64 -35 -64
-56 0 -7 -18 -11 -50 -10 -45 1 -53 -2 -67 -26 -13 -21 -15 -35 -7 -65 8 -32
17 -41 63 -64 30 -15 61 -39 68 -53 7 -14 24 -28 36 -31 19 -5 22 -11 19 -41
-3 -26 -12 -38 -33 -50 -16 -8 -29 -20 -30 -27 0 -6 -3 -24 -5 -39 -7 -40 26
-69 74 -66 20 1 51 -5 67 -12 39 -17 63 -13 102 16 23 18 41 23 71 20 66 -5
105 21 126 87 3 9 14 17 25 17 29 0 61 53 64 108 0 12 5 22 9 22 7 0 11 -16 6
-22 -7 -9 49 -88 69 -97 73 -33 132 111 72 175 l-20 22 21 15 c36 25 51 14 76
-51 l23 -62 -28 -15 c-16 -8 -34 -28 -41 -44 -7 -17 -20 -33 -30 -36 -25 -8
-44 -59 -37 -101 9 -54 32 -74 86 -75 25 -1 57 -4 71 -8 26 -7 29 -26 18 -106
-13 -87 85 -147 169 -103 21 11 47 29 59 39 38 35 69 33 113 -6 44 -40 79 -45
119 -16 43 30 55 30 90 0 18 -16 44 -29 57 -29 26 0 26 -1 30 -70 3 -53 4 -55
24 -79 26 -30 78 -31 102 -3 18 23 38 29 40 12 2 -11 2 -11 13 -52 9 -30 60
-53 92 -41 16 6 53 35 47 37 -1 1 0 11 4 24 3 13 13 22 22 21 45 -4 61 3 76
31 8 16 15 38 15 48 0 12 11 24 30 32 39 16 70 55 70 87 0 19 4 24 16 19 9 -3
28 -9 42 -12 32 -8 72 -42 72 -61 0 -8 7 -16 15 -19 8 -4 15 -10 15 -15 0 -13
-41 -37 -73 -43 -50 -9 -67 -17 -105 -52 -20 -19 -60 -46 -89 -59 -45 -22 -83
-56 -83 -75 0 -4 22 -2 48 3 39 8 54 7 85 -8 20 -9 57 -19 81 -20 55 -4 81 17
90 73 6 42 21 54 58 47 14 -3 38 6 62 23 28 19 52 27 85 27 25 1 61 9 79 18
17 10 32 15 32 13 0 -3 11 -1 24 4 19 7 30 4 50 -11 19 -15 26 -16 33 -7 11
19 14 40 8 73 -5 29 -6 30 -56 26 -62 -4 -76 7 -49 37 16 17 33 22 73 23 156
4 219 -1 244 -21 32 -25 11 -40 -54 -40 l-53 0 0 -44 c0 -46 22 -80 34 -51 7
20 68 20 109 -1 17 -9 55 -17 84 -18 35 -1 60 -8 74 -19 28 -24 63 -37 86 -31
25 7 41 -12 51 -62 5 -26 16 -43 32 -51 30 -15 104 -7 137 14 23 15 79 14 117
-2 17 -7 17 -6 6 16 -18 33 -30 43 -69 59 -19 8 -61 35 -93 61 -38 30 -72 49
-98 53 -21 3 -51 17 -66 30 -27 23 -28 24 -7 30 12 4 23 16 25 28 3 22 50 51
101 62 20 5 27 3 26 -6 -5 -29 14 -64 46 -86 19 -12 39 -22 44 -22 4 0 11 -16
14 -35 7 -45 42 -75 78 -68 22 4 28 0 37 -25 14 -39 52 -65 85 -57 40 11 61
40 66 98 2 15 31 6 40 -12 14 -25 42 -31 80 -15 36 15 55 54 46 95 -8 35 10
69 35 69 10 0 33 12 51 27 36 31 61 31 92 2 32 -29 69 -24 118 17 49 41 70 40
129 -7 96 -78 210 -40 210 69 0 23 -4 43 -8 46 -5 3 -7 18 -4 34 3 25 10 31
40 36 21 3 52 6 70 6 50 0 81 39 78 96 -2 37 -9 50 -39 78 -20 19 -37 41 -37
50 0 9 -3 16 -7 16 -5 0 -18 8 -31 18 l-23 18 20 52 c11 29 17 52 13 52 -4 0
1 5 10 10 16 10 68 -2 68 -16 0 -4 -8 -21 -19 -38 -31 -52 -18 -132 26 -161
25 -17 28 -17 58 -1 31 17 71 88 60 107 -4 5 -2 9 4 9 6 0 13 -17 17 -37 9
-48 40 -93 64 -93 11 0 22 -11 29 -30 19 -57 56 -79 122 -74 36 3 50 -1 64
-16 24 -27 76 -35 111 -18 16 8 48 13 71 12 37 -1 43 2 59 31 15 28 16 37 4
64 -7 19 -22 34 -36 37 -19 5 -24 13 -24 40 0 19 0 37 0 42 0 4 5 8 10 8 6 1
13 2 18 3 4 1 18 17 31 36 13 19 29 35 36 35 26 0 75 36 86 62 13 31 5 73 -17
95 -11 11 -28 14 -60 10 -39 -4 -45 -2 -50 17 -11 45 -83 58 -115 20 -10 -13
-16 -12 -38 9 -50 46 -98 42 -154 -14 -17 -18 -33 -27 -35 -20 -6 17 -58 13
-77 -6 -17 -16 -34 -52 -41 -87 -2 -10 -6 -21 -9 -24 -11 -11 -39 -11 -52 0
-11 9 -9 13 9 22 49 25 80 133 48 171 -37 45 -150 -26 -150 -94 0 -32 -13 -39
-40 -21 -12 8 -12 11 3 28 9 10 17 30 17 44 0 14 5 39 11 57 9 25 8 36 -5 56
-21 32 -80 44 -105 21 -16 -15 -22 -15 -40 -4 -12 7 -21 20 -21 28 0 8 -16 32
-35 53 -37 41 -37 58 1 76 20 9 30 8 49 -5 14 -9 25 -25 25 -35 0 -29 42 -69
77 -73 20 -3 45 -18 67 -40 38 -39 49 -43 113 -33 26 4 35 0 48 -20 15 -22 22
-24 53 -19 21 4 58 8 84 9 83 5 118 80 61 133 -14 13 -23 27 -20 30 3 4 0 19
-8 34 -13 25 -43 43 -90 53 -15 4 -14 5 6 6 46 2 72 31 71 82 -1 24 3 59 9 77
11 32 -2 91 -20 93 -43 6 -68 12 -75 20 -6 6 -5 9 3 9 24 0 50 39 45 68 -3 14
-9 31 -13 37 -5 5 -5 19 0 30 14 35 10 72 -12 99 -24 31 -57 33 -91 7 -15 -12
-29 -16 -37 -11 -30 18 -90 -22 -91 -61 0 -10 -11 -19 -27 -22 -16 -3 -37 -9
-48 -13 -20 -8 -20 -8 -2 20 24 37 32 106 15 130 -33 44 -146 3 -189 -68 l-18
-29 -14 34 c-20 49 -28 87 -19 92 4 3 26 2 49 -2 43 -8 63 -2 100 32 18 16 27
18 50 9 45 -15 93 6 119 52 16 29 30 40 50 42 36 4 65 33 68 70 2 16 8 42 15
57 16 39 14 55 -8 79 -13 14 -28 19 -44 16 -23 -4 -24 -3 -17 22 11 39 2 75
-26 101 -29 27 -31 44 -4 29 44 -23 96 3 110 55 5 15 15 20 45 21 52 1 77 32
72 87 -3 30 2 49 19 74 21 31 21 37 10 76 -19 68 -94 104 -146 72 -6 -4 -11
-1 -9 6 7 57 -23 96 -81 105 -33 5 -38 9 -30 24 10 19 3 57 -14 79 -6 8 -12
24 -13 35 0 12 -4 30 -8 42 -6 18 -2 22 32 27 58 10 78 41 74 117 -1 31 -43
58 -84 56 -21 -1 -34 6 -48 25 -22 32 -58 43 -94 29 -19 -7 -33 -6 -54 4 -17
9 -32 11 -42 5 -24 -15 -29 -10 -27 31 1 45 25 80 54 80 11 -1 35 -14 54 -30
39 -34 45 -35 84 -15 21 11 32 12 42 4 23 -19 87 -15 112 6 12 11 30 20 39 20
10 0 24 14 33 30 8 17 18 32 21 35 13 11 29 50 29 72 -1 31 -21 55 -52 63 -14
4 -35 18 -47 31 -13 15 -32 24 -51 24 -34 0 -41 23 -12 39 10 5 31 28 46 50
22 31 27 48 23 76 -9 70 -81 110 -122 69 -9 -9 -29 -18 -45 -19 -36 -3 -60
-24 -60 -54 0 -4 -11 -6 -25 -3 -25 4 -32 16 -16 26 4 3 8 18 7 33 -1 33 -37
55 -78 50 -32 -4 -33 0 -13 27 19 26 19 45 -1 67 -14 16 -15 23 -4 48 14 34 5
87 -16 95 -11 4 -13 15 -8 45 5 34 3 43 -19 65 -16 16 -37 26 -54 26 -21 0
-31 7 -41 28 -18 41 -70 56 -110 32 -35 -22 -43 -40 -40 -98 1 -23 -1 -44 -3
-46 -12 -12 -78 -7 -106 7 -30 16 -36 16 -62 3 -39 -21 -56 -77 -31 -102 6 -6
8 -18 4 -27 -6 -18 -24 -23 -24 -8 0 5 -16 12 -37 16 -28 5 -42 2 -65 -15
l-28 -21 0 21 c0 36 -39 61 -100 65 -14 1 -39 9 -57 18 -49 26 -74 21 -128
-26 l-49 -44 -4 -74 c-5 -84 -11 -95 -59 -108 -43 -12 -62 -5 -56 19 3 10 0
21 -6 24 -7 4 -7 16 0 36 7 19 7 35 1 46 -8 14 -4 22 14 37 13 10 24 27 24 38
0 11 13 32 29 47 35 32 46 64 32 91 -9 16 -6 21 19 30 29 10 52 45 43 67 -2 6
9 23 24 38 26 27 41 29 93 15 21 -6 22 47 1 71 -21 24 -82 41 -104 28 -21 -11
-22 9 -2 35 16 22 6 57 -28 100 l-22 28 43 47 43 46 -31 24 c-36 28 -61 74
-66 119 -4 45 -7 48 -45 51 -42 3 -45 6 -68 58 -23 50 -37 59 -74 45 -21 -8
-27 -7 -32 7 -3 9 -18 32 -33 51 l-28 33 -41 -21 c-37 -18 -42 -19 -54 -5 -52
62 -158 50 -221 -26 l-26 -31 -30 18 c-21 13 -28 23 -22 33 14 22 -11 120 -31
120 -5 0 -8 3 -7 8 1 4 -6 31 -15 61 -10 29 -16 55 -14 57 2 2 30 -5 62 -16
32 -11 60 -20 62 -20 1 0 3 45 3 99 0 91 -7 121 -23 104 -13 -12 -107 -40
-107 -31 0 5 9 34 20 65 11 32 20 59 20 60 0 2 -45 3 -100 3 -62 0 -100 -4
-100 -10z m-1235 -1629 c1 -51 44 -114 99 -144 l41 -22 1 -680 c2 -592 0 -676
-12 -652 -8 15 -23 27 -34 27 -31 0 -32 17 -4 45 20 20 25 33 21 58 -2 18 -1
42 4 54 12 32 -21 71 -60 69 -17 -1 -36 -7 -43 -14 -6 -6 -20 -12 -30 -12 -15
0 -17 6 -13 43 3 23 10 44 16 46 6 2 22 13 37 26 22 19 25 29 24 71 -2 41 3
58 33 104 35 55 40 85 17 113 -7 9 -13 24 -13 34 0 10 0 47 1 81 1 70 -7 86
-54 107 -38 17 -57 33 -78 63 -14 21 -14 27 -2 50 8 15 14 35 14 44 0 13 7 16
31 13 64 -8 112 52 85 106 -8 16 -10 29 -5 29 19 0 49 41 49 69 0 35 -19 52
-62 56 -18 2 -34 3 -36 4 -2 1 5 12 16 26 44 56 -22 116 -86 78 -12 -8 -27
-11 -32 -8 -13 8 -52 -13 -68 -37 -7 -10 -17 -16 -21 -13 -5 2 -18 -7 -31 -20
-18 -19 -26 -22 -37 -14 -7 6 -24 9 -38 7 -22 -5 -25 -3 -19 16 9 28 22 35 60
34 34 -1 80 27 87 55 3 11 15 17 34 17 40 0 70 24 78 63 14 61 30 65 30 8z
m2694 17 c5 -13 7 -26 5 -29 -2 -4 7 -18 21 -33 17 -19 34 -26 60 -26 20 0 34
-4 31 -8 -3 -5 6 -20 20 -35 20 -21 34 -27 68 -27 39 0 45 -3 54 -28 9 -28 9
-28 -36 -27 -27 0 -47 5 -50 13 -2 6 -9 12 -16 12 -7 0 -30 13 -51 30 -20 16
-41 27 -46 24 -5 -2 -21 1 -36 9 -33 16 -67 15 -88 -3 -19 -16 -19 -74 0 -90
19 -16 10 -30 -15 -23 -31 8 -70 -23 -70 -55 0 -33 8 -45 37 -61 21 -10 22
-14 10 -34 -8 -12 -13 -28 -12 -34 2 -7 3 -20 4 -28 2 -24 59 -54 92 -48 25 4
29 1 29 -19 0 -14 6 -33 14 -43 24 -33 -14 -81 -87 -112 -48 -20 -59 -54 -44
-139 3 -21 -2 -46 -16 -73 -20 -39 -20 -41 -2 -81 10 -22 21 -40 25 -40 14 0
30 -56 29 -102 -1 -45 15 -78 39 -78 14 0 42 -46 42 -68 0 -25 -25 -48 -35
-32 -12 19 -49 28 -76 18 -31 -11 -51 -48 -38 -69 5 -8 6 -26 3 -41 -7 -37 3
-66 27 -73 25 -8 25 -35 0 -35 -45 0 -61 -78 -23 -106 9 -6 17 -25 18 -42 3
-41 20 -69 45 -77 19 -6 20 -8 3 -26 -21 -24 -13 -83 16 -114 27 -29 25 -42
-11 -76 -44 -41 -50 -95 -15 -130 23 -23 25 -30 15 -57 -7 -19 -7 -37 -1 -47
5 -10 5 -31 -1 -54 -8 -29 -6 -50 8 -93 15 -48 15 -61 4 -95 -18 -54 -18 -67
3 -125 22 -64 22 -83 0 -130 -18 -37 -21 -105 -7 -143 24 -66 32 -82 68 -127
34 -44 38 -53 28 -76 -5 -15 -13 -44 -16 -65 -5 -36 -21 -77 -30 -77 -2 0 -2
26 -1 58 6 113 -26 157 -75 104 -32 -34 -59 -84 -59 -110 0 -10 8 -27 19 -36
16 -15 17 -23 9 -57 -12 -44 -76 -108 -112 -110 -86 -6 -105 -5 -110 7 -4 9 4
11 30 7 21 -4 40 -1 50 8 24 20 36 57 24 79 -8 15 -4 20 19 30 26 10 36 25 46
69 2 7 -8 24 -22 37 -13 12 -22 27 -19 33 15 24 -7 60 -46 79 -57 26 -83 19
-102 -30 -9 -21 -20 -37 -25 -33 -5 3 -20 1 -34 -4 -14 -5 -28 -6 -33 -1 -5 5
-20 10 -34 12 -33 5 -47 14 -52 35 -4 15 1 18 36 16 139 -6 261 80 302 212 18
55 23 514 24 1901 l0 662 31 12 c61 26 125 121 112 168 -7 29 15 29 26 0z
m-2343 -45 c-4 -32 -9 -68 -10 -81 -2 -12 1 -25 5 -28 21 -13 6 -24 -32 -24
-35 0 -40 2 -34 18 8 17 8 47 1 87 -6 40 23 74 73 84 2 1 1 -25 -3 -56z m2008
36 c25 -20 27 -26 23 -72 -3 -28 -1 -61 3 -73 8 -20 6 -22 -29 -22 l-38 -1 4
43 c3 23 1 57 -4 76 -10 37 -7 70 6 70 5 0 20 -10 35 -21z m-2735 -123 c-3 -3
-11 5 -18 17 -13 21 -12 21 5 5 10 -10 16 -20 13 -22z m3451 24 c0 -5 -5 -10
-11 -10 -5 0 -7 5 -4 10 3 6 8 10 11 10 2 0 4 -4 4 -10z m-1330 -19 c14 -5 36
-19 50 -30 l25 -21 -45 0 c-224 -3 -913 -1 -917 3 -6 7 67 54 92 58 46 9 772
0 795 -10z m-2144 -155 c2 -13 -4 -16 -24 -14 -19 2 -28 10 -30 25 -3 19 0 21
24 14 15 -4 28 -15 30 -25z m3524 4 c0 -22 -46 -34 -54 -13 -10 26 -7 30 24
31 23 0 30 -4 30 -18z m-3413 -80 c-1 -16 -3 -30 -4 -30 -8 0 -23 42 -18 50
12 20 24 9 22 -20z m3265 5 c-2 -14 -8 -28 -13 -31 -10 -6 -12 39 -2 49 13 14
20 6 15 -18z m-3312 -99 c0 -5 -7 -3 -15 4 -8 7 -15 20 -15 28 0 13 3 12 15
-4 8 -10 15 -23 15 -28z m3360 8 c-18 -21 -24 -10 -8 15 7 12 14 17 16 11 2
-6 -2 -17 -8 -26z m-3144 -296 c-1 -13 -12 -43 -23 -68 l-21 -45 -16 38 c-16
35 -16 40 1 67 22 37 63 42 59 8z m2963 -5 c20 -25 21 -59 1 -73 -4 -3 -9 -12
-12 -20 -6 -17 -48 70 -48 101 0 28 35 24 59 -8z m-3247 -371 c1 -17 10 -41
19 -53 16 -21 15 -23 -14 -48 -16 -14 -42 -42 -57 -63 -24 -32 -29 -36 -40
-23 -7 8 -21 15 -31 15 -11 0 -16 5 -13 13 6 18 -35 70 -51 63 -7 -2 -28 11
-46 31 -19 19 -27 34 -19 32 8 -1 27 1 42 5 16 5 36 5 45 0 60 -26 122 -8 145
42 14 29 17 27 20 -14z m3498 15 c0 -31 40 -52 93 -50 90 4 130 3 134 -1 9 -8
-42 -51 -71 -61 -22 -7 -32 -19 -38 -44 -5 -18 -12 -30 -15 -27 -4 3 -14 -1
-24 -10 -16 -15 -22 -12 -77 47 -55 59 -58 64 -43 81 16 19 18 23 20 58 1 22
21 28 21 7z m-3282 -519 c6 -6 7 -21 2 -39 -5 -16 -6 -29 -4 -29 3 0 2 -5 -1
-11 -9 -13 -52 25 -69 61 -18 40 -13 62 19 80 l30 17 6 -34 c3 -19 11 -39 17
-45z m335 -573 c2 -280 6 -520 9 -532 10 -33 41 -96 54 -110 7 -7 14 -16 16
-21 7 -16 84 -70 118 -81 19 -7 64 -15 100 -18 36 -3 66 -7 68 -8 8 -7 -24
-45 -34 -41 -6 2 -24 -2 -39 -10 -15 -8 -32 -11 -39 -7 -6 4 -19 8 -28 9 -10
1 -22 2 -27 3 -5 0 -11 14 -14 31 -7 32 -39 47 -81 36 -51 -13 -87 -64 -65
-92 6 -7 0 -15 -16 -22 -34 -16 -34 -64 0 -97 13 -14 28 -25 34 -25 6 0 6 -11
1 -30 -7 -23 -4 -35 12 -56 18 -22 27 -25 60 -21 26 4 38 1 38 -7 0 -14 -87
-15 -130 -2 -75 24 -131 139 -81 166 23 12 21 32 -8 86 -27 51 -56 84 -73 84
-32 0 -53 -88 -38 -157 8 -35 8 -36 -10 -17 -10 10 -21 41 -25 67 -3 27 -11
57 -17 67 -10 15 -5 26 29 66 68 84 100 202 69 261 -24 47 -26 81 -9 132 20
58 24 91 13 110 -16 31 -18 83 -4 116 16 39 18 93 5 114 -6 9 -5 23 1 37 7 15
7 32 0 53 -9 26 -8 33 7 43 40 29 43 91 7 124 -13 12 -29 31 -36 43 -10 19 -9
26 9 45 32 34 42 80 24 106 -15 21 -14 24 11 46 14 14 26 28 27 32 5 44 13 69
32 94 l22 30 2 -69 c2 -37 4 -297 6 -578z m-462 136 c5 -13 7 -26 4 -29 -3 -3
-10 9 -16 26 -6 17 -17 33 -25 36 -8 3 -14 11 -14 17 0 18 41 -22 51 -50z
m3330 30 c-19 -19 -26 -41 -21 -66 1 -6 -3 -6 -10 1 -14 14 3 62 28 80 25 18
27 9 3 -15z m-3212 -266 c30 -39 35 -78 14 -116 -43 -76 -39 -73 -53 -39 -20
47 -77 93 -111 88 -32 -5 -36 7 -14 35 11 15 21 18 53 12 39 -6 72 10 72 36 0
17 18 9 39 -16z m3113 -1 c11 -24 16 -26 59 -20 42 6 48 4 63 -18 21 -33 21
-33 -18 -28 -29 3 -40 -2 -69 -31 -19 -19 -42 -47 -51 -63 -8 -16 -15 -23 -16
-16 0 8 -9 27 -21 43 -11 16 -22 37 -23 47 -6 36 32 110 57 111 4 1 13 -11 19
-25z m333 -65 c-4 -5 -8 -21 -10 -35 -2 -25 -30 -53 -52 -54 -7 0 -19 13 -28
30 -19 37 -19 40 4 35 10 -2 31 5 47 15 33 21 48 25 39 9z m-3628 -158 c30
-15 92 -20 121 -10 19 8 23 6 19 -8 -3 -10 -8 -31 -11 -48 -9 -41 -27 -85 -35
-85 -4 0 -8 12 -9 27 -3 35 -27 60 -64 68 -38 9 -42 3 -29 -37 17 -53 21 -148
7 -142 -15 6 -42 72 -38 91 1 7 -4 26 -12 41 -23 45 -26 79 -9 113 13 27 18
30 27 17 6 -8 21 -20 33 -27z m3490 -82 c-9 -19 -19 -50 -22 -69 -13 -76 -56
-123 -49 -53 3 21 7 52 10 68 17 93 19 86 -17 80 -40 -7 -69 -39 -69 -77 0
-57 -22 -13 -57 115 -4 15 -2 17 14 9 41 -21 147 4 169 40 5 8 13 -4 22 -33
13 -40 13 -50 -1 -80z m-2008 -382 c19 -9 39 -17 45 -17 6 0 34 -20 62 -44 49
-43 81 -93 108 -171 14 -39 14 -40 24 -15 56 141 96 190 192 238 54 27 58 27
283 30 l227 4 -17 -30 c-16 -27 -16 -31 4 -70 16 -33 18 -44 8 -52 -14 -11
-14 -20 -1 -58 6 -18 3 -29 -13 -43 -12 -11 -21 -27 -21 -35 0 -8 -4 -12 -10
-9 -5 3 -10 24 -10 46 0 26 -7 46 -20 59 -22 22 -30 23 -102 21 -48 -2 -101
21 -145 62 -27 24 -72 25 -106 2 -27 -17 -52 -67 -49 -98 2 -33 -16 -54 -51
-61 -48 -9 -67 -32 -76 -96 -1 -3 -46 -5 -100 -5 l-100 0 -6 31 c-6 35 -31 62
-61 67 -44 7 -64 27 -64 63 0 96 -94 151 -158 91 -42 -39 -73 -51 -132 -53
-30 -1 -63 -3 -72 -3 -31 -2 -56 -37 -63 -90 -7 -52 -19 -68 -22 -29 -1 12 -8
28 -16 35 -10 10 -13 28 -10 58 3 25 1 45 -5 49 -8 5 -5 20 9 46 19 37 20 42
5 70 l-15 31 222 -3 c187 -3 227 -6 256 -21z m-1237 -97 c25 -29 50 -79 43
-90 -7 -12 -65 6 -87 28 -16 15 -16 22 -6 50 14 37 27 40 50 12z m2984 -5 c9
-14 14 -31 11 -39 -8 -20 -48 -45 -77 -48 -31 -4 -29 18 7 73 30 46 37 47 59
14z m-3046 -154 c0 -17 -18 -21 -24 -6 -3 9 0 15 9 15 8 0 15 -4 15 -9z m3087
-5 c0 -8 -6 -12 -14 -9 -7 3 -13 9 -13 14 0 5 6 9 13 9 8 0 14 -6 14 -14z
m-1117 -141 c-4 -19 -5 -35 -2 -35 3 0 1 -5 -6 -12 -7 -7 -12 -19 -12 -28 0
-11 -10 -16 -35 -16 -28 0 -34 4 -29 16 3 8 11 33 17 55 13 54 34 77 57 65 15
-8 17 -16 10 -45z m-833 33 c6 -7 15 -31 20 -53 6 -22 14 -47 17 -56 5 -12 0
-16 -26 -17 -31 -1 -34 2 -49 48 -16 51 -10 90 14 90 8 0 19 -6 24 -12z m-799
-20 c16 -16 15 -28 -1 -28 -19 0 -47 -33 -56 -66 -6 -22 -14 -29 -35 -31 -26
-2 -28 0 -23 35 7 65 36 101 83 102 11 0 25 -5 32 -12z m2453 2 c40 -22 69
-130 35 -130 -29 0 -46 13 -46 34 0 26 -34 66 -55 66 -18 0 -19 12 -3 28 15
15 43 15 69 2z m-1955 -47 c-11 -11 -17 4 -9 23 7 18 8 18 11 1 2 -10 1 -21
-2 -24z m1407 13 c4 -10 0 -12 -14 -9 -10 3 -16 9 -13 14 8 13 21 11 27 -5z"/>
</g>
</svg>
