<svg width="208" height="69" viewBox="0 0 208 69" fill="none" xmlns="http://www.w3.org/2000/svg">
<rect x="0.5" y="0.5" width="207" height="68" rx="9.5" fill="black" stroke="#ABABAB"/>
<path d="M77.2357 45.9874H69.9155L68.1271 50.8369H64.9245L72.0783 32.6411H75.1145L82.4346 50.8369H79.0657L77.2357 45.9874ZM70.8306 43.5005H76.2791L74.3242 38.278C74.0747 37.5734 73.7836 36.7445 73.534 35.874C73.2845 36.6616 73.0349 37.4491 72.7854 38.2366L70.8306 43.5005Z" fill="white"/>
<path d="M83.724 40.5993C83.724 39.6046 83.6824 38.4855 83.6408 37.2835H86.5523C86.677 37.8637 86.7186 38.4026 86.7602 38.9828C87.9664 37.6565 89.3389 36.9933 90.9194 36.9933C91.8344 36.9933 92.6662 37.2006 93.4565 37.6565C94.2467 38.1124 94.8706 38.817 95.3281 39.8118C95.7856 40.8066 96.0351 42.05 96.0351 43.5422C96.0351 45.1172 95.744 46.485 95.2033 47.6041C94.6626 48.7232 93.914 49.5936 92.9158 50.1324C91.9592 50.7127 90.8362 51.0029 89.5469 51.0029C88.6318 51.0029 87.7168 50.8371 86.8018 50.5469V56.2253L83.6824 56.474V40.5993H83.724ZM91.9176 47.5212C92.5415 46.6922 92.8742 45.4488 92.8742 43.7908C92.8742 42.2573 92.6246 41.1796 92.0839 40.5164C91.5432 39.8533 90.8778 39.4802 90.0044 39.4802C89.3805 39.4802 88.8398 39.6046 88.3407 39.8947C87.8416 40.1848 87.3425 40.5579 86.885 41.0553V48.3087C87.1761 48.4745 87.5505 48.5989 87.9664 48.6817C88.3823 48.7646 88.7982 48.8061 89.1725 48.8061C90.3371 48.8061 91.2521 48.3916 91.9176 47.5212Z" fill="white"/>
<path d="M97.9067 40.5993C97.9067 39.6046 97.8651 38.4855 97.8235 37.2835H100.735C100.86 37.8637 100.901 38.4026 100.943 38.9828C102.149 37.6565 103.522 36.9933 105.102 36.9933C106.017 36.9933 106.849 37.2006 107.639 37.6565C108.429 38.1124 109.053 38.817 109.511 39.8118C109.968 40.8066 110.218 42.05 110.218 43.5422C110.218 45.1172 109.927 46.485 109.386 47.6041C108.845 48.7232 108.097 49.5936 107.098 50.1324C106.142 50.7127 105.019 51.0029 103.73 51.0029C102.815 51.0029 101.9 50.8371 100.984 50.5469V56.2253L97.8651 56.474V40.5993H97.9067ZM106.1 47.5212C106.724 46.6922 107.057 45.4488 107.057 43.7908C107.057 42.2573 106.807 41.1796 106.267 40.5164C105.726 39.8533 105.06 39.4802 104.187 39.4802C103.563 39.4802 103.022 39.6046 102.523 39.8947C102.024 40.1848 101.525 40.5579 101.068 41.0553V48.3087C101.359 48.4745 101.733 48.5989 102.149 48.6817C102.565 48.7646 102.981 48.8061 103.355 48.8061C104.52 48.8061 105.476 48.3916 106.1 47.5212Z" fill="white"/>
<path d="M115.916 49.9658C114.585 49.2197 113.545 48.1835 112.838 46.7742C112.131 45.4064 111.757 43.7485 111.757 41.8833C111.757 39.8524 112.173 38.1116 113.004 36.7023C113.836 35.2931 114.959 34.2154 116.415 33.5108C117.829 32.8062 119.451 32.4331 121.24 32.4331C122.279 32.4331 123.278 32.5575 124.234 32.7647C125.191 33.0134 126.064 33.3035 126.896 33.718L126.106 36.122C124.442 35.3345 122.862 34.9615 121.364 34.9615C120.117 34.9615 118.994 35.2516 118.037 35.7904C117.08 36.3293 116.332 37.1168 115.833 38.153C115.292 39.1892 115.042 40.4741 115.042 41.9248C115.042 43.2097 115.25 44.3702 115.666 45.365C116.082 46.3598 116.706 47.1473 117.58 47.769C118.453 48.3493 119.576 48.6394 120.907 48.6394C121.531 48.6394 122.113 48.598 122.737 48.4736C123.361 48.3493 123.901 48.2249 124.442 48.0177V44.3288H120.241V41.9248H127.478V49.5927C126.439 50.0901 125.357 50.4631 124.193 50.7118C123.028 50.9605 121.905 51.0849 120.782 51.0849C118.869 51.0849 117.288 50.7118 115.916 49.9658Z" fill="white"/>
<path d="M138.417 50.837C138.292 50.2981 138.251 49.7179 138.209 49.0547C137.71 49.635 137.128 50.0909 136.337 50.5054C135.589 50.9199 134.715 51.0856 133.717 51.0856C132.927 51.0856 132.22 50.9199 131.596 50.6297C130.972 50.3396 130.431 49.8836 130.057 49.2619C129.683 48.6402 129.475 47.8941 129.475 47.0237C129.475 45.6974 129.932 44.6612 130.889 43.8736C131.846 43.0861 133.426 42.7131 135.63 42.7131C136.462 42.7131 137.294 42.7545 138.084 42.8789V42.6302C138.084 41.4282 137.835 40.5992 137.336 40.1018C136.837 39.6045 136.088 39.3558 135.131 39.3558C134.466 39.3558 133.759 39.4387 133.01 39.6459C132.261 39.8532 131.596 40.0604 131.014 40.3505L130.515 38.1123C131.055 37.8636 131.804 37.615 132.719 37.4077C133.634 37.2005 134.591 37.0761 135.589 37.0761C136.753 37.0761 137.752 37.2419 138.583 37.615C139.415 37.988 140.039 38.5683 140.497 39.4387C140.954 40.3091 141.204 41.4696 141.204 42.9203V48.3086C141.204 48.8889 141.245 49.7179 141.287 50.837H138.417V50.837ZM136.587 48.3086C137.252 48.0185 137.752 47.604 138.168 47.1481V44.6197C137.336 44.5368 136.629 44.4954 136.088 44.4954C134.799 44.4954 133.925 44.7026 133.426 45.1171C132.927 45.5316 132.677 46.0704 132.677 46.775C132.677 47.4382 132.844 47.9356 133.218 48.2672C133.592 48.5987 134.05 48.7645 134.674 48.7645C135.298 48.806 135.922 48.6402 136.587 48.3086Z" fill="white"/>
<path d="M143.658 47.6035V31.6044L146.735 31.3557V47.0647C146.735 47.6449 146.819 48.0594 147.027 48.3081C147.234 48.5568 147.526 48.6811 147.983 48.6811C148.191 48.6811 148.441 48.6397 148.815 48.5568L149.189 50.795C148.898 50.9193 148.524 51.0022 148.108 51.0851C147.692 51.168 147.276 51.2095 146.902 51.2095C144.739 51.0851 143.658 49.9246 143.658 47.6035Z" fill="white"/>
<path d="M151.394 47.6035V31.6044L154.472 31.3557V47.0647C154.472 47.6449 154.555 48.0594 154.763 48.3081C154.971 48.5568 155.262 48.6811 155.719 48.6811C155.927 48.6811 156.177 48.6397 156.551 48.5568L156.925 50.795C156.634 50.9193 156.26 51.0022 155.844 51.0851C155.428 51.168 155.012 51.2095 154.638 51.2095C152.475 51.0851 151.394 49.9246 151.394 47.6035Z" fill="white"/>
<path d="M169.652 44.454H160.752C160.877 47.2725 162.249 48.7232 164.828 48.7232C165.452 48.7232 166.117 48.6403 166.783 48.4745C167.448 48.3087 168.072 48.1015 168.696 47.8528L169.361 49.9666C167.822 50.7127 166.117 51.0857 164.245 51.0857C162.79 51.0857 161.584 50.7956 160.585 50.2568C159.587 49.7179 158.839 48.9304 158.339 47.8942C157.84 46.858 157.591 45.656 157.591 44.2053C157.591 42.7132 157.84 41.4283 158.381 40.3506C158.922 39.273 159.629 38.444 160.585 37.8637C161.542 37.2835 162.623 36.9933 163.871 36.9933C165.161 36.9933 166.242 37.2835 167.074 37.9052C167.947 38.4855 168.571 39.3144 168.987 40.3092C169.403 41.3039 169.611 42.423 169.611 43.625V44.454H169.652ZM166.616 42.5059C166.575 41.4283 166.283 40.5993 165.784 40.0605C165.285 39.5217 164.661 39.2315 163.83 39.2315C163.039 39.2315 162.374 39.5217 161.875 40.0605C161.334 40.5993 161.001 41.4283 160.835 42.4645H166.616V42.5059Z" fill="white"/>
<path d="M171.982 40.6821C171.982 39.9361 171.94 38.817 171.898 37.2834H174.81C174.851 37.6564 174.893 38.1123 174.935 38.6512C174.976 39.19 175.018 39.6045 175.018 39.9361C175.392 39.3558 175.725 38.8584 176.099 38.4439C176.432 38.0294 176.848 37.6978 177.305 37.4492C177.763 37.2005 178.303 37.0761 178.886 37.0761C179.385 37.0761 179.759 37.1176 180.134 37.2419L179.759 39.9361C179.468 39.8532 179.135 39.8117 178.761 39.8117C178.012 39.8117 177.388 39.9775 176.848 40.3505C176.307 40.7236 175.725 41.3453 175.101 42.1743V50.8784H172.023V40.6821H171.982Z" fill="white"/>
<path d="M181.88 56.3905C181.423 56.3076 181.049 56.2247 180.757 56.1004L181.34 53.8622C181.548 53.9036 181.797 53.9865 182.13 54.028C182.463 54.0694 182.754 54.1109 183.045 54.1109C184.417 54.1109 185.457 53.2404 186.123 51.4582L186.331 50.9608L181.34 37.3243H184.667L187.204 44.9508C187.62 46.2357 187.87 47.2719 187.994 47.9351C188.244 46.9403 188.493 45.987 188.826 44.9922L191.363 37.2829H194.483L189.492 51.0022C189.034 52.2871 188.493 53.3648 187.953 54.1523C187.412 54.9398 186.747 55.5201 186.04 55.9346C185.291 56.3076 184.417 56.5149 183.336 56.5149C182.837 56.5149 182.338 56.4734 181.88 56.3905Z" fill="white"/>
<path d="M66.4219 24.2683C65.7148 23.8952 65.2157 23.315 64.8414 22.6103C64.4671 21.9057 64.3007 21.0767 64.3007 20.1234C64.3007 19.1287 64.5087 18.2583 64.883 17.5122C65.2574 16.7661 65.8396 16.1859 66.5467 15.8128C67.2954 15.3983 68.1272 15.1911 69.1254 15.1911C70.082 15.1911 70.8722 15.3983 71.5793 15.7714C72.2448 16.1444 72.7854 16.7247 73.1598 17.4293C73.5341 18.1339 73.7005 18.9629 73.7005 19.8747C73.7005 20.8695 73.4925 21.7399 73.1182 22.486C72.7439 23.2321 72.1616 23.8123 71.4545 24.1854C70.7475 24.5999 69.874 24.8071 68.9174 24.8071C67.9608 24.8485 67.129 24.6413 66.4219 24.2683ZM70.6643 23.1077C71.1218 22.8176 71.4545 22.4031 71.7041 21.8643C71.912 21.3254 72.0368 20.7037 72.0368 20.0405C72.0368 19.3774 71.9536 18.7556 71.7457 18.2583C71.5377 17.7194 71.2465 17.305 70.789 17.0148C70.3315 16.6832 69.7908 16.5589 69.0838 16.5589C68.4183 16.5589 67.8776 16.7247 67.4201 17.0148C66.9626 17.3464 66.6299 17.7609 66.3803 18.2997C66.1308 18.8385 66.0476 19.4188 66.0476 20.082C66.0476 20.7452 66.1724 21.3669 66.3803 21.9057C66.5883 22.4445 66.921 22.859 67.3785 23.1906C67.836 23.5222 68.3767 23.6465 69.0422 23.6465C69.6245 23.5636 70.2068 23.4393 70.6643 23.1077Z" fill="white"/>
<path d="M76.9861 16.683H74.0747L74.1994 15.3152H81.5612L81.3948 16.683H78.6082V24.724H76.9861V16.683Z" fill="white"/>
<path d="M90.2955 24.7242H88.4654L85.6788 20.5794H84.5558V24.7242H82.9337V15.3569H84.5558V19.2116H85.3876L87.3425 16.3931C87.6336 15.9786 87.9247 15.6885 88.2159 15.4812C88.507 15.274 88.8813 15.1911 89.2973 15.1911C89.6716 15.1911 90.0043 15.2325 90.2539 15.3569L89.9211 16.6003C89.7548 16.5174 89.5884 16.476 89.422 16.476C89.2141 16.476 89.0477 16.5174 88.9229 16.6003C88.7982 16.6832 88.6318 16.849 88.507 17.0563L86.8018 19.5017L90.2955 24.7242Z" fill="white"/>
<path d="M91.5433 15.3565H94.0804C95.2865 15.3565 96.2016 15.6052 96.8254 16.1026C97.4493 16.6 97.782 17.3046 97.782 18.2164C97.782 18.8382 97.6573 19.377 97.3661 19.8329C97.075 20.2889 96.7006 20.6619 96.1599 20.9106C95.6608 21.1593 95.0786 21.2836 94.4131 21.2836C94.0388 21.2836 93.6229 21.2422 93.1654 21.1593V24.7238H91.5433V15.3565ZM95.6193 19.5428C95.952 19.2112 96.1184 18.7967 96.1184 18.2164C96.1184 17.6362 95.952 17.2217 95.5777 16.973C95.2449 16.7243 94.7042 16.6 94.0388 16.6H93.1654V19.9158C93.5813 19.9987 93.8724 19.9987 94.0804 19.9987C94.7458 19.9987 95.2865 19.8329 95.6193 19.5428Z" fill="white"/>
<path d="M100.902 24.2683C100.194 23.8952 99.6954 23.315 99.321 22.6103C98.9467 21.9057 98.7803 21.0767 98.7803 20.1234C98.7803 19.1287 98.9883 18.2583 99.3626 17.5122C99.7369 16.7661 100.319 16.1859 101.026 15.8128C101.775 15.3983 102.607 15.1911 103.605 15.1911C104.562 15.1911 105.352 15.3983 106.059 15.7714C106.724 16.1444 107.265 16.7247 107.639 17.4293C108.014 18.1339 108.18 18.9629 108.18 19.8747C108.18 20.8695 107.972 21.7399 107.598 22.486C107.223 23.2321 106.641 23.8123 105.934 24.1854C105.227 24.5999 104.354 24.8071 103.397 24.8071C102.399 24.8485 101.567 24.6413 100.902 24.2683ZM105.102 23.1077C105.56 22.8176 105.893 22.4031 106.142 21.8643C106.35 21.3254 106.475 20.7037 106.475 20.0405C106.475 19.3774 106.392 18.7556 106.184 18.2583C105.976 17.7194 105.685 17.305 105.227 17.0148C104.77 16.6832 104.229 16.5589 103.522 16.5589C102.856 16.5589 102.316 16.7247 101.858 17.0148C101.401 17.3464 101.068 17.7609 100.818 18.2997C100.569 18.8385 100.486 19.4188 100.486 20.082C100.486 20.7452 100.61 21.3669 100.818 21.9057C101.026 22.4445 101.359 22.859 101.817 23.1906C102.274 23.5222 102.815 23.6465 103.48 23.6465C104.104 23.5636 104.645 23.4393 105.102 23.1077Z" fill="white"/>
<path d="M116.415 24.7238V19.5842C116.415 18.921 116.457 18.1749 116.498 17.346L111.757 24.7238H109.969V15.3565H111.466V20.7033C111.466 21.2836 111.466 21.9053 111.424 22.6099L116.083 15.3565H117.954V24.7238H116.415ZM112.755 14.5275C112.422 14.3617 112.131 14.113 111.965 13.8229C111.799 13.5327 111.674 13.2426 111.632 12.911H112.797C112.922 13.6156 113.337 13.9472 114.003 13.9472C114.668 13.9472 115.084 13.6156 115.251 12.911H116.415C116.374 13.2426 116.249 13.5327 116.083 13.8229C115.916 14.113 115.625 14.3202 115.292 14.5275C114.96 14.7347 114.502 14.8176 114.003 14.8176C113.545 14.8176 113.088 14.6933 112.755 14.5275Z" fill="white"/>
<path d="M122.238 16.683H119.327L119.451 15.3152H126.772L126.605 16.683H123.819V24.724H122.196V16.683H122.238Z" fill="white"/>
<path d="M128.144 15.3565H133.676L133.509 16.6829H129.766V19.2527H133.301V20.4961H129.766V23.356H133.717L133.592 24.6824H128.144V15.3565Z" fill="white"/>
<path d="M145.072 20.0816C145.405 20.2889 145.654 20.5375 145.862 20.9106C146.07 21.2422 146.153 21.6567 146.153 22.0711C146.153 22.61 146.028 23.0659 145.779 23.4389C145.529 23.8534 145.113 24.1435 144.614 24.3508C144.115 24.558 143.491 24.6824 142.784 24.6824H139.706V15.3565H142.66C143.658 15.3565 144.406 15.5638 144.905 15.9368C145.405 16.3098 145.654 16.8487 145.654 17.5118C145.654 18.0507 145.488 18.548 145.197 18.9211C144.864 19.2941 144.448 19.5428 143.949 19.7086C144.365 19.75 144.739 19.8744 145.072 20.0816ZM141.329 19.1698H142.327C142.659 19.1698 142.951 19.0869 143.2 18.9625C143.45 18.8382 143.658 18.6309 143.782 18.4237C143.907 18.2164 143.99 17.9678 143.99 17.6776C143.99 17.3046 143.866 17.0144 143.575 16.8072C143.283 16.6 142.909 16.5171 142.368 16.5171H141.287V19.1698H141.329ZM144.032 23.1073C144.365 22.8172 144.531 22.4442 144.531 21.9468C144.531 21.408 144.365 21.0349 143.99 20.7448C143.616 20.4547 143.117 20.3303 142.41 20.3303H141.329V23.4804H142.535C143.2 23.5218 143.699 23.3975 144.032 23.1073Z" fill="white"/>
<path fill-rule="evenodd" clip-rule="evenodd" d="M42.0489 15.398H24.7884C16.6364 15.398 13.6834 18.3823 13.6834 26.4647V43.6658C13.6834 51.7896 16.678 54.7325 24.7884 54.7325H42.0489C50.2009 54.7325 53.1539 51.7482 53.1539 43.6658V26.4647C53.1955 18.3823 50.2009 15.398 42.0489 15.398Z" fill="#C8102E"/>
<path d="M21.5028 35.0867H22.5425V40.2263H21.5028V38.1539H19.132V40.2263H18.0923V35.0867H19.132V37.1591H21.5028V35.0867ZM27.4088 38.0295C27.4088 38.8585 26.9929 39.3144 26.2442 39.3144C25.4956 39.3144 25.0797 38.8585 25.0797 37.9881V35.0867H24.0399V38.0295C24.0399 39.4802 24.8301 40.3092 26.2442 40.3092C27.6583 40.3092 28.4902 39.4802 28.4902 37.9881V35.0867H27.4504V38.0295H27.4088ZM39.512 38.6098L38.3474 35.0867H37.474L36.3094 38.6098L35.1864 35.0867H34.0634L35.8519 40.2263H36.7253L37.8899 36.8275L39.0544 40.2263H39.9279L41.7163 35.0867H40.6349L39.512 38.6098ZM43.6295 38.0295H45.5428V37.0762H43.6295V36.04H46.4162V35.0867H42.6313V40.2263H46.541V39.273H43.6711V38.0295H43.6295ZM47.7471 40.2263H48.7869V35.0867H47.7471V40.2263ZM30.5282 39.1486L30.0707 40.2263H28.9893L31.2352 35.0867H32.1502L34.3962 40.2263H33.3148L32.8573 39.1486H30.5282V39.1486ZM30.9025 38.2368H32.483L31.6927 36.413L30.9025 38.2368Z" fill="white"/>
<path d="M33.4395 28.5375C29.821 28.5375 26.868 25.5947 26.868 21.9887H27.7831C27.7831 25.0973 30.3201 27.6256 33.4395 27.6256C36.5589 27.6256 39.096 25.0973 39.096 21.9887H40.011C40.011 25.5947 37.058 28.5375 33.4395 28.5375Z" fill="white"/>
</svg>
