<svg width="208" height="69" viewBox="0 0 208 69" fill="none" xmlns="http://www.w3.org/2000/svg">
<rect x="0.5" y="0.5" width="207" height="68" rx="9.5" fill="black" stroke="#ABABAB"/>
<path d="M42.2253 33.9976C42.2436 32.5747 42.6216 31.1795 43.324 29.942C44.0264 28.7044 45.0304 27.6646 46.2427 26.9193C45.4726 25.8194 44.4566 24.9143 43.2755 24.2758C42.0944 23.6372 40.7807 23.2829 39.4387 23.2409C36.5759 22.9404 33.8007 24.9539 32.3419 24.9539C30.8548 24.9539 28.6088 23.2708 26.1902 23.3205C24.6258 23.3711 23.1011 23.826 21.7648 24.641C20.4284 25.456 19.326 26.6032 18.5649 27.9709C15.2679 33.6792 17.7271 42.0685 20.8854 46.6826C22.4656 48.9421 24.3123 51.4659 26.7288 51.3764C29.0934 51.2783 29.9765 49.8686 32.8308 49.8686C35.6586 49.8686 36.4872 51.3764 38.9527 51.3195C41.49 51.2783 43.0887 49.05 44.6134 46.7692C45.7487 45.1593 46.6223 43.38 47.2019 41.4972C45.7278 40.8737 44.4698 39.8301 43.5848 38.4964C42.6998 37.1628 42.227 35.5982 42.2253 33.9976Z" fill="white"/>
<path d="M37.5685 20.2063C38.952 18.5455 39.6335 16.4108 39.4685 14.2556C37.3549 14.4776 35.4025 15.4878 34.0003 17.0849C33.3147 17.8651 32.7897 18.7728 32.4551 19.756C32.1206 20.7393 31.9831 21.7789 32.0505 22.8153C33.1077 22.8262 34.1536 22.597 35.1094 22.1451C36.0652 21.6932 36.906 21.0303 37.5685 20.2063Z" fill="white"/>
<path d="M72.1157 45.6564H64.0463L62.1085 51.3784H58.6906L66.3338 30.2086H69.8848L77.528 51.3784H74.0519L72.1157 45.6564ZM64.8821 43.016H71.2784L68.1252 33.7297H68.037L64.8821 43.016Z" fill="white"/>
<path d="M94.0347 43.662C94.0347 48.4584 91.4675 51.5399 87.5935 51.5399C86.6121 51.5913 85.6362 51.3652 84.7773 50.8876C83.9185 50.41 83.2115 49.7003 82.7372 48.8396H82.6639V56.4844H79.4958V35.9439H82.5624V38.5111H82.6207C83.1167 37.6545 83.8357 36.9484 84.7011 36.4679C85.5665 35.9874 86.5459 35.7505 87.5352 35.7824C91.4525 35.7824 94.0347 38.879 94.0347 43.662ZM90.7783 43.662C90.7783 40.5372 89.1634 38.4828 86.6995 38.4828C84.2788 38.4828 82.6507 40.5804 82.6507 43.662C82.6507 46.7719 84.2788 48.8546 86.6995 48.8546C89.1634 48.8546 90.7783 46.8152 90.7783 43.662Z" fill="white"/>
<path d="M111.022 43.662C111.022 48.4583 108.455 51.5399 104.581 51.5399C103.6 51.5912 102.624 51.3652 101.765 50.8876C100.906 50.41 100.199 49.7003 99.725 48.8395H99.6517V56.4844H96.4836V35.9439H99.5501V38.511H99.6084C100.104 37.6545 100.823 36.9484 101.689 36.4679C102.554 35.9874 103.534 35.7505 104.523 35.7824C108.44 35.7824 111.022 38.879 111.022 43.662ZM107.766 43.662C107.766 40.5371 106.151 38.4827 103.687 38.4827C101.267 38.4827 99.6384 40.5804 99.6384 43.662C99.6384 46.7719 101.267 48.8546 103.687 48.8546C106.151 48.8546 107.766 46.8152 107.766 43.662Z" fill="white"/>
<path d="M122.25 45.48C122.485 47.5793 124.524 48.9577 127.311 48.9577C129.981 48.9577 131.903 47.5792 131.903 45.6863C131.903 44.0431 130.744 43.0593 128 42.385L125.257 41.724C121.369 40.7851 119.565 38.9671 119.565 36.0171C119.565 32.3644 122.748 29.8556 127.268 29.8556C131.741 29.8556 134.808 32.3644 134.911 36.0171H131.713C131.521 33.9044 129.775 32.6292 127.223 32.6292C124.671 32.6292 122.924 33.9194 122.924 35.7973C122.924 37.294 124.04 38.1747 126.768 38.8488L129.101 39.4215C133.444 40.4487 135.249 42.1935 135.249 45.29C135.249 49.2506 132.094 51.7312 127.076 51.7312C122.381 51.7312 119.212 49.3089 119.007 45.4798L122.25 45.48Z" fill="white"/>
<path d="M142.086 32.2913V35.9439H145.021V38.4528H142.086V46.9617C142.086 48.2835 142.674 48.8995 143.964 48.8995C144.313 48.8934 144.66 48.869 145.006 48.8262V51.3201C144.426 51.4285 143.837 51.4776 143.247 51.4666C140.122 51.4666 138.903 50.2929 138.903 47.2996V38.4528H136.659V35.9439H138.903V32.2913H142.086Z" fill="white"/>
<path d="M146.721 43.662C146.721 38.8057 149.581 35.7541 154.041 35.7541C158.516 35.7541 161.363 38.8057 161.363 43.662C161.363 48.5316 158.531 51.5699 154.041 51.5699C149.553 51.5699 146.721 48.5316 146.721 43.662ZM158.135 43.662C158.135 40.3307 156.609 38.3646 154.041 38.3646C151.474 38.3646 149.949 40.3457 149.949 43.662C149.949 47.0066 151.474 48.9578 154.041 48.9578C156.609 48.9578 158.135 47.0066 158.135 43.662Z" fill="white"/>
<path d="M163.975 35.9439H166.997V38.571H167.07C167.275 37.7505 167.755 37.0254 168.431 36.5176C169.108 36.0097 169.938 35.7501 170.783 35.7824C171.148 35.7811 171.512 35.8208 171.868 35.9006V38.864C171.407 38.7231 170.927 38.6585 170.445 38.6725C169.985 38.6539 169.526 38.735 169.1 38.9104C168.674 39.0858 168.291 39.3513 167.977 39.6887C167.664 40.026 167.427 40.4273 167.283 40.8648C167.139 41.3024 167.091 41.7659 167.143 42.2236V51.3784H163.975L163.975 35.9439Z" fill="white"/>
<path d="M186.475 46.8451C186.049 49.647 183.32 51.5699 179.829 51.5699C175.339 51.5699 172.552 48.5615 172.552 43.7352C172.552 38.894 175.354 35.7541 179.696 35.7541C183.966 35.7541 186.652 38.6875 186.652 43.3673V44.4528H175.751V44.6442C175.7 45.2123 175.771 45.7845 175.959 46.3229C176.147 46.8614 176.447 47.3537 176.84 47.7672C177.233 48.1807 177.709 48.5059 178.237 48.7212C178.765 48.9365 179.333 49.037 179.903 49.016C180.651 49.0862 181.403 48.9128 182.045 48.5216C182.687 48.1305 183.186 47.5425 183.467 46.8451L186.475 46.8451ZM175.766 42.2386H183.482C183.51 41.7278 183.433 41.2167 183.255 40.7373C183.076 40.2579 182.8 39.8206 182.445 39.4528C182.089 39.0849 181.662 38.7945 181.189 38.5998C180.716 38.4051 180.208 38.3103 179.696 38.3213C179.18 38.3182 178.669 38.4173 178.191 38.6129C177.714 38.8085 177.28 39.0968 176.915 39.4609C176.549 39.8251 176.26 40.2581 176.062 40.7348C175.865 41.2116 175.764 41.7227 175.766 42.2386Z" fill="white"/>
<path d="M62.6305 18.574H63.9906C64.2247 18.6032 64.4624 18.5835 64.6886 18.5163C64.9147 18.449 65.1245 18.3357 65.3047 18.1833C65.4849 18.031 65.6316 17.843 65.7355 17.6311C65.8394 17.4193 65.8983 17.1882 65.9085 16.9525C65.9085 16.0144 65.2026 15.4084 64.0056 15.4084C63.7657 15.3749 63.5215 15.3898 63.2875 15.4522C63.0535 15.5146 62.8343 15.6232 62.643 15.7718C62.4516 15.9203 62.292 16.1056 62.1734 16.3168C62.0549 16.5281 61.9799 16.7609 61.9529 17.0016H60.4595C60.4852 16.5647 60.6006 16.1377 60.7984 15.7473C60.9963 15.3569 61.2724 15.0114 61.6096 14.7323C61.9468 14.4532 62.3378 14.2466 62.7583 14.1251C63.1788 14.0037 63.6198 13.9702 64.0538 14.0266C66.0566 14.0266 67.4668 15.1478 67.4668 16.7619C67.4715 17.3026 67.2906 17.8286 66.9543 18.252C66.6179 18.6754 66.1466 18.9707 65.6188 19.0885V19.2083C66.2445 19.2361 66.8337 19.5104 67.2576 19.9713C67.6816 20.4323 67.9058 21.0423 67.8813 21.6681C67.835 22.118 67.6994 22.5541 67.4823 22.9509C67.2653 23.3476 66.9713 23.6971 66.6174 23.9787C66.2636 24.2604 65.8571 24.4686 65.4217 24.5911C64.9864 24.7136 64.531 24.748 64.0822 24.6922C63.6324 24.7536 63.175 24.7237 62.737 24.6044C62.2991 24.4852 61.8896 24.2789 61.5331 23.9981C61.1765 23.7172 60.8802 23.3674 60.6617 22.9695C60.4432 22.5716 60.3071 22.1339 60.2614 21.6823H61.7781C61.8696 22.6553 62.7637 23.283 64.0822 23.283C65.4007 23.283 66.2614 22.578 66.2614 21.5841C66.2614 20.5761 65.4507 19.9551 64.0339 19.9551H62.6305V18.574Z" fill="white"/>
<path d="M69.6044 22.2749C69.6044 20.8931 70.6349 20.0965 72.4595 19.9833L74.5389 19.8634V19.2008C74.5389 18.3901 74.0045 17.9323 72.9673 17.9323C72.1216 17.9323 71.5372 18.2427 71.3674 18.7855H69.9007C70.0555 17.4669 71.2975 16.6212 73.0389 16.6212C74.9634 16.6212 76.0489 17.5793 76.0489 19.2008V24.4458H74.5888V23.3671H74.469C74.2257 23.754 73.884 24.0695 73.4789 24.2812C73.0738 24.493 72.6198 24.5934 72.1632 24.5723C71.8409 24.6058 71.5152 24.5715 71.2071 24.4714C70.8989 24.3713 70.6152 24.2078 70.3741 23.9913C70.133 23.7749 69.9399 23.5103 69.8074 23.2147C69.6748 22.9191 69.6056 22.5989 69.6044 22.2749ZM74.5389 21.619V20.9772L72.6642 21.0971C71.6071 21.1678 71.1276 21.5274 71.1276 22.2042C71.1276 22.8951 71.7269 23.2971 72.5511 23.2971C72.7926 23.3216 73.0365 23.2972 73.2684 23.2254C73.5002 23.1537 73.7153 23.036 73.9007 22.8795C74.0862 22.7229 74.2383 22.5306 74.3479 22.3141C74.4575 22.0975 74.5225 21.8611 74.5389 21.619Z" fill="white"/>
<path d="M80.0694 18.0446V24.4458H78.5544V16.7694H83.6089V18.0445L80.0694 18.0446Z" fill="white"/>
<path d="M92.7903 20.6043C92.7903 23.0433 91.5567 24.5724 89.6188 24.5724C89.1431 24.6049 88.668 24.5008 88.2495 24.2724C87.831 24.0439 87.4864 23.7007 87.2564 23.283H87.1366V26.9981H85.6216V16.7694H87.08V18.0381H87.1932C87.4273 17.6058 87.7763 17.2467 88.2018 17.0003C88.6272 16.754 89.1124 16.63 89.6038 16.6421C91.5566 16.6421 92.7903 18.1645 92.7903 20.6043ZM91.232 20.6043C91.232 18.9828 90.4645 18.003 89.181 18.003C87.9058 18.003 87.1083 19.0036 87.1083 20.611C87.1083 22.2109 87.9057 23.2123 89.1743 23.2123C90.4645 23.2122 91.232 22.2325 91.232 20.6043Z" fill="white"/>
<path d="M94.808 27.1953V25.8909C94.972 25.9117 95.1372 25.9212 95.3024 25.9192C95.6252 25.9431 95.9454 25.847 96.2017 25.6493C96.4579 25.4516 96.6321 25.1662 96.6909 24.8479L96.8041 24.4741L94.0255 16.7694H95.6753L97.5999 22.8668H97.7198L99.6377 16.7694H101.244L98.3824 24.763C97.7265 26.6309 97.0006 27.2303 95.4357 27.2303C95.3091 27.2303 94.9495 27.2161 94.808 27.1953Z" fill="white"/>
<path d="M102.425 22.2674H103.933C104.081 22.9442 104.715 23.2971 105.603 23.2971C106.612 23.2971 107.231 22.8526 107.231 22.1617C107.231 21.4217 106.675 21.0688 105.603 21.0688H104.454V19.8918H105.583C106.498 19.8918 106.965 19.5397 106.965 18.8979C106.965 18.3343 106.513 17.904 105.583 17.904C104.735 17.904 104.116 18.2636 104.018 18.8696H102.558C102.667 18.1733 103.045 17.5476 103.611 17.1271C104.176 16.7067 104.884 16.525 105.583 16.6213C107.407 16.6213 108.451 17.4462 108.451 18.7431C108.46 19.1042 108.344 19.4574 108.123 19.7434C107.903 20.0295 107.591 20.2311 107.239 20.3147V20.4345C107.658 20.4885 108.042 20.6942 108.318 21.0126C108.595 21.331 108.746 21.7399 108.741 22.1618C108.741 23.6211 107.499 24.5866 105.603 24.5866C103.926 24.5865 102.564 23.8182 102.425 22.2674Z" fill="white"/>
<path d="M110.923 24.4458V16.7694H112.424V22.0494H112.544L116.082 16.7694H117.584V24.4459H116.082V19.1376H115.969L112.424 24.4459L110.923 24.4458Z" fill="white"/>
<path d="M125.856 18.0446H123.439V24.4459H121.922V18.0446H119.505V16.7695H125.856V18.0446Z" fill="white"/>
<path d="M134.017 22.3731C133.811 23.0747 133.364 23.6814 132.756 24.0873C132.148 24.4933 131.416 24.6726 130.689 24.594C130.183 24.6074 129.681 24.5105 129.216 24.3101C128.752 24.1098 128.336 23.8107 127.999 23.4337C127.661 23.0567 127.41 22.6108 127.262 22.127C127.114 21.6431 127.074 21.1329 127.143 20.6317C127.076 20.129 127.117 19.6177 127.264 19.1324C127.412 18.6471 127.662 18.1991 127.998 17.8189C128.333 17.4386 128.747 17.1348 129.21 16.9282C129.673 16.7216 130.175 16.6169 130.682 16.6212C132.818 16.6212 134.109 18.0805 134.109 20.491V21.0197H128.688V21.1046C128.664 21.3863 128.699 21.67 128.791 21.9374C128.883 22.2047 129.031 22.4498 129.223 22.6569C129.416 22.864 129.649 23.0286 129.909 23.14C130.169 23.2514 130.45 23.3071 130.732 23.3037C131.094 23.347 131.461 23.2817 131.786 23.116C132.111 22.9502 132.379 22.6917 132.557 22.3731L134.017 22.3731ZM128.688 19.8992H132.564C132.583 19.6417 132.548 19.3831 132.461 19.1398C132.374 18.8966 132.238 18.6743 132.06 18.487C131.882 18.2997 131.667 18.1517 131.429 18.0524C131.19 17.9532 130.934 17.9049 130.676 17.9106C130.414 17.907 130.153 17.9561 129.911 18.0547C129.668 18.1534 129.447 18.2998 129.262 18.4852C129.077 18.6706 128.93 18.8912 128.832 19.1341C128.733 19.377 128.684 19.6371 128.688 19.8992Z" fill="white"/>
<path d="M140.44 16.7694H143.901C145.403 16.7694 146.283 17.5302 146.283 18.7213C146.286 19.0993 146.158 19.4666 145.922 19.7618C145.686 20.0569 145.356 20.2621 144.986 20.3429V20.4627C145.435 20.4911 145.855 20.6905 146.161 21.0198C146.466 21.3492 146.633 21.7833 146.628 22.2324C146.628 23.5718 145.621 24.4458 143.936 24.4458H140.44V16.7694ZM141.941 17.9323V19.92H143.443C144.359 19.92 144.797 19.5679 144.797 18.9186C144.797 18.3201 144.415 17.9322 143.611 17.9322L141.941 17.9323ZM141.941 21.0338V23.283H143.738C144.634 23.283 145.113 22.8876 145.113 22.1617C145.113 21.3934 144.57 21.0338 143.548 21.0338L141.941 21.0338Z" fill="white"/>
</svg>
