<svg width="208" height="69" viewBox="0 0 208 69" fill="none" xmlns="http://www.w3.org/2000/svg">
<rect x="0.5" y="0.5" width="207" height="68" rx="9.5" fill="black" stroke="#ABABAB"/>
<path d="M46.0417 42.8889L49.8024 43.8284C51.505 44.2536 53.1556 42.9726 53.1556 41.2258V23.1081C53.1556 21.5702 52.1045 20.2294 50.6055 19.8549L39.8239 17.1616C38.1213 16.7363 36.4707 18.0174 36.4707 19.7641V23.0302L29.6775 21.3332C27.9749 20.9079 26.3243 22.189 26.3243 23.9357V27.2018L19.5308 25.5047C17.8282 25.0795 16.1777 26.3605 16.1777 28.1073V46.225C16.1777 47.7628 17.2287 49.1037 18.7276 49.4781L29.5094 52.1715C31.212 52.5967 32.8624 51.3157 32.8624 49.5689L32.8654 31.4755C32.8654 29.9471 31.8977 29.0631 31.5469 28.7916C31.4799 28.7398 31.4614 28.6432 31.5095 28.5734C31.5566 28.5048 31.6419 28.4724 31.7216 28.4965C33.142 28.9254 34.5014 30.3819 34.6371 32.2132L35.1062 46.0496C35.1217 46.5039 35.4155 46.898 35.8384 47.0464L39.6561 47.9999C41.3585 48.4254 43.0091 47.1441 43.0091 45.3974L43.0119 27.3081C43.0119 25.7795 42.0465 24.8934 41.6957 24.6219C41.6287 24.5701 41.6102 24.4735 41.6582 24.4037C41.7054 24.3351 41.7907 24.3027 41.8704 24.3267C43.2908 24.7557 44.6502 26.2122 44.7859 28.0435L45.255 41.8789C45.271 42.3518 45.5901 42.7586 46.0417 42.8889Z" fill="white"/>
<path d="M90.428 56.6222H86.5546L80.4084 48.0432H77.1754V56.6222H73.8781V34.0545H81.817C83.3535 34.0545 84.73 34.3533 85.9463 34.9507C87.1629 35.5484 88.1019 36.3806 88.7633 37.4476C89.4462 38.4934 89.7876 39.6991 89.7876 41.0648C89.7876 42.7722 89.2648 44.234 88.2191 45.4503C87.1735 46.6454 85.7757 47.4351 84.0258 47.8192L90.428 56.6222ZM77.1754 37.0954V45.0343H81.817C83.1827 45.0343 84.2818 44.6715 85.1141 43.9458C85.9678 43.1988 86.3944 42.2386 86.3944 41.0648C86.3944 39.8912 85.9678 38.9415 85.1141 38.2158C84.2818 37.4689 83.1827 37.0954 81.817 37.0954H77.1754ZM99.1767 56.9423C98.0029 56.9423 96.9465 56.6544 96.0075 56.078C95.0685 55.4805 94.3324 54.6696 93.7988 53.6453C93.2654 52.5995 92.9987 51.4257 92.9987 50.1241V40.0726H96.1355V49.868C96.1355 51.1271 96.4877 52.1514 97.1919 52.9409C97.8961 53.7306 98.8032 54.1253 99.913 54.1253C101.065 54.1253 102.026 53.7199 102.794 52.909C103.562 52.098 103.946 51.0843 103.946 49.868V40.0726H107.083V56.6222H104.843L104.106 54.1253C103.573 55.0218 102.869 55.7154 101.994 56.206C101.14 56.6969 100.201 56.9423 99.1767 56.9423ZM118.778 56.9423C116.708 56.9423 114.905 56.4089 113.368 55.3419C111.853 54.2533 110.818 52.7809 110.263 50.9242L113.432 50.412C114.051 51.6071 114.788 52.4927 115.641 53.0689C116.495 53.6238 117.54 53.9014 118.778 53.9014C120.037 53.9014 121.062 53.6238 121.851 53.0689C122.641 52.4927 123.036 51.7139 123.036 50.7321C123.036 50.0067 122.812 49.3984 122.363 48.9075C121.937 48.4166 121.393 48.0219 120.731 47.7231C120.069 47.4245 119.205 47.0935 118.138 46.7309C116.708 46.2613 115.535 45.7919 114.617 45.3223C113.699 44.8529 112.92 44.1912 112.28 43.3377C111.661 42.4627 111.352 41.353 111.352 40.0086C111.352 38.7495 111.661 37.6503 112.28 36.7113C112.92 35.751 113.795 35.0147 114.905 34.5026C116.015 33.9904 117.252 33.7344 118.618 33.7344C120.518 33.7344 122.15 34.2359 123.516 35.2389C124.882 36.2204 125.853 37.5757 126.429 39.3042L123.324 39.8165C122.897 38.8348 122.289 38.0878 121.499 37.5757C120.71 37.042 119.781 36.7753 118.714 36.7753C117.562 36.7753 116.612 37.0529 115.865 37.6076C115.118 38.1412 114.745 38.8775 114.745 39.8165C114.745 40.5207 114.958 41.1181 115.385 41.609C115.833 42.0999 116.377 42.4946 117.018 42.7935C117.679 43.0923 118.554 43.4336 119.643 43.8178C121.03 44.2874 122.182 44.7674 123.1 45.2583C124.039 45.7279 124.828 46.4 125.469 47.2749C126.109 48.1499 126.429 49.2491 126.429 50.5722C126.429 51.8526 126.087 52.973 125.405 53.9333C124.743 54.8935 123.825 55.6405 122.652 56.1741C121.499 56.6863 120.208 56.9423 118.778 56.9423ZM139.68 53.8692L139.392 56.6222H136.479C134.75 56.6222 133.438 56.1954 132.542 55.3419C131.645 54.4882 131.197 53.2612 131.197 51.6605V42.8575H128.348V40.0726H131.197L132.062 35.2708H134.334V40.0726H139.392V42.8575H134.334V51.6605C134.334 53.1329 135.049 53.8692 136.479 53.8692H139.68ZM150.142 56.9423C148.456 56.9423 146.951 56.5795 145.628 55.854C144.305 55.1283 143.27 54.1147 142.523 52.8128C141.776 51.5112 141.403 50.0279 141.403 48.3635C141.403 46.6988 141.776 45.2155 142.523 43.9139C143.27 42.612 144.305 41.5984 145.628 40.8727C146.951 40.1258 148.456 39.7525 150.142 39.7525C151.828 39.7525 153.332 40.1258 154.655 40.8727C155.979 41.5984 157.013 42.612 157.76 43.9139C158.507 45.2155 158.881 46.6988 158.881 48.3635C158.881 50.0279 158.507 51.5112 157.76 52.8128C157.013 54.1147 155.979 55.1283 154.655 55.854C153.332 56.5795 151.828 56.9423 150.142 56.9423ZM150.142 54.0613C151.764 54.0613 153.076 53.5385 154.079 52.4927C155.104 51.4472 155.616 50.0707 155.616 48.3635C155.616 46.656 155.104 45.2795 154.079 44.234C153.076 43.1669 151.764 42.6333 150.142 42.6333C148.52 42.6333 147.207 43.1669 146.204 44.234C145.201 45.2795 144.7 46.656 144.7 48.3635C144.7 50.0492 145.201 51.4257 146.204 52.4927C147.207 53.5385 148.52 54.0613 150.142 54.0613ZM162.245 56.6222V40.0726H164.518L165.19 42.4413C165.681 41.609 166.289 41.0116 167.015 40.6488C167.74 40.2647 168.605 40.0726 169.608 40.0726H170.376L170.632 43.0817H168.839C167.687 43.0817 166.822 43.4124 166.246 44.0738C165.67 44.7355 165.382 45.6317 165.382 46.7628V56.6222H162.245ZM188.567 48.2354C188.567 48.6621 188.556 48.993 188.535 49.2276H174.866C175.037 50.7002 175.613 51.8738 176.594 52.7488C177.576 53.6238 178.825 54.0613 180.34 54.0613C181.385 54.0613 182.314 53.8586 183.125 53.4532C183.957 53.0264 184.587 52.4715 185.013 51.7885L187.958 52.2688C187.318 53.7625 186.283 54.915 184.853 55.726C183.445 56.537 181.876 56.9423 180.148 56.9423C178.504 56.9423 177.032 56.5795 175.73 55.854C174.428 55.1071 173.415 54.0828 172.689 52.7809C171.964 51.4791 171.601 50.0067 171.601 48.3635C171.601 46.6988 171.964 45.2155 172.689 43.9139C173.415 42.612 174.418 41.5984 175.698 40.8727C176.979 40.1258 178.44 39.7525 180.084 39.7525C181.706 39.7525 183.157 40.1258 184.437 40.8727C185.739 41.5984 186.753 42.612 187.478 43.9139C188.204 45.1942 188.567 46.6348 188.567 48.2354ZM180.084 42.5374C178.825 42.5374 177.736 42.9109 176.819 43.6578C175.922 44.4048 175.325 45.4078 175.026 46.6669H185.141C184.864 45.4291 184.267 44.4367 183.349 43.6897C182.453 42.9215 181.364 42.5374 180.084 42.5374Z" fill="white"/>
<path d="M73.8291 27.3887V23.3094H74.0979C74.4467 23.3094 74.7256 23.2246 74.9348 23.0552C75.1439 22.8859 75.3184 22.5472 75.4578 22.0391C75.6073 21.5211 75.7219 20.759 75.8014 19.7528L76.2348 14.194H82.8695V23.3094H84.4087V27.3887H82.8695V24.7289H75.3681V27.3887H73.8291ZM81.3305 23.3094V15.6136H77.6545L77.3406 19.8275C77.2212 21.5111 76.9124 22.6717 76.4141 23.3094H81.3305ZM89.3016 24.8784C88.5144 24.8784 87.812 24.709 87.1945 24.3702C86.5768 24.0316 86.0937 23.5583 85.745 22.9506C85.3962 22.343 85.222 21.6506 85.222 20.8735C85.222 20.0965 85.3962 19.4041 85.745 18.7965C86.0937 18.1888 86.5768 17.7156 87.1945 17.3769C87.812 17.0282 88.5144 16.8539 89.3016 16.8539C90.0885 16.8539 90.7908 17.0282 91.4084 17.3769C92.0261 17.7156 92.5092 18.1888 92.8579 18.7965C93.2066 19.4041 93.3809 20.0965 93.3809 20.8735C93.3809 21.6506 93.2066 22.343 92.8579 22.9506C92.5092 23.5583 92.0261 24.0316 91.4084 24.3702C90.7908 24.709 90.0885 24.8784 89.3016 24.8784ZM89.3016 23.5333C90.0587 23.5333 90.6711 23.2893 91.1394 22.8012C91.6175 22.3131 91.8567 21.6705 91.8567 20.8735C91.8567 20.0766 91.6175 19.434 91.1394 18.9459C90.6711 18.4478 90.0587 18.1987 89.3016 18.1987C88.5444 18.1987 87.9318 18.4478 87.4635 18.9459C86.9953 19.434 86.7612 20.0766 86.7612 20.8735C86.7612 21.6606 86.9953 22.3031 87.4635 22.8012C87.9318 23.2893 88.5444 23.5333 89.3016 23.5333ZM98.5079 24.8784C97.7408 24.8784 97.0484 24.709 96.4306 24.3702C95.823 24.0217 95.3497 23.5433 95.0112 22.9357C94.6723 22.328 94.5029 21.6406 94.5029 20.8735C94.5029 20.0965 94.6723 19.4041 95.0112 18.7965C95.3497 18.1888 95.823 17.7156 96.4306 17.3769C97.0385 17.0282 97.7306 16.8539 98.5079 16.8539C99.3346 16.8539 100.072 17.0531 100.719 17.4516C101.377 17.8501 101.845 18.4229 102.124 19.1701L100.749 19.3942C100.57 19.0355 100.286 18.7467 99.8975 18.5275C99.519 18.3083 99.0856 18.1987 98.5975 18.1987C97.8404 18.1987 97.2227 18.4478 96.7445 18.9459C96.2763 19.444 96.0421 20.0865 96.0421 20.8735C96.0421 21.6606 96.2763 22.3031 96.7445 22.8012C97.2227 23.2893 97.8404 23.5333 98.5975 23.5333C99.1055 23.5333 99.5539 23.4189 99.9424 23.1897C100.341 22.9606 100.63 22.6568 100.809 22.2782L102.184 22.5024C101.905 23.2595 101.427 23.8472 100.749 24.2657C100.082 24.6741 99.3346 24.8784 98.5079 24.8784ZM106.705 24.7289H105.241V18.3482H102.566V17.0033H109.38V18.3482H106.705V24.7289ZM116.298 17.0033H117.807L114.58 25.8944C114.341 26.5618 114.027 27.0451 113.638 27.3439C113.25 27.6427 112.732 27.7923 112.084 27.7923H110.934L110.799 26.4474H112.174C112.463 26.4474 112.687 26.3825 112.846 26.2531C113.006 26.1336 113.14 25.9193 113.25 25.6106L113.414 25.1622L109.977 17.0033H111.546L113.997 22.9656H114.206L116.298 17.0033ZM120.596 24.7289H119.132V17.0033H125.707V24.7289H124.242V18.3482H120.596V24.7289ZM132.912 20.1563V17.0033H134.377V24.7289H132.912V21.5012H129.191V24.7289H127.727V17.0033H129.191V20.1563H132.912ZM140.026 24.8784C139.239 24.8784 138.537 24.709 137.919 24.3702C137.302 24.0316 136.818 23.5583 136.47 22.9506C136.121 22.343 135.947 21.6506 135.947 20.8735C135.947 20.0965 136.121 19.4041 136.47 18.7965C136.818 18.1888 137.302 17.7156 137.919 17.3769C138.537 17.0282 139.239 16.8539 140.026 16.8539C140.813 16.8539 141.516 17.0282 142.133 17.3769C142.751 17.7156 143.234 18.1888 143.583 18.7965C143.931 19.4041 144.106 20.0965 144.106 20.8735C144.106 21.6506 143.931 22.343 143.583 22.9506C143.234 23.5583 142.751 24.0316 142.133 24.3702C141.516 24.709 140.813 24.8784 140.026 24.8784ZM140.026 23.5333C140.783 23.5333 141.396 23.2893 141.864 22.8012C142.342 22.3131 142.581 21.6705 142.581 20.8735C142.581 20.0766 142.342 19.434 141.864 18.9459C141.396 18.4478 140.783 18.1987 140.026 18.1987C139.269 18.1987 138.656 18.4478 138.188 18.9459C137.72 19.434 137.486 20.0766 137.486 20.8735C137.486 21.6606 137.72 22.3031 138.188 22.8012C138.656 23.2893 139.269 23.5333 140.026 23.5333ZM154.391 20.6793C154.79 20.8287 155.109 21.0728 155.348 21.4115C155.597 21.7403 155.722 22.1288 155.722 22.5771C155.722 22.9855 155.602 23.354 155.363 23.6829C155.134 24.0115 154.81 24.2706 154.391 24.4599C153.973 24.6392 153.495 24.7289 152.957 24.7289H149.266V17.0033H152.822C153.33 17.0033 153.784 17.0929 154.182 17.2723C154.581 17.4516 154.89 17.6957 155.109 18.0045C155.338 18.3133 155.452 18.667 155.452 19.0655C155.452 19.444 155.358 19.7727 155.168 20.0517C154.989 20.3207 154.73 20.5299 154.391 20.6793ZM150.73 18.2436V20.1413H152.822C153.161 20.1413 153.44 20.0567 153.659 19.8873C153.878 19.708 153.988 19.4789 153.988 19.1999C153.988 18.921 153.878 18.6919 153.659 18.5125C153.44 18.3332 153.161 18.2436 152.822 18.2436H150.73ZM152.957 23.4885C153.345 23.4885 153.659 23.3889 153.898 23.1897C154.137 22.9905 154.257 22.7315 154.257 22.4127C154.257 22.0939 154.137 21.8349 153.898 21.6357C153.659 21.4364 153.345 21.3368 152.957 21.3368H150.73V23.4885H152.957Z" fill="white"/>
</svg>
