<svg width="208" height="69" viewBox="0 0 208 69" fill="none" xmlns="http://www.w3.org/2000/svg">
<rect x="0.5" y="0.5" width="207" height="68" rx="9.5" fill="black" stroke="#ABABAB"/>
<path d="M104.986 37.5111C103.688 37.5142 102.42 37.9021 101.342 38.6258C100.265 39.3496 99.4257 40.3766 98.9317 41.5771C98.4377 42.7776 98.3109 44.0976 98.5671 45.3703C98.8233 46.6429 99.4512 47.8109 100.371 48.7267C101.291 49.6424 102.462 50.2648 103.736 50.5151C105.01 50.7653 106.329 50.6323 107.527 50.1327C108.726 49.6331 109.749 48.7894 110.467 47.7084C111.186 46.6273 111.568 45.3574 111.565 44.0593C111.578 43.1933 111.416 42.3336 111.089 41.5314C110.763 40.7293 110.278 40.001 109.664 39.3901C109.05 38.7791 108.32 38.2979 107.516 37.9751C106.712 37.6523 105.852 37.4945 104.986 37.5111V37.5111ZM104.986 48.0344C104.19 48.09 103.396 47.905 102.707 47.5034C102.018 47.1018 101.466 46.5022 101.122 45.7825C100.778 45.0628 100.659 44.2563 100.779 43.4679C100.9 42.6794 101.255 41.9455 101.798 41.3615C102.342 40.7775 103.048 40.3704 103.826 40.1932C104.603 40.016 105.416 40.0768 106.159 40.3678C106.902 40.6587 107.539 41.1664 107.99 41.8247C108.44 42.4831 108.682 43.2617 108.684 44.0593C108.709 44.5647 108.632 45.0699 108.459 45.5452C108.285 46.0205 108.018 46.4562 107.673 46.8267C107.329 47.1972 106.913 47.4949 106.452 47.7023C105.99 47.9097 105.492 48.0226 104.986 48.0344ZM90.6264 37.5111C89.3282 37.5142 88.0601 37.9021 86.9825 38.6258C85.9048 39.3496 85.0659 40.3766 84.572 41.5771C84.078 42.7776 83.9512 44.0976 84.2074 45.3703C84.4636 46.6429 85.0915 47.8109 86.0116 48.7267C86.9317 49.6424 88.1026 50.2648 89.3764 50.5151C90.6502 50.7653 91.9696 50.6323 93.1678 50.1327C94.366 49.6331 95.3891 48.7894 96.1077 47.7084C96.8264 46.6273 97.2084 45.3574 97.2053 44.0593C97.2179 43.1933 97.0561 42.3336 96.7295 41.5314C96.403 40.7293 95.9183 40.001 95.3045 39.3901C94.6906 38.7791 93.9601 38.2979 93.1564 37.9751C92.3527 37.6523 91.4923 37.4945 90.6264 37.5111V37.5111ZM90.6264 48.0344C89.8307 48.09 89.0367 47.905 88.3476 47.5034C87.6584 47.1018 87.1061 46.5022 86.7622 45.7825C86.4184 45.0628 86.299 44.2563 86.4197 43.4679C86.5403 42.6794 86.8953 41.9455 87.4385 41.3615C87.9818 40.7775 88.6882 40.3704 89.4659 40.1932C90.2435 40.016 91.0565 40.0768 91.7992 40.3678C92.5418 40.6587 93.1798 41.1664 93.6301 41.8247C94.0804 42.4831 94.3222 43.2617 94.3242 44.0593C94.349 44.5647 94.2723 45.0699 94.0988 45.5452C93.9252 46.0205 93.6583 46.4562 93.3136 46.8267C92.969 47.1972 92.5537 47.4949 92.0922 47.7023C91.6306 47.9097 91.1322 48.0226 90.6264 48.0344ZM73.555 39.5295V42.3028H80.211C80.1066 43.6091 79.5636 44.8416 78.6702 45.8003C78.0026 46.4806 77.1995 47.0131 76.3131 47.3634C75.4266 47.7138 74.4765 47.8741 73.5242 47.8341C71.5627 47.8341 69.6816 47.0549 68.2947 45.668C66.9078 44.281 66.1286 42.4 66.1286 40.4385C66.1286 38.4771 66.9078 36.596 68.2947 35.2091C69.6816 33.8221 71.5627 33.043 73.5242 33.043C75.4046 33.015 77.2202 33.7291 78.5778 35.0305L80.5345 33.0738C79.6162 32.1655 78.5259 31.4497 77.3274 30.9682C76.1289 30.4867 74.8464 30.2492 73.555 30.2696C72.1853 30.2163 70.8189 30.4401 69.5377 30.9275C68.2565 31.4149 67.0869 32.1559 66.099 33.1062C65.111 34.0564 64.3251 35.1963 63.7882 36.4576C63.2513 37.7188 62.9746 39.0755 62.9746 40.4462C62.9746 41.817 63.2513 43.1736 63.7882 44.4349C64.3251 45.6962 65.111 46.8361 66.099 47.7863C67.0869 48.7365 68.2565 49.4776 69.5377 49.965C70.8189 50.4524 72.1853 50.6761 73.555 50.6228C74.873 50.6755 76.1872 50.4487 77.4113 49.9575C78.6354 49.4662 79.7418 48.7216 80.6578 47.7725C82.2757 45.9951 83.1379 43.6574 83.0613 41.2551C83.0669 40.6769 83.0204 40.0994 82.9227 39.5295H73.555ZM143.366 41.6865C142.964 40.5044 142.213 39.4722 141.211 38.7265C140.21 37.9809 139.005 37.5571 137.758 37.5111C136.915 37.5095 136.081 37.6807 135.307 38.0142C134.533 38.3477 133.835 38.8365 133.258 39.4502C132.68 40.0639 132.234 40.7896 131.948 41.5823C131.662 42.3751 131.542 43.2181 131.595 44.0593C131.582 45.4657 132.024 46.8387 132.855 47.9732C133.687 49.1076 134.863 49.9426 136.208 50.3534C137.553 50.7643 138.995 50.7289 140.319 50.2526C141.642 49.7763 142.776 48.8847 143.551 47.7108L141.317 46.1701C140.984 46.7252 140.511 47.1836 139.946 47.4998C139.382 47.816 138.744 47.979 138.097 47.9727C137.429 48.0003 136.768 47.8252 136.202 47.4705C135.635 47.1158 135.189 46.598 134.923 45.9852L143.689 42.3645L143.366 41.6865ZM134.43 43.8744C134.398 43.3958 134.463 42.9158 134.62 42.4625C134.776 42.0091 135.022 41.5916 135.342 41.2344C135.662 40.8771 136.05 40.5872 136.483 40.3818C136.916 40.1764 137.386 40.0595 137.866 40.0379C138.362 40.0076 138.856 40.1245 139.287 40.3739C139.717 40.6233 140.064 40.9942 140.284 41.44L134.43 43.8744ZM127.311 50.2222H130.193V30.963H127.311V50.2222ZM122.597 38.9748H122.489C122.058 38.4847 121.527 38.0932 120.932 37.8273C120.336 37.5614 119.69 37.4273 119.038 37.4341C117.354 37.5157 115.766 38.2421 114.603 39.4626C113.441 40.6831 112.792 42.3042 112.792 43.9899C112.792 45.6757 113.441 47.2968 114.603 48.5173C115.766 49.7378 117.354 50.4641 119.038 50.5458C119.691 50.5589 120.339 50.4276 120.936 50.1612C121.532 49.8949 122.063 49.5001 122.489 49.005H122.597V49.9449C122.597 52.4563 121.256 53.7967 119.099 53.7967C118.379 53.7809 117.679 53.5513 117.089 53.1371C116.499 52.7228 116.046 52.1427 115.787 51.4702L113.291 52.5025C113.752 53.6615 114.554 54.6532 115.592 55.3465C116.629 56.0398 117.852 56.402 119.099 56.3852C122.473 56.3852 125.262 54.3976 125.262 49.5597V37.8963H122.597V38.9748ZM119.284 48.0344C118.275 47.9714 117.327 47.5261 116.635 46.7889C115.942 46.0518 115.556 45.0784 115.556 44.067C115.556 43.0555 115.942 42.0821 116.635 41.345C117.327 40.6079 118.275 40.1625 119.284 40.0996C119.778 40.1209 120.262 40.2412 120.708 40.4534C121.154 40.6656 121.552 40.9653 121.88 41.3347C122.208 41.7042 122.458 42.1358 122.615 42.6038C122.773 43.0719 122.835 43.5668 122.797 44.0593C122.839 44.5534 122.78 45.0509 122.625 45.5217C122.469 45.9925 122.219 46.4268 121.891 46.7984C121.563 47.17 121.162 47.4711 120.714 47.6835C120.266 47.896 119.78 48.0153 119.284 48.0344V48.0344ZM156.863 30.963H149.96V50.2222H152.841V42.9191H156.863C157.684 42.9781 158.508 42.8673 159.285 42.5936C160.061 42.3199 160.773 41.8892 161.376 41.3283C161.978 40.7674 162.459 40.0884 162.788 39.3336C163.116 38.5787 163.286 37.7643 163.286 36.941C163.286 36.1178 163.116 35.3034 162.788 34.5485C162.459 33.7937 161.978 33.1147 161.376 32.5538C160.773 31.9929 160.061 31.5622 159.285 31.2885C158.508 31.0148 157.684 30.904 156.863 30.963V30.963ZM156.863 40.2074H152.841V33.6439H156.924C157.357 33.6439 157.786 33.7291 158.186 33.8948C158.586 34.0605 158.95 34.3034 159.256 34.6096C159.562 34.9158 159.805 35.2792 159.971 35.6793C160.136 36.0793 160.222 36.5081 160.222 36.941C160.222 37.374 160.136 37.8028 159.971 38.2028C159.805 38.6029 159.562 38.9663 159.256 39.2725C158.95 39.5787 158.586 39.8215 158.186 39.9872C157.786 40.1529 157.357 40.2382 156.924 40.2382L156.863 40.2074ZM174.643 37.4495C173.594 37.3848 172.549 37.6291 171.637 38.1521C170.725 38.6751 169.986 39.454 169.512 40.3923L172.055 41.4554C172.311 40.9923 172.697 40.6134 173.164 40.3646C173.632 40.1158 174.162 40.0077 174.689 40.0533C175.055 40.0106 175.426 40.0412 175.779 40.1432C176.133 40.2452 176.463 40.4167 176.75 40.6476C177.037 40.8785 177.275 41.1642 177.45 41.4881C177.625 41.812 177.734 42.1675 177.771 42.5339V42.7188C176.844 42.2318 175.813 41.978 174.766 41.9793C172.024 41.9793 169.22 43.52 169.22 46.3242C169.247 46.9202 169.393 47.5047 169.651 48.0429C169.908 48.5812 170.271 49.0622 170.718 49.4574C171.165 49.8527 171.687 50.154 172.253 50.3436C172.818 50.5332 173.416 50.6072 174.011 50.5612C174.734 50.6012 175.455 50.4482 176.099 50.1179C176.744 49.7876 177.289 49.2918 177.678 48.6815H177.771V50.2222H180.544V42.8113C180.544 39.437 177.986 37.4803 174.705 37.4803L174.643 37.4495ZM174.289 48.0036C173.349 48.0036 172.039 47.5259 172.039 46.3704C172.039 44.8296 173.672 44.3058 175.121 44.3058C176.036 44.2832 176.94 44.5067 177.74 44.9529C177.643 45.7896 177.246 46.5629 176.623 47.1295C176 47.6961 175.192 48.0176 174.35 48.0344L174.289 48.0036ZM190.651 37.8963L187.354 46.2471H187.262L183.841 37.8963H180.76L185.89 49.5751L182.963 56.0616H185.967L193.856 37.8963H190.651ZM164.767 50.2222H167.633V30.963H164.767V50.2222Z" fill="white"/>
<path d="M16.0854 15.6172C15.5776 16.2175 15.3186 16.9892 15.3612 17.7742V51.8554C15.3088 52.6418 15.569 53.417 16.0854 54.0124L16.1932 54.1357L35.283 35.0459V34.5837L16.1932 15.5093L16.0854 15.6172Z" fill="url(#paint0_linear_4_88)"/>
<path d="M41.6 41.4092L35.283 35.0459V34.5837L41.6 28.2204L41.7387 28.3129L49.3037 32.5961C51.4607 33.8133 51.4607 35.8163 49.3037 37.0489L41.7695 41.3321L41.6 41.4092Z" fill="url(#paint1_linear_4_88)"/>
<path d="M41.7849 41.3167L35.283 34.8148L16.0854 54.0124C16.5207 54.4 17.078 54.6229 17.6605 54.6426C18.2431 54.6623 18.8141 54.4775 19.2747 54.1203L41.7849 41.3167" fill="url(#paint2_linear_4_88)"/>
<path d="M41.7849 28.3129L19.2747 15.5247C18.8171 15.1625 18.2465 14.9733 17.6632 14.9902C17.0799 15.0071 16.5212 15.2291 16.0854 15.6172L35.283 34.8148L41.7849 28.3129Z" fill="url(#paint3_linear_4_88)"/>
<path opacity="0.2" d="M41.6 41.1781L19.2747 53.8892C18.8309 54.2241 18.29 54.4053 17.7339 54.4053C17.1779 54.4053 16.637 54.2241 16.1932 53.8892V53.8892L16.0854 53.997L16.1932 54.1203C16.637 54.4552 17.1779 54.6365 17.7339 54.6365C18.29 54.6365 18.8309 54.4552 19.2747 54.1203L41.7849 41.3167L41.6 41.1781Z" fill="black"/>
<path opacity="0.12" d="M16.0853 53.7967C15.5904 53.1856 15.3479 52.4084 15.4074 51.6243V51.8554C15.355 52.6418 15.6152 53.417 16.1315 54.0124L16.2394 53.9046L16.0853 53.7967Z" fill="black"/>
<path opacity="0.12" d="M49.3037 36.8178L41.6 41.1781L41.7387 41.3167L49.3037 37.0335C49.7503 36.8447 50.1376 36.5389 50.4251 36.1485C50.7125 35.758 50.8893 35.2973 50.9369 34.8148C50.8406 35.2533 50.6426 35.6629 50.3589 36.0109C50.0752 36.3588 49.7138 36.6352 49.3037 36.8178Z" fill="black"/>
<path opacity="0.25" d="M19.2747 15.7404L49.3037 32.8118C49.7138 32.9945 50.0752 33.2709 50.3589 33.6188C50.6426 33.9667 50.8406 34.3764 50.9369 34.8148C50.8893 34.3323 50.7125 33.8716 50.4251 33.4811C50.1377 33.0907 49.7503 32.785 49.3037 32.5961L19.2747 15.5247C17.1331 14.2921 15.3612 15.309 15.3612 17.7742V18.0053C15.4074 15.5401 17.1331 14.5232 19.2747 15.7404Z" fill="white"/>
<path d="M64.8806 25.9864H63.7558V22.9049H64.7111C65.1409 22.4383 65.4641 21.8838 65.6583 21.2799C65.8525 20.676 65.9131 20.0371 65.8358 19.4074V14.7852H71.9988V22.8895H73.0311V25.971H71.891V24.0296H64.8806V25.9864ZM67.0222 19.4074C67.091 20.6451 66.7849 21.8747 66.144 22.9357H70.7662V15.9253H67.0222V19.4074Z" fill="white" stroke="white" stroke-width="0.291508" stroke-miterlimit="10"/>
<path d="M82.2909 22.8279C81.8472 23.2728 81.3201 23.6257 80.7398 23.8666C80.1595 24.1074 79.5373 24.2314 78.909 24.2314C78.2807 24.2314 77.6585 24.1074 77.0782 23.8666C76.4979 23.6257 75.9708 23.2728 75.5271 22.8279C74.6456 21.9073 74.1536 20.682 74.1536 19.4074C74.1536 18.1329 74.6456 16.9076 75.5271 15.987C75.9708 15.5421 76.4979 15.1891 77.0782 14.9483C77.6585 14.7074 78.2807 14.5835 78.909 14.5835C79.5373 14.5835 80.1595 14.7074 80.7398 14.9483C81.3201 15.1891 81.8472 15.5421 82.2909 15.987C82.736 16.4369 83.0866 16.9712 83.3221 17.5587C83.5576 18.1461 83.6733 18.7747 83.6622 19.4074C83.6804 20.0411 83.5681 20.6718 83.3322 21.2602C83.0963 21.8486 82.7418 22.3822 82.2909 22.8279V22.8279ZM76.3899 22.0575C76.7145 22.3947 77.1049 22.6616 77.5369 22.8418C77.9689 23.0221 78.4333 23.1117 78.9013 23.1052C79.3697 23.1145 79.8349 23.0261 80.2673 22.8457C80.6997 22.6654 81.0898 22.3969 81.4127 22.0575C82.0775 21.3351 82.4465 20.3892 82.4465 19.4074C82.4465 18.4257 82.0775 17.4798 81.4127 16.7573C81.0898 16.4179 80.6997 16.1495 80.2673 15.9691C79.8349 15.7887 79.3697 15.7004 78.9013 15.7096C78.4333 15.7031 77.9689 15.7928 77.5369 15.973C77.1049 16.1532 76.7145 16.4202 76.3899 16.7573C75.7349 17.4846 75.3724 18.4287 75.3724 19.4074C75.3724 20.3862 75.7349 21.3302 76.3899 22.0575Z" fill="white" stroke="white" stroke-width="0.291508" stroke-miterlimit="10"/>
<path d="M89.6403 24.2299C89.0169 24.2397 88.398 24.1233 87.8207 23.8876C87.2435 23.6519 86.7199 23.3019 86.2815 22.8587C85.3925 21.9296 84.8963 20.6933 84.8963 19.4074C84.8963 18.1215 85.3925 16.8852 86.2815 15.9561C86.7271 15.5052 87.2607 15.1508 87.8492 14.9149C88.4376 14.679 89.0682 14.5667 89.7019 14.5849C90.347 14.5666 90.9876 14.696 91.5751 14.963C92.1625 15.23 92.6812 15.6277 93.0916 16.1256L92.275 16.9268C91.9723 16.5376 91.5806 16.2268 91.1329 16.0204C90.6852 15.8139 90.1945 15.7179 89.7019 15.7404C89.2277 15.7283 88.756 15.8137 88.316 15.9913C87.8761 16.1688 87.4773 16.4348 87.1443 16.7727C86.4806 17.5018 86.1128 18.4523 86.1128 19.4382C86.1128 20.4241 86.4806 21.3746 87.1443 22.1037C87.4773 22.4416 87.8761 22.7076 88.316 22.8852C88.756 23.0627 89.2277 23.1481 89.7019 23.136C90.2314 23.121 90.7511 22.9904 91.2248 22.7536C91.6985 22.5167 92.1148 22.1792 92.4445 21.7647L93.2765 22.5813C92.8544 23.0871 92.3291 23.4969 91.7357 23.7831C91.0803 24.0893 90.3637 24.2421 89.6403 24.2299Z" fill="white" stroke="white" stroke-width="0.291508" stroke-miterlimit="10"/>
<path d="M98.1144 24.0296H96.928V15.9253H94.3396V14.7852H100.687V15.9253H98.1144V24.0296Z" fill="white" stroke="white" stroke-width="0.291508" stroke-miterlimit="10"/>
<path d="M108.853 14.7852L105.356 22.5813C105.271 22.8939 105.119 23.1843 104.911 23.4324C104.703 23.6805 104.443 23.8803 104.15 24.0181C103.857 24.1559 103.537 24.2283 103.214 24.2303C102.89 24.2322 102.569 24.1638 102.274 24.0296L102.583 22.9357C102.771 23.0416 102.983 23.0998 103.199 23.1052C103.427 23.1166 103.653 23.0574 103.846 22.9357C104.033 22.78 104.176 22.5782 104.262 22.3502L104.601 21.6107L101.519 14.7852H102.922L105.202 20.0853L107.451 14.7852H108.853Z" fill="white" stroke="white" stroke-width="0.291508" stroke-miterlimit="10"/>
<path d="M110.194 24.0296V14.7852H116.881V24.0296H115.694V15.9253H111.38V24.0296H110.194Z" fill="white" stroke="white" stroke-width="0.291508" stroke-miterlimit="10"/>
<path d="M118.991 24.0296V14.7852H120.178V18.7449H124.8V14.7852H126.002V24.0296H124.8V19.8542H120.178V24.0296H118.991Z" fill="white" stroke="white" stroke-width="0.291508" stroke-miterlimit="10"/>
<path d="M135.678 22.8279C135.233 23.2732 134.704 23.6265 134.123 23.8676C133.541 24.1086 132.918 24.2327 132.288 24.2327C131.658 24.2327 131.035 24.1086 130.453 23.8676C129.872 23.6265 129.343 23.2732 128.898 22.8279C128.017 21.9073 127.525 20.682 127.525 19.4074C127.525 18.1329 128.017 16.9076 128.898 15.987C129.342 15.5421 129.869 15.1891 130.45 14.9483C131.03 14.7074 131.652 14.5835 132.28 14.5835C132.909 14.5835 133.531 14.7074 134.111 14.9483C134.691 15.1891 135.219 15.5421 135.662 15.987C136.537 16.9111 137.024 18.1351 137.024 19.4074C137.024 20.6797 136.537 21.9037 135.662 22.8279H135.678ZM129.777 22.0575C130.1 22.3969 130.49 22.6654 130.922 22.8457C131.354 23.0261 131.82 23.1145 132.288 23.1052C132.756 23.1117 133.22 23.0221 133.652 22.8418C134.084 22.6616 134.475 22.3947 134.799 22.0575C135.454 21.3302 135.817 20.3862 135.817 19.4074C135.817 18.4287 135.454 17.4846 134.799 16.7573C134.475 16.4202 134.084 16.1532 133.652 15.973C133.22 15.7928 132.756 15.7031 132.288 15.7096C131.82 15.7004 131.354 15.7887 130.922 15.9691C130.49 16.1495 130.1 16.4179 129.777 16.7573C129.112 17.4798 128.743 18.4257 128.743 19.4074C128.743 20.3892 129.112 21.3351 129.777 22.0575V22.0575Z" fill="white" stroke="white" stroke-width="0.291508" stroke-miterlimit="10"/>
<path d="M141.887 24.0296V14.7852H145.23C145.923 14.7782 146.594 15.0311 147.11 15.4939C147.367 15.7173 147.573 15.9946 147.711 16.3061C147.849 16.6176 147.918 16.9558 147.911 17.2966C147.915 17.7116 147.797 18.1187 147.572 18.4675C147.345 18.7984 147.03 19.0597 146.663 19.2225V19.2225C147.108 19.3746 147.499 19.653 147.788 20.0237C148.071 20.4013 148.223 20.8613 148.219 21.3333C148.227 21.6885 148.157 22.0411 148.013 22.3659C147.869 22.6908 147.655 22.98 147.387 23.213C146.852 23.7106 146.145 23.9813 145.415 23.968L141.887 24.0296ZM143.073 18.7449H145.23C145.432 18.7566 145.634 18.7224 145.821 18.645C146.007 18.5677 146.174 18.4491 146.309 18.2981C146.57 18.042 146.72 17.6932 146.725 17.3274C146.739 16.9605 146.612 16.602 146.37 16.3259C146.241 16.1822 146.081 16.069 145.903 15.9944C145.724 15.9198 145.531 15.8857 145.338 15.8945H143.119L143.073 18.7449ZM143.073 22.8895H145.477C145.685 22.8965 145.893 22.8573 146.085 22.7747C146.277 22.6922 146.448 22.5682 146.586 22.4118C146.852 22.1277 147.001 21.7534 147.002 21.3641C146.993 20.9781 146.839 20.6097 146.571 20.3318C146.422 20.1759 146.243 20.0528 146.043 19.9705C145.844 19.8883 145.63 19.8486 145.415 19.8542H143.073V22.8895Z" fill="white" stroke="white" stroke-width="0.291508" stroke-miterlimit="10"/>
<defs>
<linearGradient id="paint0_linear_4_88" x1="33.5882" y1="17.4199" x2="7.73455" y2="43.2735" gradientUnits="userSpaceOnUse">
<stop stop-color="#00A0FF"/>
<stop offset="0.01" stop-color="#00A1FF"/>
<stop offset="0.26" stop-color="#00BEFF"/>
<stop offset="0.51" stop-color="#00D2FF"/>
<stop offset="0.76" stop-color="#00DFFF"/>
<stop offset="1" stop-color="#00E3FF"/>
</linearGradient>
<linearGradient id="paint1_linear_4_88" x1="52.1232" y1="34.8148" x2="14.8527" y2="34.8148" gradientUnits="userSpaceOnUse">
<stop stop-color="#FFE000"/>
<stop offset="0.41" stop-color="#FFBD00"/>
<stop offset="0.78" stop-color="#FFA500"/>
<stop offset="1" stop-color="#FF9C00"/>
</linearGradient>
<linearGradient id="paint2_linear_4_88" x1="38.2566" y1="38.3585" x2="3.18935" y2="73.4104" gradientUnits="userSpaceOnUse">
<stop stop-color="#FF3A44"/>
<stop offset="1" stop-color="#C31162"/>
</linearGradient>
<linearGradient id="paint3_linear_4_88" x1="11.2474" y1="4.27735" x2="26.9014" y2="19.9313" gradientUnits="userSpaceOnUse">
<stop stop-color="#32A071"/>
<stop offset="0.07" stop-color="#2DA771"/>
<stop offset="0.48" stop-color="#15CF74"/>
<stop offset="0.8" stop-color="#06E775"/>
<stop offset="1" stop-color="#00F076"/>
</linearGradient>
</defs>
</svg>
